<?xml version="1.0" encoding="UTF-8" standalone="no"?>
<svg width="41px" height="41px" viewBox="0 0 41 41" version="1.1" xmlns="http://www.w3.org/2000/svg" xmlns:xlink="http://www.w3.org/1999/xlink">
    <!-- Generator: Sketch 41.2 (35397) - http://www.bohemiancoding.com/sketch -->
    <title>Group 5</title>
    <desc>Created with Sketch.</desc>
    <defs></defs>
    <g id="Visual_Design" stroke="none" stroke-width="1" fill="none" fill-rule="evenodd">
        <g id="9_Blog_No-Photo" transform="translate(-930.000000, -1155.000000)">
            <g id="Group-2" transform="translate(930.000000, 1155.000000)">
                <g id="Group-5">
                    <ellipse id="Oval-83-Copy-3" fill="#F05C3D" cx="20.4795396" cy="20.4576071" rx="20.4795396" ry="20.4576071"></ellipse>
                    <g id="noun_91_cc-copy" transform="translate(9.000000, 14.000000)" fill="#FFFFFF">
                        <g id="Group">
                            <path d="M0,0 L0,14.3562155 L22.2759905,14.3562155 L22.2759905,0 L0,0 L0,0 Z M20.6545211,0.870073665 L11.1379952,8.78187102 L1.62169211,0.870073665 L20.6545211,0.870073665 L20.6545211,0.870073665 Z M0.891039619,1.40516897 L7.5836382,6.96820247 L0.891039619,13.1189707 L0.891039619,1.40516897 L0.891039619,1.40516897 Z M1.79165791,13.4861418 L8.2663973,7.53592553 L11.1379952,9.9225376 L14.0095932,7.53570802 L20.4843326,13.4861418 L1.79165791,13.4861418 L1.79165791,13.4861418 Z M21.3849509,13.1189707 L14.6923523,6.96820247 L21.3849509,1.40516897 L21.3849509,13.1189707 L21.3849509,13.1189707 Z" id="Shape"></path>
                        </g>
                    </g>
                </g>
            </g>
        </g>
    </g>
</svg>