<?xml version="1.0" encoding="UTF-8" standalone="no"?>
<svg width="41px" height="41px" viewBox="0 0 41 41" version="1.1" xmlns="http://www.w3.org/2000/svg" xmlns:xlink="http://www.w3.org/1999/xlink">
    <!-- Generator: Sketch 41.2 (35397) - http://www.bohemiancoding.com/sketch -->
    <title>Group 3</title>
    <desc>Created with Sketch.</desc>
    <defs></defs>
    <g id="Visual_Design" stroke="none" stroke-width="1" fill="none" fill-rule="evenodd">
        <g id="9_Blog_No-Photo" transform="translate(-1034.000000, -1155.000000)">
            <g id="Group-2" transform="translate(930.000000, 1155.000000)">
                <g id="Group-3" transform="translate(104.000000, 0.000000)">
                    <ellipse id="Oval-83-Copy-4" fill="#459BBC" cx="20.4795396" cy="20.4576071" rx="20.4795396" ry="20.4576071"></ellipse>
                    <g id="noun_49609_cc-copy" transform="translate(10.000000, 11.000000)" fill="#FFFFFF">
                        <g id="Group">
                            <path d="M15.2158834,1.23970871 C16.4350378,1.23970871 17.5341341,1.75731216 18.307216,2.58701478 C18.9479686,2.60372245 19.0156257,2.60973721 19.3253891,2.60973721 C19.5117777,2.60973721 19.7857227,2.60739813 20.3239946,2.60372245 C19.9823926,3.81268905 19.8911882,4.06096495 19.4530753,5.44903772 C19.4610349,5.63215372 19.4653464,5.81560388 19.4653464,6.00105896 C19.4653464,11.6388933 15.2056022,18.1405139 7.41641239,18.1405139 C3.68664879,18.1405139 1.59325844,16.2829557 1.93486047,16.2829557 C3.91880551,16.2829557 5.74554728,15.6016172 7.19486855,14.456808 C5.34159458,14.4220561 -1.40454818,10.1044614 2.36169719,2.02062495 C4.45077606,4.60162497 7.57129409,6.30012615 11.0911217,6.47789571 C11.0181581,6.16579653 10.9810131,5.84066538 10.9810131,5.50550963 C10.9810131,3.14972892 12.8770702,1.23970871 15.2158834,1.23970871 L15.2158834,1.23970871 Z M20.3239946,2.6040566 L20.3256529,2.6040566 L20.3239946,2.6040566 Z M15.2158834,0.237248837 C12.3815814,0.237248837 10.0669789,2.52051828 9.98837725,5.35681141 C7.31559004,4.93343919 4.86302007,3.52498307 3.13312082,1.38740447 C2.94308396,1.1524947 2.6588578,1.01849923 2.3623605,1.01849923 C2.3218989,1.01849923 2.28110564,1.0208383 2.24064404,1.0258506 C1.90103192,1.06795392 1.60685619,1.28281449 1.46159241,1.59491366 C-0.650702134,6.12837136 0.36614432,9.44384032 1.59126852,11.4267059 C2.47578564,12.858887 3.71649751,13.9826445 4.89585367,14.6763467 C3.97087495,15.0749916 2.97127442,15.2811642 1.93552378,15.2811642 C1.36707146,15.2811642 0.904416268,15.742964 0.904416268,16.3103563 C0.904416268,17.297111 2.44461031,17.9954913 2.95038032,18.2250547 C3.87403243,18.6440829 5.3986388,19.1433079 7.4170757,19.1433079 C12.3215523,19.1433079 15.3946441,16.8075764 17.1089556,14.8481015 C19.2394911,12.4131265 20.4609671,9.1885472 20.4609671,6.00139311 C20.4609671,5.86439026 20.4586455,5.72571665 20.454334,5.58637472 C20.5272976,5.35647726 20.5896482,5.15999512 20.6453659,4.98456465 C20.8917836,4.20932901 21.0065354,3.84944592 21.2692041,2.92116807 C21.3023694,2.82159039 21.3202786,2.71466134 21.3202786,2.60372245 C21.3202786,2.05003044 20.8755327,1.60126257 20.3263162,1.60126257 L20.3243263,1.60126257 L20.3176932,1.60126257 L19.9969853,1.6039358 C19.6653328,1.60627487 19.4689946,1.60761148 19.3257207,1.60761148 C19.1260659,1.60761148 19.0325399,1.60493826 18.8030364,1.59825519 L18.7237715,1.59591612 C17.7672858,0.728120022 16.5116496,0.237248837 15.2158834,0.237248837 L15.2158834,0.237248837 L15.2158834,0.237248837 Z" id="Shape"></path>
                        </g>
                    </g>
                </g>
            </g>
        </g>
    </g>
</svg>