<?xml version="1.0" encoding="UTF-8" standalone="no"?>
<svg width="588px" height="874px" viewBox="0 0 588 874" version="1.1" xmlns="http://www.w3.org/2000/svg" xmlns:xlink="http://www.w3.org/1999/xlink">
    <!-- Generator: Sketch 41.2 (35397) - http://www.bohemiancoding.com/sketch -->
    <title>Page 1</title>
    <desc>Created with Sketch.</desc>
    <defs>
        <polygon id="path-1" points="200.642421 0.76630901 0.153864731 0.76630901 0.153864731 142.959167 200.642421 142.959167 200.642421 0.76630901"></polygon>
    </defs>
    <g id="Visual_Design" stroke="none" stroke-width="1" fill="none" fill-rule="evenodd">
        <g id="3_Our-Approach" transform="translate(-852.000000, -1777.000000)">
            <g id="Page-1" transform="translate(852.000000, 1776.000000)">
                <path d="M700.920245,587.831471 C700.920245,607.800964 700.972098,627.130784 700.891077,646.460604 C700.865151,653.490515 700.709591,660.533415 700.246153,667.54709 C699.980405,671.586448 701.646191,672.664476 705.356939,673.723021 C713.617811,676.080396 721.570805,679.496316 729.731211,682.243339 C736.287407,684.451348 742.982959,686.246978 749.578045,688.34134 C752.507754,689.27325 756.218503,689.70511 758.049571,691.741024 C762.654788,696.864904 767.904931,697.624719 774.250473,696.93634 C780.181189,696.290172 786.384135,695.637511 791.41066,700.374989 C792.029658,700.956215 793.225524,701.235463 794.113511,701.167275 C810.612569,699.93014 827.111628,698.689759 843.597723,697.290271 C851.100241,696.653844 857.808756,696.306408 864.51403,702.030996 C869.932696,706.654826 877.746333,708.466693 887.164181,712.733345 C888.282267,726.971756 890.13278,743.700672 890.670758,760.475046 C890.920301,768.180348 892.59581,774.229643 897.816785,780.025667 C909.743034,793.26398 916.649239,816.672123 903.147948,836.099355 C899.761282,840.97321 900.629824,848.821383 899.492293,855.607764 C894.770406,857.880714 888.988768,860.663455 881.687181,864.176787 C880.034358,860.634231 878.183845,856.666309 876.064343,852.120408 C872.710086,854.023193 868.840536,856.22146 865.090898,858.35154 C868.325245,869.144807 864.899689,878.655481 855.083219,884.782706 C847.311712,889.633832 839.407331,894.806418 830.838581,897.667088 C825.115277,899.576367 818.12481,897.741771 811.704729,897.449535 C809.838011,897.365111 807.987498,896.809861 804.309158,896.140965 C807.48517,902.109083 809.974126,906.788114 812.971893,912.418537 C809.031045,913.291999 804.82769,913.697883 801.055366,915.194784 C796.382091,917.045615 788.950871,916.217611 790.399522,925.455531 C790.632861,926.945937 784.919281,929.3715 780.829355,932.12177 C780.531199,938.050924 779.212181,945.012646 771.077702,948.915627 C768.938755,949.941702 768.579023,954.685674 767.486864,957.50738 C768.501243,958.218489 768.857734,958.68282 769.240152,958.705549 C781.315479,959.423152 781.250663,959.390682 776.690817,971.132094 C776.081541,972.703677 775.925981,974.99611 776.622759,976.441057 C781.331683,986.224485 781.733546,996.449515 780.391843,1007.23304 C768.109103,1004.69058 755.557374,1003.26837 743.835297,999.352398 C730.687255,994.959109 720.741152,985.912766 715.426194,972.362735 C710.150125,958.910115 704.864333,945.408789 698.518791,932.452972 C695.974741,927.26415 690.630614,923.432605 686.479113,919.058799 C681.481755,913.795295 676.118184,908.872734 677.55063,900.352417 C677.832582,898.670434 675.748729,896.650755 674.945004,894.705759 C673.36672,890.887202 671.99585,886.977727 670.39164,883.168912 C669.422632,880.876479 668.683723,878.132703 666.959602,876.570861 C658.711694,869.096101 651.18649,859.686086 641.457522,855.273315 C629.547477,849.873435 615.764234,846.830928 602.671286,846.39582 C592.038128,846.04189 590.459844,850.152683 588.92045,861.738236 C587.416706,873.060776 578.990552,877.554724 569.789839,871.440487 C562.352138,866.498444 554.88851,861.322611 548.530004,855.127197 C544.291,850.996922 541.643243,845.061274 538.878817,839.632169 C535.544004,833.086072 532.776336,826.247738 529.885517,819.48084 C528.132229,815.376541 526.625244,811.168335 524.991866,807.012083 C524.311292,805.278147 524.064989,802.573336 522.826993,801.988863 C510.207206,796.007756 504.503348,783.454575 495.552179,774.008843 C489.702484,767.839406 482.718498,762.751244 474.502998,755.682368 C516.397189,758.533297 556.654761,761.270579 598.049865,764.08579 C602.211088,705.086491 606.343145,646.528793 610.481683,587.831471 L700.920245,587.831471 Z" id="Fill-1" fill="#165376"></path>
                <path d="M49.5966681,564.589254 C49.9142693,563.072871 50.4554877,560.997992 50.7763297,558.890642 C52.0661795,550.451502 52.2184985,542.350057 48.4526557,534.118729 C41.3098695,518.519795 35.0485887,502.518224 28.3433144,486.714724 C26.9367948,483.396216 26.4506705,480.912206 29.5359393,477.743064 C33.9629111,473.197163 35.6740686,467.706364 31.8045193,461.34535 C28.0808073,455.221372 25.1219308,448.626569 21.0028377,440.645265 C23.4302183,439.349684 26.6742877,437.618994 31.0299613,435.294091 C31.5679388,431.998312 29.8049281,426.45556 36.2217686,422.591545 C40.1788203,420.211441 36.3578834,414.899231 29.9669695,412.762657 C25.4881444,415.009631 22.2311117,416.642909 18.2157251,418.65934 C17.5092245,415.308362 16.799483,413.694567 16.8967079,412.132725 C17.4444079,403.323419 14.3558983,395.916847 9.99698388,388.315452 C4.53942857,378.791789 5.72557183,367.966051 6.62328134,357.237725 C7.40432103,347.899146 7.5598808,338.229365 5.95242983,329.06288 C4.91536469,323.143468 -1.57601493,318.464437 0.358759722,311.223467 C1.14628106,308.265384 1.48008641,305.024806 2.94170009,302.430395 C8.40573705,292.731391 14.5244214,283.392812 19.8004903,273.593148 C21.4792395,270.472712 22.1792585,266.241777 21.7709141,262.699221 C20.9671886,255.753734 21.0838584,255.211473 28.2136813,257.026586 C56.0329537,264.114945 83.8327811,271.274739 111.63909,278.411803 C120.47683,280.681507 129.314569,282.960951 138.434261,285.308584 C129.100675,320.445151 119.805978,354.938798 110.948794,389.546092 C110.07377,392.971753 110.81592,397.69949 112.595135,400.79395 C148.101652,462.614955 189.137024,520.834957 229.102922,579.749833 C231.471967,583.243683 233.6336,586.214754 230.836765,590.702207 C228.804765,593.959021 230.340918,596.959315 232.311342,600.466153 C235.766065,606.609613 238.744387,613.516136 239.638855,620.399928 C240.069886,623.711942 236.125797,628.98194 232.748854,631.157478 C221.733277,638.249084 218.135958,649.016375 217.306306,660.761034 C216.334057,674.525373 212.620068,679.366757 198.70395,677.580868 C181.968311,675.431306 165.391473,671.853033 148.87297,668.294242 C143.198279,667.070095 140.725527,662.300147 140.061157,656.322287 C139.237986,648.918963 137.734242,641.574086 136.178644,634.277915 C135.835116,632.670614 134.04942,630.144392 132.908648,630.134651 C126.170966,630.066462 124.4274,624.526957 121.264351,620.429152 C114.986866,612.301731 111.535384,601.014908 100.973523,597.517812 C92.4598668,594.699353 87.2453736,590.828843 84.0726024,582.039019 C82.0632887,576.47029 75.2510671,574.492823 68.6300543,574.564259 C66.0211873,574.593483 63.2405564,573.031641 60.8034533,571.706836 C57.3001176,569.797557 54.0366033,567.44343 49.5966681,564.589254" id="Fill-3" fill="#FFFFFF"></path>
                <path d="M613.721863,89.0269737 C609.64166,140.38916 605.697572,190.062868 601.678944,240.671734 C537.011451,233.148268 472.810637,225.680002 407.867674,218.127312 C406.989409,223.118062 406.124108,228.043871 405.067598,234.050954 C395.627064,227.952952 386.335609,231.823462 376.739515,233.528175 C369.872199,234.749074 362.615984,233.765212 353.807412,233.765212 C360.353886,224.803293 351.613371,221.893916 349.305901,216.396623 C344.917819,205.928063 338.053745,196.102422 339.103773,183.802513 C339.317668,181.279538 338.147729,178.639669 337.60651,176.003046 C332.67721,177.922066 328.097919,179.704708 321.418572,182.305613 C323.162137,173.14887 324.555694,165.547474 326.095087,157.975302 C326.377039,156.588802 327.252063,155.325691 327.861339,154.010627 C333.445286,141.989966 333.338339,142.110108 323.431126,133.151436 C321.266253,131.193452 320.047701,128.11198 318.631459,125.420158 C315.948053,120.31576 314.612832,113.808628 310.620131,110.230354 C301.62035,102.16138 301.118021,92.2610575 301.707852,81.7405439 C302.398149,69.40167 303.41901,57.0822786 304.329683,44.756393 C304.35885,44.3375207 304.754231,43.9413779 305.17878,43.1718218 C406.555138,65.9143146 508.887541,83.23095 613.721863,89.0269737" id="Fill-5" fill="#165376"></path>
                <path d="M429.281448,547.356717 C470.064035,551.555182 509.906781,555.695198 549.75925,559.737803 C566.582391,561.445763 583.408773,563.150476 600.264323,564.413587 C605.018618,564.767518 606.596902,566.335854 606.308468,570.979167 C604.749629,596.351788 603.511633,621.747139 601.85881,647.113266 C599.619398,681.425076 597.110997,715.717405 594.69982,750.016227 C594.498889,752.876897 594.165083,755.727827 593.824796,759.312594 C553.401942,756.503877 513.455489,753.730877 473.165508,750.931901 C472.355301,752.831438 471.52889,754.763446 470.478861,757.224727 C453.406176,756.013569 436.139042,754.786176 418.525138,753.532806 C417.870491,757.042891 417.309828,760.052927 416.551474,764.118261 C409.820273,763.468847 403.264077,762.838915 396.137495,762.150535 C407.198442,690.458431 418.168647,619.367035 429.281448,547.356717" id="Fill-7" fill="#165376"></path>
                <path d="M391.616215,761.615743 C369.374408,759.160956 348.072442,756.258074 326.673251,754.679997 C316.172966,753.903946 307.980152,749.617811 299.764651,743.812046 C275.477882,726.638282 251.019349,709.704801 226.447387,692.943415 C222.522743,690.267828 221.119465,687.436381 221.365768,682.83528 C221.735222,675.824851 220.912052,668.720257 221.65096,661.768276 C222.163011,656.93988 224.671413,652.355014 225.880242,647.559089 C227.792331,639.970681 234.073056,636.782057 239.388015,632.167967 C243.422847,628.667623 246.090049,622.832635 243.66915,616.435903 C240.914445,609.149473 238.477342,601.746149 235.638377,593.63821 C241.873731,585.968626 238.707441,575.133146 240.61953,565.304259 C241.329272,561.661044 242.991817,558.206159 244.631676,553.478422 C249.091056,556.868366 251.900854,559.004939 255.297243,561.589608 C268.292965,551.033377 263.000692,534.145355 269.735134,520.549864 C320.911058,529.177335 372.621718,537.892476 424.828226,546.695289 C413.741351,618.449088 402.754942,689.530742 391.616215,761.615743" id="Fill-9" fill="#165376"></path>
                <path d="M143.380737,286.477205 C195.956699,299.079092 248.432195,311.658249 301.737344,324.432231 C286.635083,401.719041 272.748132,478.746084 256.829182,556.82518 C252.356839,553.389777 249.718804,551.366851 247.129382,549.379643 C231.800263,554.13011 237.886539,568.219156 234.383204,578.408468 C233.793373,577.960372 233.184097,577.697359 232.869737,577.233028 C193.253848,518.954578 152.74025,461.267095 117.194843,400.313058 C114.991079,396.536714 114.167909,393.315618 115.363775,388.925577 C124.373278,355.81843 133.100829,322.630106 141.94505,289.4775 C142.184872,288.581308 142.752017,287.772787 143.380737,286.477205" id="Fill-11" fill="#165376"></path>
                <path d="M430.286105,543.203388 C436.025613,490.983974 441.619283,440.06339 447.287492,388.486897 C513.883278,395.373937 580.258688,402.235 647.46375,409.183735 C644.692842,459.633493 641.912211,510.323536 639.073245,562.085112 C569.025976,559.240676 500.446803,548.713669 430.286105,543.203388" id="Fill-13" fill="#165376"></path>
                <path d="M588.989156,399.156127 C521.25908,391.52226 454.167447,383.959829 386.242921,376.303233 C394.711206,324.928059 403.030413,274.471806 411.50518,223.05442 C474.915231,230.460991 537.716007,237.796127 601.673759,245.26764 C597.4542,296.464225 593.26705,347.235444 588.989156,399.156127" id="Fill-15" fill="#165376"></path>
                <path d="M253.088618,148.083097 C241.191536,198.75041 229.440292,248.807273 217.536729,299.490821 C188.161858,292.464157 159.321725,285.791424 130.601502,278.628383 C98.0733059,270.51395 65.6617794,261.935185 33.1886772,253.599951 C20.7795446,250.414574 16.9780527,240.523992 24.023614,229.555383 C24.6782614,228.535802 25.3069821,227.503233 26.0815401,226.259604 C20.0471174,221.17469 25.7412531,215.813774 25.8514413,210.517799 C26.0102419,202.78652 34.079905,203.595041 38.4258562,199.786226 C37.5508324,197.883442 36.6758087,195.983904 35.8072667,194.074626 C42.2241072,188.327308 46.3140329,181.875376 47.7529608,172.744609 C48.9099366,165.406227 57.2421068,158.402292 56.6360719,151.778265 C55.8193831,142.884535 57.2939601,136.250766 62.3917834,129.73714 C66.9905191,123.866434 69.677166,117.706738 69.1715968,109.793623 C68.67575,102.101309 80.0996707,94.7044792 87.5341314,97.0066533 C87.9943291,97.1495245 88.4772125,97.2274542 88.9374102,97.3768195 C101.02246,101.305777 101.515066,101.442154 98.1996982,113.621921 C95.8468567,122.26238 100.646524,127.879815 104.713764,133.945345 C105.491563,135.107797 108.187932,135.471469 109.960665,135.390292 C115.969161,135.10455 121.958212,134.276547 127.966709,134.020028 C130.753821,133.903133 133.60575,134.455136 136.370177,134.987655 C145.638947,136.776792 154.810492,139.251061 164.15056,140.39403 C171.863732,141.335681 179.725982,138.517223 187.578509,142.23512 C190.388308,143.56642 194.925468,140.621325 198.590845,140.861609 C208.462409,141.511023 218.311287,142.631263 228.121275,143.926845 C236.187697,144.991884 244.182821,146.579703 253.088618,148.083097" id="Fill-17" fill="#165376"></path>
                <path d="M269.869304,515.847455 C282.064542,452.048982 294.081534,389.198655 306.231401,325.650208 C333.360377,330.592251 360.029155,335.453118 387.462769,340.453609 C385.314099,353.682181 383.24321,366.420445 381.062132,379.837347 C401.748341,382.370063 421.760457,384.818355 442.838806,387.399777 C437.151152,439.167848 431.512111,490.478081 425.817975,542.298104 C373.728137,533.462821 322.205445,524.72495 269.869304,515.847455" id="Fill-19" fill="#165376"></path>
                <path d="M319.422869,188.957565 C324.692457,186.583955 329.197208,184.554535 335.257558,181.826995 C335.257558,187.908761 335.254317,192.60078 335.260799,197.289552 C335.264039,198.464992 334.891344,199.890457 335.409877,200.776907 C339.856293,208.339338 344.924949,215.573815 348.823666,223.399259 C350.622326,227.010003 350.223704,231.718257 351.011225,237.248021 C360.565188,239.494995 371.441409,240.832789 382.641712,236.952537 C389.849315,234.455539 397.251367,233.484664 404.147851,239.407324 C398.936598,271.212395 393.709142,303.121372 388.387701,335.605081 C332.33109,327.152953 277.399045,315.148527 222.272551,299.919759 C242.608751,212.891733 262.90606,126.01632 283.310317,38.6928106 C288.634998,39.8617565 293.972643,41.0339495 299.588998,42.2678369 C298.979723,54.1845914 298.127385,65.740921 297.887563,77.3069917 C297.725522,85.2266005 298.036642,93.2079037 298.937592,101.069065 C299.251952,103.816088 301.987212,106.277369 303.578458,108.894509 C307.172537,114.810674 310.636983,120.811263 314.350973,126.649499 C316.985766,130.792763 319.095546,136.299797 322.952132,138.384417 C328.730529,141.508101 327.868469,144.255124 325.505905,148.586718 C318.693683,161.097687 316.700573,174.384706 319.422869,188.957565" id="Fill-23" fill="#165376"></path>
                <g id="Group-39" transform="translate(77.435254, 0.641347)">
                    <mask id="mask-2" fill="white">
                        <use xlink:href="#path-1"></use>
                    </mask>
                    <g id="Clip-38"></g>
                    <path d="M8.20202045,5.01055692 C17.6684807,8.80638418 20.1250287,23.9182576 31.5586719,21.7070015 C36.4944538,23.9864461 39.5246286,25.9087128 42.8302737,26.8081518 C50.3652001,28.8603013 51.2337422,30.964404 46.3627768,36.9844757 C44.8363466,38.8677775 43.4881619,40.9329153 41.7672819,42.6116516 C33.8855868,50.28773 35.0587668,59.4996735 37.1037296,68.8999471 C51.1656848,69.253878 62.9072067,50.5767194 60.859003,31.370288 C53.505563,29.6168691 52.6694292,27.8342266 56.5065702,22.090156 C62.4599723,13.1801903 62.4599723,13.1801903 62.8683167,1.84466165 C65.7623766,1.53294273 69.1490425,0.230866825 71.9653225,1.00691705 C114.07989,12.6184468 156.116677,24.4994835 198.166428,36.3383083 C198.834038,36.5266385 199.42711,36.9779815 200.642421,37.6144077 C192.97462,72.3710672 185.293857,107.17968 177.395957,142.959167 C162.261288,140.611534 148.328966,138.017123 134.283215,136.458529 C127.22469,135.679231 119.942549,137.205355 112.79004,136.935848 C102.153641,136.536458 91.465388,136.023421 80.9488993,134.51678 C72.3995935,133.292633 64.1646481,129.750078 55.6153424,128.724003 C49.5809196,128.003153 43.2613039,130.09102 37.0453947,130.341045 C29.3613902,130.652764 23.8228141,123.996266 24.9246959,116.359153 C25.0608107,115.404513 25.4335059,114.492086 25.6441598,113.547188 C29.0275848,98.224255 28.8039677,97.8313593 14.0387527,92.9477629 C3.04262137,89.3077951 0.0707815757,83.264994 3.83338354,72.410032 C5.52509605,67.5231886 9.68631993,62.6980394 3.45744743,57.6488424 C2.30695329,56.7169327 3.46392909,53.0444942 3.37966754,50.6416608 C3.16253203,44.4559885 4.42645517,37.6338901 2.24213672,32.2210209 C-2.24317002,21.1160344 0.842098775,12.7483297 8.20202045,5.01055692" id="Fill-37" fill="#165376" mask="url(#mask-2)"></path>
                </g>
                <g id="Group-5" transform="translate(66.000000, 418.000000)" fill="#2AC3EC">
                    <path d="M1.16669828,25.7297991 C0.521773399,25.7297991 0,25.2070205 0,24.5608532 L0,1.16894595 C0,0.522778604 0.521773399,0 1.16669828,0 C1.81162317,0 2.33339657,0.522778604 2.33339657,1.16894595 L2.33339657,24.5608532 C2.33339657,25.2070205 1.81162317,25.7297991 1.16669828,25.7297991" id="Fill-95"></path>
                    <path d="M2,5.6986115 L2,0 L6.75429551,2.85092928 L10.4909708,5.04919708 C10.9868176,5.34143357 10.9868176,6.0590365 10.4942117,6.35127298 L6.79642628,8.54629371 L3.13753083,10.7185849 C2.6352024,11.0173156 2,10.6568906 2,10.0691705 L2,5.6986115 Z" id="Fill-97"></path>
                </g>
                <g id="Group-5-Copy" transform="translate(78.000000, 408.000000)" fill="#2AC3EC">
                    <path d="M1.16669828,25.7297991 C0.521773399,25.7297991 0,25.2070205 0,24.5608532 L0,1.16894595 C0,0.522778604 0.521773399,0 1.16669828,0 C1.81162317,0 2.33339657,0.522778604 2.33339657,1.16894595 L2.33339657,24.5608532 C2.33339657,25.2070205 1.81162317,25.7297991 1.16669828,25.7297991" id="Fill-95"></path>
                    <path d="M2,5.6986115 L2,0 L6.75429551,2.85092928 L10.4909708,5.04919708 C10.9868176,5.34143357 10.9868176,6.0590365 10.4942117,6.35127298 L6.79642628,8.54629371 L3.13753083,10.7185849 C2.6352024,11.0173156 2,10.6568906 2,10.0691705 L2,5.6986115 Z" id="Fill-97"></path>
                </g>
                <g id="Group-5-Copy-2" transform="translate(68.000000, 472.000000)" fill="#2AC3EC">
                    <path d="M1.16669828,25.7297991 C0.521773399,25.7297991 0,25.2070205 0,24.5608532 L0,1.16894595 C0,0.522778604 0.521773399,0 1.16669828,0 C1.81162317,0 2.33339657,0.522778604 2.33339657,1.16894595 L2.33339657,24.5608532 C2.33339657,25.2070205 1.81162317,25.7297991 1.16669828,25.7297991" id="Fill-95"></path>
                    <path d="M2,5.6986115 L2,0 L6.75429551,2.85092928 L10.4909708,5.04919708 C10.9868176,5.34143357 10.9868176,6.0590365 10.4942117,6.35127298 L6.79642628,8.54629371 L3.13753083,10.7185849 C2.6352024,11.0173156 2,10.6568906 2,10.0691705 L2,5.6986115 Z" id="Fill-97"></path>
                </g>
                <path d="M49.5299071,417.939464 C48.8849822,417.939464 48.3632088,417.416686 48.3632088,416.770518 L48.3632088,393.378611 C48.3632088,392.732444 48.8849822,392.209665 49.5299071,392.209665 C50.174832,392.209665 50.6966054,392.732444 50.6966054,393.378611 L50.6966054,416.770518 C50.6966054,417.416686 50.174832,417.939464 49.5299071,417.939464" id="Fill-99" fill="#2AC3EC"></path>
                <path d="M49.8215816,398.023223 L49.8215816,392.324612 L54.5758772,395.175541 L58.3125525,397.373809 C58.8083993,397.666045 58.8083993,398.383648 58.3157933,398.675885 L54.6180079,400.870905 L50.9591125,403.043197 C50.456784,403.341927 49.8215816,402.981502 49.8215816,402.393782 L49.8215816,398.023223 Z" id="Fill-101" fill="#2AC3EC"></path>
                <path d="M43.3413382,451.72009 C42.6964133,451.72009 42.1746399,451.197311 42.1746399,450.551144 L42.1746399,427.159236 C42.1746399,426.513069 42.6964133,425.99029 43.3413382,425.99029 C43.9862631,425.99029 44.5080365,426.513069 44.5080365,427.159236 L44.5080365,450.551144 C44.5080365,451.197311 43.9862631,451.72009 43.3413382,451.72009" id="Fill-103" fill="#2AC3EC"></path>
                <path d="M44.1746399,431.688902 L44.1746399,425.99029 L48.9289354,428.84122 L52.6656108,431.039488 C53.1614575,431.331724 53.1614575,432.049327 52.6688516,432.341563 L48.9710662,434.536584 L45.3121707,436.708875 C44.8098423,437.007606 44.1746399,436.647181 44.1746399,436.059461 L44.1746399,431.688902 Z" id="Fill-105" fill="#2AC3EC"></path>
                <path d="M56.8217714,471.922038 C56.1768465,471.922038 55.6550731,471.399259 55.6550731,470.753092 L55.6550731,447.361185 C55.6550731,446.715017 56.1768465,446.192239 56.8217714,446.192239 C57.4666962,446.192239 57.9884696,446.715017 57.9884696,447.361185 L57.9884696,470.753092 C57.9884696,471.399259 57.4666962,471.922038 56.8217714,471.922038" id="Fill-107" fill="#2AC3EC"></path>
                <path d="M57.1134459,452.005796 L57.1134459,446.307185 L61.8677414,449.158114 L65.6044168,451.356382 C66.1002635,451.648619 66.1002635,452.366221 65.6076576,452.658458 L61.9098722,454.853479 L58.2509768,457.02577 C57.7486483,457.3245 57.1134459,456.964075 57.1134459,456.376355 L57.1134459,452.005796 Z" id="Fill-109" fill="#2AC3EC"></path>
                <path d="M79.1024678,462.180821 C78.4575429,462.180821 77.9357695,461.658043 77.9357695,461.011876 L77.9357695,437.619968 C77.9357695,436.973801 78.4575429,436.451022 79.1024678,436.451022 C79.7473926,436.451022 80.269166,436.973801 80.269166,437.619968 L80.269166,461.011876 C80.269166,461.658043 79.7473926,462.180821 79.1024678,462.180821" id="Fill-111" fill="#2AC3EC"></path>
                <path d="M79.3941423,442.26458 L79.3941423,436.565969 L84.1484378,439.416898 L87.8851132,441.615166 C88.3809599,441.907402 88.3809599,442.625005 87.888354,442.917242 L84.1905686,445.112262 L80.5316731,447.284554 C80.0293447,447.583284 79.3941423,447.222859 79.3941423,446.635139 L79.3941423,442.26458 Z" id="Fill-113" fill="#2AC3EC"></path>
                <path d="M48.3145964,509.669251 C47.6696715,509.669251 47.1478981,509.146472 47.1478981,508.500305 L47.1478981,485.108397 C47.1478981,484.46223 47.6696715,483.939451 48.3145964,483.939451 C48.9595212,483.939451 49.4812946,484.46223 49.4812946,485.108397 L49.4812946,508.500305 C49.4812946,509.146472 48.9595212,509.669251 48.3145964,509.669251" id="Fill-119" fill="#2AC3EC"></path>
                <path d="M48.6062709,489.753009 L48.6062709,484.054398 L53.3605664,486.905327 L57.0972418,489.103595 C57.5930886,489.395831 57.5930886,490.113434 57.1004826,490.405671 L53.4026972,492.600692 L49.7438018,494.772983 C49.2414733,495.071713 48.6062709,494.711288 48.6062709,494.123568 L48.6062709,489.753009 Z" id="Fill-121" fill="#2AC3EC"></path>
                <path d="M60.8728071,431.333637 C60.2278822,431.333637 59.7061088,430.810858 59.7061088,430.164691 L59.7061088,406.772784 C59.7061088,406.126616 60.2278822,405.603838 60.8728071,405.603838 C61.5177319,405.603838 62.0395053,406.126616 62.0395053,406.772784 L62.0395053,430.164691 C62.0395053,430.810858 61.5177319,431.333637 60.8728071,431.333637" id="Fill-123" fill="#2AC3EC"></path>
                <path d="M61.1644816,411.417395 L61.1644816,405.718784 L65.9187771,408.569713 L69.6554525,410.767981 C70.1512992,411.060218 70.1512992,411.77782 69.6586933,412.070057 L65.9609079,414.265078 L62.3020125,416.437369 C61.799684,416.7361 61.1644816,416.375675 61.1644816,415.787954 L61.1644816,411.417395 Z" id="Fill-125" fill="#2AC3EC"></path>
                <path d="M101.788268,540.110551 C101.143343,540.110551 100.621569,539.587773 100.621569,538.941605 L100.621569,515.549698 C100.621569,514.903531 101.143343,514.380752 101.788268,514.380752 C102.433193,514.380752 102.954966,514.903531 102.954966,515.549698 L102.954966,538.941605 C102.954966,539.587773 102.433193,540.110551 101.788268,540.110551" id="Fill-127" fill="#2AC3EC"></path>
                <path d="M102.079942,520.19431 L102.079942,514.495699 L106.834238,517.346628 L110.570913,519.544896 C111.06676,519.837132 111.06676,520.554735 110.574154,520.846972 L106.876369,523.041992 L103.217473,525.214283 C102.715145,525.513014 102.079942,525.152589 102.079942,524.564869 L102.079942,520.19431 Z" id="Fill-129" fill="#2AC3EC"></path>
                <path d="M126.094806,594.904893 C125.449881,594.904893 124.928108,594.382114 124.928108,593.735947 L124.928108,570.344039 C124.928108,569.697872 125.449881,569.175094 126.094806,569.175094 C126.739731,569.175094 127.261504,569.697872 127.261504,570.344039 L127.261504,593.735947 C127.261504,594.382114 126.739731,594.904893 126.094806,594.904893" id="Fill-135" fill="#2AC3EC"></path>
                <path d="M126.386157,574.988651 L126.386157,569.29004 L131.140452,572.140969 L134.877127,574.339237 C135.372974,574.631473 135.372974,575.349076 134.880368,575.641313 L131.182583,577.836334 L127.523687,580.008625 C127.021359,580.307355 126.386157,579.94693 126.386157,579.35921 L126.386157,574.988651 Z" id="Fill-137" fill="#2AC3EC"></path>
                <path d="M179.163374,628.999149 C178.518449,628.999149 177.996676,628.476371 177.996676,627.830204 L177.996676,604.438296 C177.996676,603.792129 178.518449,603.26935 179.163374,603.26935 C179.808299,603.26935 180.330072,603.792129 180.330072,604.438296 L180.330072,627.830204 C180.330072,628.476371 179.808299,628.999149 179.163374,628.999149" id="Fill-139" fill="#2AC3EC"></path>
                <path d="M179.454724,609.082908 L179.454724,603.384297 L184.20902,606.235226 L187.945695,608.433494 C188.441542,608.72573 188.441542,609.443333 187.948936,609.73557 L184.251151,611.93059 L180.592255,614.102882 C180.089927,614.401612 179.454724,614.041187 179.454724,613.453467 L179.454724,609.082908 Z" id="Fill-141" fill="#2AC3EC"></path>
                <path d="M148.034891,640.356109 C147.389966,640.356109 146.868193,639.83333 146.868193,639.187163 L146.868193,615.795256 C146.868193,615.149088 147.389966,614.62631 148.034891,614.62631 C148.679816,614.62631 149.20159,615.149088 149.20159,615.795256 L149.20159,639.187163 C149.20159,639.83333 148.679816,640.356109 148.034891,640.356109" id="Fill-143" fill="#2AC3EC"></path>
                <path d="M148.326566,620.439543 L148.326566,614.740931 L153.080861,617.591861 L156.817537,619.790128 C157.313384,620.082365 157.313384,620.799968 156.820778,621.092204 L153.122992,623.287225 L149.464097,625.459516 C148.961768,625.758247 148.326566,625.397822 148.326566,624.810102 L148.326566,620.439543 Z" id="Fill-145" fill="#2AC3EC"></path>
                <g id="Group-6" transform="translate(168.000000, 640.000000)" fill="#2AC3EC">
                    <path d="M1.66166986,26.4855007 C1.01674498,26.4855007 0.494971579,25.9627221 0.494971579,25.3165547 L0.494971579,1.92464746 C0.494971579,1.27848012 1.01674498,0.755701514 1.66166986,0.755701514 C2.30659475,0.755701514 2.82836815,1.27848012 2.82836815,1.92464746 L2.82836815,25.3165547 C2.82836815,25.9627221 2.30659475,26.4855007 1.66166986,26.4855007" id="Fill-147"></path>
                    <path d="M1.95334443,6.56893465 L1.95334443,0.870323158 L6.70763994,3.72125244 L10.4443153,5.91952024 C10.9401621,6.21175673 10.9401621,6.92935965 10.4475561,7.22159614 L6.74977071,9.41661687 L3.09087526,11.5889081 C2.58854683,11.8876387 1.95334443,11.5272137 1.95334443,10.9394937 L1.95334443,6.56893465 Z" id="Fill-149"></path>
                </g>
                <g id="Group-6-Copy" transform="translate(138.000000, 578.000000)" fill="#2AC3EC">
                    <path d="M1.66166986,26.4855007 C1.01674498,26.4855007 0.494971579,25.9627221 0.494971579,25.3165547 L0.494971579,1.92464746 C0.494971579,1.27848012 1.01674498,0.755701514 1.66166986,0.755701514 C2.30659475,0.755701514 2.82836815,1.27848012 2.82836815,1.92464746 L2.82836815,25.3165547 C2.82836815,25.9627221 2.30659475,26.4855007 1.66166986,26.4855007" id="Fill-147"></path>
                    <path d="M1.95334443,6.56893465 L1.95334443,0.870323158 L6.70763994,3.72125244 L10.4443153,5.91952024 C10.9401621,6.21175673 10.9401621,6.92935965 10.4475561,7.22159614 L6.74977071,9.41661687 L3.09087526,11.5889081 C2.58854683,11.8876387 1.95334443,11.5272137 1.95334443,10.9394937 L1.95334443,6.56893465 Z" id="Fill-149"></path>
                </g>
                <g id="Group-6-Copy-2" transform="translate(111.000000, 553.000000)" fill="#2AC3EC">
                    <path d="M1.66166986,26.4855007 C1.01674498,26.4855007 0.494971579,25.9627221 0.494971579,25.3165547 L0.494971579,1.92464746 C0.494971579,1.27848012 1.01674498,0.755701514 1.66166986,0.755701514 C2.30659475,0.755701514 2.82836815,1.27848012 2.82836815,1.92464746 L2.82836815,25.3165547 C2.82836815,25.9627221 2.30659475,26.4855007 1.66166986,26.4855007" id="Fill-147"></path>
                    <path d="M1.95334443,6.56893465 L1.95334443,0.870323158 L6.70763994,3.72125244 L10.4443153,5.91952024 C10.9401621,6.21175673 10.9401621,6.92935965 10.4475561,7.22159614 L6.74977071,9.41661687 L3.09087526,11.5889081 C2.58854683,11.8876387 1.95334443,11.5272137 1.95334443,10.9394937 L1.95334443,6.56893465 Z" id="Fill-149"></path>
                </g>
                <g id="Group-6-Copy-4" transform="translate(133.000000, 531.000000)" fill="#2AC3EC">
                    <path d="M1.66166986,26.4855007 C1.01674498,26.4855007 0.494971579,25.9627221 0.494971579,25.3165547 L0.494971579,1.92464746 C0.494971579,1.27848012 1.01674498,0.755701514 1.66166986,0.755701514 C2.30659475,0.755701514 2.82836815,1.27848012 2.82836815,1.92464746 L2.82836815,25.3165547 C2.82836815,25.9627221 2.30659475,26.4855007 1.66166986,26.4855007" id="Fill-147"></path>
                    <path d="M1.95334443,6.56893465 L1.95334443,0.870323158 L6.70763994,3.72125244 L10.4443153,5.91952024 C10.9401621,6.21175673 10.9401621,6.92935965 10.4475561,7.22159614 L6.74977071,9.41661687 L3.09087526,11.5889081 C2.58854683,11.8876387 1.95334443,11.5272137 1.95334443,10.9394937 L1.95334443,6.56893465 Z" id="Fill-149"></path>
                </g>
                <g id="Group-6-Copy-5" transform="translate(102.000000, 464.542146)" fill="#2AC3EC">
                    <path d="M1.66166986,26.4855007 C1.01674498,26.4855007 0.494971579,25.9627221 0.494971579,25.3165547 L0.494971579,1.92464746 C0.494971579,1.27848012 1.01674498,0.755701514 1.66166986,0.755701514 C2.30659475,0.755701514 2.82836815,1.27848012 2.82836815,1.92464746 L2.82836815,25.3165547 C2.82836815,25.9627221 2.30659475,26.4855007 1.66166986,26.4855007" id="Fill-147"></path>
                    <path d="M1.95334443,6.56893465 L1.95334443,0.870323158 L6.70763994,3.72125244 L10.4443153,5.91952024 C10.9401621,6.21175673 10.9401621,6.92935965 10.4475561,7.22159614 L6.74977071,9.41661687 L3.09087526,11.5889081 C2.58854683,11.8876387 1.95334443,11.5272137 1.95334443,10.9394937 L1.95334443,6.56893465 Z" id="Fill-149"></path>
                </g>
                <g id="Group-6-Copy-3" transform="translate(113.000000, 574.000000)" fill="#2AC3EC">
                    <path d="M1.66166986,26.4855007 C1.01674498,26.4855007 0.494971579,25.9627221 0.494971579,25.3165547 L0.494971579,1.92464746 C0.494971579,1.27848012 1.01674498,0.755701514 1.66166986,0.755701514 C2.30659475,0.755701514 2.82836815,1.27848012 2.82836815,1.92464746 L2.82836815,25.3165547 C2.82836815,25.9627221 2.30659475,26.4855007 1.66166986,26.4855007" id="Fill-147"></path>
                    <path d="M1.95334443,6.56893465 L1.95334443,0.870323158 L6.70763994,3.72125244 L10.4443153,5.91952024 C10.9401621,6.21175673 10.9401621,6.92935965 10.4475561,7.22159614 L6.74977071,9.41661687 L3.09087526,11.5889081 C2.58854683,11.8876387 1.95334443,11.5272137 1.95334443,10.9394937 L1.95334443,6.56893465 Z" id="Fill-149"></path>
                </g>
                <path d="M149.250202,603.826548 C148.605277,603.826548 148.083504,603.303769 148.083504,602.657602 L148.083504,579.265695 C148.083504,578.619527 148.605277,578.096749 149.250202,578.096749 C149.895127,578.096749 150.4169,578.619527 150.4169,579.265695 L150.4169,602.657602 C150.4169,603.303769 149.895127,603.826548 149.250202,603.826548" id="Fill-151" fill="#2AC3EC"></path>
                <path d="M149.541877,583.909982 L149.541877,578.21137 L154.296172,581.0623 L158.032848,583.260567 C158.528694,583.552804 158.528694,584.270407 158.036088,584.562643 L154.338303,586.757664 L150.679407,588.929955 C150.177079,589.228686 149.541877,588.868261 149.541877,588.280541 L149.541877,583.909982 Z" id="Fill-153" fill="#2AC3EC"></path>
            </g>
        </g>
    </g>
</svg>