<?xml version="1.0" encoding="UTF-8" standalone="no"?>
<svg width="1317px" height="1195px" viewBox="0 0 1317 1195" version="1.1" xmlns="http://www.w3.org/2000/svg" xmlns:xlink="http://www.w3.org/1999/xlink">
    <!-- Generator: Sketch 41.2 (35397) - http://www.bohemiancoding.com/sketch -->
    <title>Artboard 2</title>
    <desc>Created with Sketch.</desc>
    <defs>
        <polygon id="path-1" points="200.642421 0.76630901 0.153864731 0.76630901 0.153864731 142.959167 200.642421 142.959167 200.642421 0.76630901"></polygon>
        <polygon id="path-3" points="272.305234 118.094435 272.305234 0.551040222 0.371522425 0.551040222 0.371522425 118.094435 272.305234 118.094435"></polygon>
    </defs>
    <g id="Visual_Design" stroke="none" stroke-width="1" fill="none" fill-rule="evenodd">
        <g id="Artboard-2">
            <g id="Page-1" transform="translate(55.000000, 83.000000)">
                <path d="M700.920245,587.831471 C700.920245,607.800964 700.972098,627.130784 700.891077,646.460604 C700.865151,653.490515 700.709591,660.533415 700.246153,667.54709 C699.980405,671.586448 701.646191,672.664476 705.356939,673.723021 C713.617811,676.080396 721.570805,679.496316 729.731211,682.243339 C736.287407,684.451348 742.982959,686.246978 749.578045,688.34134 C752.507754,689.27325 756.218503,689.70511 758.049571,691.741024 C762.654788,696.864904 767.904931,697.624719 774.250473,696.93634 C780.181189,696.290172 786.384135,695.637511 791.41066,700.374989 C792.029658,700.956215 793.225524,701.235463 794.113511,701.167275 C810.612569,699.93014 827.111628,698.689759 843.597723,697.290271 C851.100241,696.653844 857.808756,696.306408 864.51403,702.030996 C869.932696,706.654826 877.746333,708.466693 887.164181,712.733345 C888.282267,726.971756 890.13278,743.700672 890.670758,760.475046 C890.920301,768.180348 892.59581,774.229643 897.816785,780.025667 C909.743034,793.26398 916.649239,816.672123 903.147948,836.099355 C899.761282,840.97321 900.629824,848.821383 899.492293,855.607764 C894.770406,857.880714 888.988768,860.663455 881.687181,864.176787 C880.034358,860.634231 878.183845,856.666309 876.064343,852.120408 C872.710086,854.023193 868.840536,856.22146 865.090898,858.35154 C868.325245,869.144807 864.899689,878.655481 855.083219,884.782706 C847.311712,889.633832 839.407331,894.806418 830.838581,897.667088 C825.115277,899.576367 818.12481,897.741771 811.704729,897.449535 C809.838011,897.365111 807.987498,896.809861 804.309158,896.140965 C807.48517,902.109083 809.974126,906.788114 812.971893,912.418537 C809.031045,913.291999 804.82769,913.697883 801.055366,915.194784 C796.382091,917.045615 788.950871,916.217611 790.399522,925.455531 C790.632861,926.945937 784.919281,929.3715 780.829355,932.12177 C780.531199,938.050924 779.212181,945.012646 771.077702,948.915627 C768.938755,949.941702 768.579023,954.685674 767.486864,957.50738 C768.501243,958.218489 768.857734,958.68282 769.240152,958.705549 C781.315479,959.423152 781.250663,959.390682 776.690817,971.132094 C776.081541,972.703677 775.925981,974.99611 776.622759,976.441057 C781.331683,986.224485 781.733546,996.449515 780.391843,1007.23304 C768.109103,1004.69058 755.557374,1003.26837 743.835297,999.352398 C730.687255,994.959109 720.741152,985.912766 715.426194,972.362735 C710.150125,958.910115 704.864333,945.408789 698.518791,932.452972 C695.974741,927.26415 690.630614,923.432605 686.479113,919.058799 C681.481755,913.795295 676.118184,908.872734 677.55063,900.352417 C677.832582,898.670434 675.748729,896.650755 674.945004,894.705759 C673.36672,890.887202 671.99585,886.977727 670.39164,883.168912 C669.422632,880.876479 668.683723,878.132703 666.959602,876.570861 C658.711694,869.096101 651.18649,859.686086 641.457522,855.273315 C629.547477,849.873435 615.764234,846.830928 602.671286,846.39582 C592.038128,846.04189 590.459844,850.152683 588.92045,861.738236 C587.416706,873.060776 578.990552,877.554724 569.789839,871.440487 C562.352138,866.498444 554.88851,861.322611 548.530004,855.127197 C544.291,850.996922 541.643243,845.061274 538.878817,839.632169 C535.544004,833.086072 532.776336,826.247738 529.885517,819.48084 C528.132229,815.376541 526.625244,811.168335 524.991866,807.012083 C524.311292,805.278147 524.064989,802.573336 522.826993,801.988863 C510.207206,796.007756 504.503348,783.454575 495.552179,774.008843 C489.702484,767.839406 482.718498,762.751244 474.502998,755.682368 C516.397189,758.533297 556.654761,761.270579 598.049865,764.08579 C602.211088,705.086491 606.343145,646.528793 610.481683,587.831471 L700.920245,587.831471 Z" id="Fill-1" fill="#165376"></path>
                <path d="M49.5966681,564.589254 C49.9142693,563.072871 50.4554877,560.997992 50.7763297,558.890642 C52.0661795,550.451502 52.2184985,542.350057 48.4526557,534.118729 C41.3098695,518.519795 35.0485887,502.518224 28.3433144,486.714724 C26.9367948,483.396216 26.4506705,480.912206 29.5359393,477.743064 C33.9629111,473.197163 35.6740686,467.706364 31.8045193,461.34535 C28.0808073,455.221372 25.1219308,448.626569 21.0028377,440.645265 C23.4302183,439.349684 26.6742877,437.618994 31.0299613,435.294091 C31.5679388,431.998312 29.8049281,426.45556 36.2217686,422.591545 C40.1788203,420.211441 36.3578834,414.899231 29.9669695,412.762657 C25.4881444,415.009631 22.2311117,416.642909 18.2157251,418.65934 C17.5092245,415.308362 16.799483,413.694567 16.8967079,412.132725 C17.4444079,403.323419 14.3558983,395.916847 9.99698388,388.315452 C4.53942857,378.791789 5.72557183,367.966051 6.62328134,357.237725 C7.40432103,347.899146 7.5598808,338.229365 5.95242983,329.06288 C4.91536469,323.143468 -1.57601493,318.464437 0.358759722,311.223467 C1.14628106,308.265384 1.48008641,305.024806 2.94170009,302.430395 C8.40573705,292.731391 14.5244214,283.392812 19.8004903,273.593148 C21.4792395,270.472712 22.1792585,266.241777 21.7709141,262.699221 C20.9671886,255.753734 21.0838584,255.211473 28.2136813,257.026586 C56.0329537,264.114945 83.8327811,271.274739 111.63909,278.411803 C120.47683,280.681507 129.314569,282.960951 138.434261,285.308584 C129.100675,320.445151 119.805978,354.938798 110.948794,389.546092 C110.07377,392.971753 110.81592,397.69949 112.595135,400.79395 C148.101652,462.614955 189.137024,520.834957 229.102922,579.749833 C231.471967,583.243683 233.6336,586.214754 230.836765,590.702207 C228.804765,593.959021 230.340918,596.959315 232.311342,600.466153 C235.766065,606.609613 238.744387,613.516136 239.638855,620.399928 C240.069886,623.711942 236.125797,628.98194 232.748854,631.157478 C221.733277,638.249084 218.135958,649.016375 217.306306,660.761034 C216.334057,674.525373 212.620068,679.366757 198.70395,677.580868 C181.968311,675.431306 165.391473,671.853033 148.87297,668.294242 C143.198279,667.070095 140.725527,662.300147 140.061157,656.322287 C139.237986,648.918963 137.734242,641.574086 136.178644,634.277915 C135.835116,632.670614 134.04942,630.144392 132.908648,630.134651 C126.170966,630.066462 124.4274,624.526957 121.264351,620.429152 C114.986866,612.301731 111.535384,601.014908 100.973523,597.517812 C92.4598668,594.699353 87.2453736,590.828843 84.0726024,582.039019 C82.0632887,576.47029 75.2510671,574.492823 68.6300543,574.564259 C66.0211873,574.593483 63.2405564,573.031641 60.8034533,571.706836 C57.3001176,569.797557 54.0366033,567.44343 49.5966681,564.589254" id="Fill-3" fill="#FFFFFF"></path>
                <path d="M613.721863,89.0269737 C609.64166,140.38916 605.697572,190.062868 601.678944,240.671734 C537.011451,233.148268 472.810637,225.680002 407.867674,218.127312 C406.989409,223.118062 406.124108,228.043871 405.067598,234.050954 C395.627064,227.952952 386.335609,231.823462 376.739515,233.528175 C369.872199,234.749074 362.615984,233.765212 353.807412,233.765212 C360.353886,224.803293 351.613371,221.893916 349.305901,216.396623 C344.917819,205.928063 338.053745,196.102422 339.103773,183.802513 C339.317668,181.279538 338.147729,178.639669 337.60651,176.003046 C332.67721,177.922066 328.097919,179.704708 321.418572,182.305613 C323.162137,173.14887 324.555694,165.547474 326.095087,157.975302 C326.377039,156.588802 327.252063,155.325691 327.861339,154.010627 C333.445286,141.989966 333.338339,142.110108 323.431126,133.151436 C321.266253,131.193452 320.047701,128.11198 318.631459,125.420158 C315.948053,120.31576 314.612832,113.808628 310.620131,110.230354 C301.62035,102.16138 301.118021,92.2610575 301.707852,81.7405439 C302.398149,69.40167 303.41901,57.0822786 304.329683,44.756393 C304.35885,44.3375207 304.754231,43.9413779 305.17878,43.1718218 C406.555138,65.9143146 508.887541,83.23095 613.721863,89.0269737" id="Fill-5" fill="#165376"></path>
                <path d="M429.281448,547.356717 C470.064035,551.555182 509.906781,555.695198 549.75925,559.737803 C566.582391,561.445763 583.408773,563.150476 600.264323,564.413587 C605.018618,564.767518 606.596902,566.335854 606.308468,570.979167 C604.749629,596.351788 603.511633,621.747139 601.85881,647.113266 C599.619398,681.425076 597.110997,715.717405 594.69982,750.016227 C594.498889,752.876897 594.165083,755.727827 593.824796,759.312594 C553.401942,756.503877 513.455489,753.730877 473.165508,750.931901 C472.355301,752.831438 471.52889,754.763446 470.478861,757.224727 C453.406176,756.013569 436.139042,754.786176 418.525138,753.532806 C417.870491,757.042891 417.309828,760.052927 416.551474,764.118261 C409.820273,763.468847 403.264077,762.838915 396.137495,762.150535 C407.198442,690.458431 418.168647,619.367035 429.281448,547.356717" id="Fill-7" fill="#165376"></path>
                <path d="M391.616215,761.615743 C369.374408,759.160956 348.072442,756.258074 326.673251,754.679997 C316.172966,753.903946 307.980152,749.617811 299.764651,743.812046 C275.477882,726.638282 251.019349,709.704801 226.447387,692.943415 C222.522743,690.267828 221.119465,687.436381 221.365768,682.83528 C221.735222,675.824851 220.912052,668.720257 221.65096,661.768276 C222.163011,656.93988 224.671413,652.355014 225.880242,647.559089 C227.792331,639.970681 234.073056,636.782057 239.388015,632.167967 C243.422847,628.667623 246.090049,622.832635 243.66915,616.435903 C240.914445,609.149473 238.477342,601.746149 235.638377,593.63821 C241.873731,585.968626 238.707441,575.133146 240.61953,565.304259 C241.329272,561.661044 242.991817,558.206159 244.631676,553.478422 C249.091056,556.868366 251.900854,559.004939 255.297243,561.589608 C268.292965,551.033377 263.000692,534.145355 269.735134,520.549864 C320.911058,529.177335 372.621718,537.892476 424.828226,546.695289 C413.741351,618.449088 402.754942,689.530742 391.616215,761.615743" id="Fill-9" fill="#165376"></path>
                <path d="M143.380737,286.477205 C195.956699,299.079092 248.432195,311.658249 301.737344,324.432231 C286.635083,401.719041 272.748132,478.746084 256.829182,556.82518 C252.356839,553.389777 249.718804,551.366851 247.129382,549.379643 C231.800263,554.13011 237.886539,568.219156 234.383204,578.408468 C233.793373,577.960372 233.184097,577.697359 232.869737,577.233028 C193.253848,518.954578 152.74025,461.267095 117.194843,400.313058 C114.991079,396.536714 114.167909,393.315618 115.363775,388.925577 C124.373278,355.81843 133.100829,322.630106 141.94505,289.4775 C142.184872,288.581308 142.752017,287.772787 143.380737,286.477205" id="Fill-11" fill="#165376"></path>
                <path d="M430.286105,543.203388 C436.025613,490.983974 441.619283,440.06339 447.287492,388.486897 C513.883278,395.373937 580.258688,402.235 647.46375,409.183735 C644.692842,459.633493 641.912211,510.323536 639.073245,562.085112 C569.025976,559.240676 500.446803,548.713669 430.286105,543.203388" id="Fill-13" fill="#165376"></path>
                <path d="M588.989156,399.156127 C521.25908,391.52226 454.167447,383.959829 386.242921,376.303233 C394.711206,324.928059 403.030413,274.471806 411.50518,223.05442 C474.915231,230.460991 537.716007,237.796127 601.673759,245.26764 C597.4542,296.464225 593.26705,347.235444 588.989156,399.156127" id="Fill-15" fill="#165376"></path>
                <path d="M253.088618,148.083097 C241.191536,198.75041 229.440292,248.807273 217.536729,299.490821 C188.161858,292.464157 159.321725,285.791424 130.601502,278.628383 C98.0733059,270.51395 65.6617794,261.935185 33.1886772,253.599951 C20.7795446,250.414574 16.9780527,240.523992 24.023614,229.555383 C24.6782614,228.535802 25.3069821,227.503233 26.0815401,226.259604 C20.0471174,221.17469 25.7412531,215.813774 25.8514413,210.517799 C26.0102419,202.78652 34.079905,203.595041 38.4258562,199.786226 C37.5508324,197.883442 36.6758087,195.983904 35.8072667,194.074626 C42.2241072,188.327308 46.3140329,181.875376 47.7529608,172.744609 C48.9099366,165.406227 57.2421068,158.402292 56.6360719,151.778265 C55.8193831,142.884535 57.2939601,136.250766 62.3917834,129.73714 C66.9905191,123.866434 69.677166,117.706738 69.1715968,109.793623 C68.67575,102.101309 80.0996707,94.7044792 87.5341314,97.0066533 C87.9943291,97.1495245 88.4772125,97.2274542 88.9374102,97.3768195 C101.02246,101.305777 101.515066,101.442154 98.1996982,113.621921 C95.8468567,122.26238 100.646524,127.879815 104.713764,133.945345 C105.491563,135.107797 108.187932,135.471469 109.960665,135.390292 C115.969161,135.10455 121.958212,134.276547 127.966709,134.020028 C130.753821,133.903133 133.60575,134.455136 136.370177,134.987655 C145.638947,136.776792 154.810492,139.251061 164.15056,140.39403 C171.863732,141.335681 179.725982,138.517223 187.578509,142.23512 C190.388308,143.56642 194.925468,140.621325 198.590845,140.861609 C208.462409,141.511023 218.311287,142.631263 228.121275,143.926845 C236.187697,144.991884 244.182821,146.579703 253.088618,148.083097" id="Fill-17" fill="#165376"></path>
                <path d="M269.869304,515.847455 C282.064542,452.048982 294.081534,389.198655 306.231401,325.650208 C333.360377,330.592251 360.029155,335.453118 387.462769,340.453609 C385.314099,353.682181 383.24321,366.420445 381.062132,379.837347 C401.748341,382.370063 421.760457,384.818355 442.838806,387.399777 C437.151152,439.167848 431.512111,490.478081 425.817975,542.298104 C373.728137,533.462821 322.205445,524.72495 269.869304,515.847455" id="Fill-19" fill="#165376"></path>
                <path d="M989.79474,131.151564 C975.269346,141.444783 960.494409,151.403553 946.309302,162.148114 C936.522,169.564427 929.768113,178.993924 933.051073,192.521227 C934.794638,199.713491 933.47238,205.951117 926.374966,209.600826 C916.020519,214.922777 916.017278,224.047049 918.318266,233.213534 C920.437768,241.649427 920.826667,249.728143 919.1544,258.232224 C917.867791,264.771827 922.473008,271.100371 928.944943,273.103814 C933.7835,274.600715 939.043365,275.25987 943.421724,277.594515 C947.62832,279.838242 951.079802,283.614587 954.596101,287.001283 C956.770697,289.095644 959.142984,291.446525 960.183289,294.161077 C961.881484,298.583589 962.562058,303.39575 963.981541,309.347633 C914.782522,308.477418 867.233085,307.636426 818.348427,306.769458 C818.348427,292.167375 818.549359,278.169247 818.28037,264.18086 C818.089161,254.267549 819.771151,244.133437 811.105175,235.681309 C808.937061,233.567465 810.797297,225.401079 813.020505,221.186379 C815.499739,216.474877 815.9729,212.493967 815.19186,207.467499 C812.048257,187.20577 806.830523,167.145358 808.830114,146.312144 C809.037527,144.126864 808.224079,141.327888 806.882376,139.597199 C797.710831,127.742139 799.587271,114.123918 799.908113,99.9861666 C812.190853,99.4796234 824.194882,98.966586 836.202152,98.4957605 C840.314763,98.3334069 844.443579,98.4145837 848.543227,98.1223473 C856.301771,97.570345 856.865675,97.0215898 858.868507,88.2999542 C862.274618,113.769988 882.523315,113.860906 899.842302,119.264034 L899.842302,110.470962 L918.558087,110.470962 C917.164531,112.357511 915.958943,113.990788 914.623721,115.799408 C915.045029,116.260492 915.39828,117.000824 915.942739,117.185907 C920.735924,118.83542 926.245333,119.387422 930.260719,122.137692 C947.813047,134.1616 967.475154,130.060548 986.566875,130.518385 C987.532642,130.541115 988.495168,130.576833 989.457694,130.658009 C989.584086,130.667751 989.684552,130.97947 989.79474,131.151564" id="Fill-21" fill="#165376"></path>
                <path d="M319.422869,188.957565 C324.692457,186.583955 329.197208,184.554535 335.257558,181.826995 C335.257558,187.908761 335.254317,192.60078 335.260799,197.289552 C335.264039,198.464992 334.891344,199.890457 335.409877,200.776907 C339.856293,208.339338 344.924949,215.573815 348.823666,223.399259 C350.622326,227.010003 350.223704,231.718257 351.011225,237.248021 C360.565188,239.494995 371.441409,240.832789 382.641712,236.952537 C389.849315,234.455539 397.251367,233.484664 404.147851,239.407324 C398.936598,271.212395 393.709142,303.121372 388.387701,335.605081 C332.33109,327.152953 277.399045,315.148527 222.272551,299.919759 C242.608751,212.891733 262.90606,126.01632 283.310317,38.6928106 C288.634998,39.8617565 293.972643,41.0339495 299.588998,42.2678369 C298.979723,54.1845914 298.127385,65.740921 297.887563,77.3069917 C297.725522,85.2266005 298.036642,93.2079037 298.937592,101.069065 C299.251952,103.816088 301.987212,106.277369 303.578458,108.894509 C307.172537,114.810674 310.636983,120.811263 314.350973,126.649499 C316.985766,130.792763 319.095546,136.299797 322.952132,138.384417 C328.730529,141.508101 327.868469,144.255124 325.505905,148.586718 C318.693683,161.097687 316.700573,174.384706 319.422869,188.957565" id="Fill-23" fill="#165376"></path>
                <path d="M864.085593,459.937744 C862.397121,461.885987 860.705408,463.837478 858.401179,466.49683 C861.483207,472.299348 864.954135,478.309678 867.890325,484.57328 C869.533425,488.076871 871.238101,491.986346 871.289955,495.736714 C871.597833,518.047346 871.442274,540.361225 871.413106,562.675105 C871.409865,564.811678 871.202452,566.951499 871.053374,569.795934 C795.39299,567.104111 720.095579,564.425276 643.67036,561.70423 C645.718564,524.077159 647.727878,487.164443 649.795526,449.209418 C721.333576,452.047359 792.424391,454.869065 863.515207,457.69077 C863.706416,458.440844 863.894384,459.18767 864.085593,459.937744" id="Fill-25" fill="#165376"></path>
                <path d="M593.563261,399.316857 C595.582298,374.424802 597.536517,350.347763 599.532868,325.725215 C605.457102,325.725215 611.180406,325.501167 616.884264,325.757686 C661.335468,327.770871 705.789914,329.696384 750.215192,332.216112 C754.70374,332.472631 759.218214,336.125587 763.298417,338.840139 C769.368489,342.879497 774.748264,346.564924 781.784103,339.944144 C783.203586,338.60635 788.677345,340.337039 791.496866,341.993046 C799.193834,346.516218 806.488939,351.734262 813.910437,356.721765 C821.532865,361.842398 822.829197,369.943843 824.144973,378.178417 C826.841343,395.04371 829.732162,411.879779 832.759096,428.689871 C833.076697,430.449784 834.583682,432.255156 836.006406,433.505279 C842.909371,439.567562 849.967895,445.444763 858.7473,452.893546 C788.223629,450.130288 719.641215,447.444959 650.096275,444.720666 C650.844906,431.303764 651.56437,418.367429 652.338928,404.440736 C632.926365,402.749012 613.5851,401.063781 593.563261,399.316857" id="Fill-27" fill="#165376"></path>
                <path d="M600.243257,319.788593 C603.137317,282.97329 606.005451,246.440482 608.915715,209.414119 C675.449925,212.618979 741.06374,215.77838 806.778021,218.941029 C806.233562,223.301846 805.202978,226.883367 805.52058,230.341499 C805.841422,233.819113 807.390538,237.21555 808.615571,240.569776 C810.031813,244.456521 812.83513,248.197148 813.026339,252.103376 C813.859232,269.043351 814.08609,286.022291 814.189796,302.988242 C814.206,305.481994 812.242058,307.943274 811.444814,310.501967 C810.773963,312.667764 809.90218,314.995915 810.090148,317.168206 C811.046192,328.205004 812.323079,339.215825 813.603206,351.337146 C806.894691,346.820468 801.158424,342.397956 794.903625,338.907354 C789.157636,335.702493 783.207475,330.474707 776.298028,337.936479 C775.231796,339.08919 769.835816,338.040385 767.988544,336.332425 C759.753599,328.7083 750.248248,327.230882 739.391473,326.844481 C695.403707,325.272898 651.445108,322.805123 607.476787,320.639326 C605.350803,320.53542 603.234542,320.149018 600.243257,319.788593" id="Fill-29" fill="#165376"></path>
                <path d="M618.022443,91.3054441 C677.3847,94.2018324 735.959435,97.0560088 795.188818,99.9459029" id="Fill-31" fill="#707070"></path>
                <path d="M705.584445,582.602386 L611.159664,582.602386 L611.159664,565.259774 C697.667101,568.253574 784.087036,571.247375 871.501905,574.273646 C872.982963,617.134998 874.444577,659.382652 875.974248,703.705186 C872.013956,701.477695 868.795813,700.50682 866.783258,698.386482 C859.368243,690.567533 850.59856,692.035209 841.358958,693.285332 C830.959139,694.694561 820.345426,694.55169 809.948848,695.980402 C799.257354,697.451325 789.576999,692.356669 779.342463,692.281987 C771.512621,692.226786 764.081401,693.019072 758.273836,686.268409 C757.165473,684.979322 754.880689,684.638379 753.078788,684.040918 C744.273457,681.108812 735.425995,678.306588 726.636868,675.33227 C719.834369,673.026849 713.093445,670.536345 705.584445,667.867252 L705.584445,582.602386 Z" id="Fill-33" fill="#165376"></path>
                <path d="M876.43639,590.877224 C876.43639,573.135223 876.433149,556.435531 876.43639,539.739086 C876.439631,533.189742 876.478521,526.63715 876.449354,520.084559 C876.374815,501.712625 880.062877,482.450994 863.340202,468.910703 C871.604315,458.198612 871.578388,458.033012 862.491105,450.253027 C856.297882,444.947311 850.130585,439.612372 843.272992,433.705948 C880.22816,428.887293 917.03425,434.215738 953.325048,425.701915 C961.871113,434.167032 963.507731,446.483176 966.988381,457.935599 C971.298683,472.109069 982.181386,481.35673 992.111284,491.068723 C994.797931,493.695604 1000.79022,492.932542 1006.01768,493.857958 C1006.01768,496.049732 1006.81816,498.942873 1005.89129,501.079446 C999.046658,516.827746 1004.75376,521.045692 1016.44991,532.751387 C1021.35976,537.667454 1027.5141,541.330152 1033.76241,546.061136 C1032.14848,549.21729 1030.58964,552.259796 1028.77802,555.802352 C1031.20864,557.935678 1033.90177,560.335264 1036.63055,562.686145 C1039.19404,564.897401 1041.79643,567.059951 1045.38402,570.086222 C1041.24225,576.557637 1036.86713,583.077757 1032.83878,589.805691 C1029.81184,594.864629 1027.2289,600.196321 1025.20987,606.135216 C1021.32087,607.378845 1016.28462,611.525356 1011.8058,606.989196 C1014.11003,599.270906 1016.15175,592.416337 1018.48839,584.59414 C970.825522,586.70149 924.241853,588.763381 876.43639,590.877224" id="Fill-35" fill="#165376"></path>
                <g id="Group-39" transform="translate(77.435254, 0.641347)">
                    <mask id="mask-2" fill="white">
                        <use xlink:href="#path-1"></use>
                    </mask>
                    <g id="Clip-38"></g>
                    <path d="M8.20202045,5.01055692 C17.6684807,8.80638418 20.1250287,23.9182576 31.5586719,21.7070015 C36.4944538,23.9864461 39.5246286,25.9087128 42.8302737,26.8081518 C50.3652001,28.8603013 51.2337422,30.964404 46.3627768,36.9844757 C44.8363466,38.8677775 43.4881619,40.9329153 41.7672819,42.6116516 C33.8855868,50.28773 35.0587668,59.4996735 37.1037296,68.8999471 C51.1656848,69.253878 62.9072067,50.5767194 60.859003,31.370288 C53.505563,29.6168691 52.6694292,27.8342266 56.5065702,22.090156 C62.4599723,13.1801903 62.4599723,13.1801903 62.8683167,1.84466165 C65.7623766,1.53294273 69.1490425,0.230866825 71.9653225,1.00691705 C114.07989,12.6184468 156.116677,24.4994835 198.166428,36.3383083 C198.834038,36.5266385 199.42711,36.9779815 200.642421,37.6144077 C192.97462,72.3710672 185.293857,107.17968 177.395957,142.959167 C162.261288,140.611534 148.328966,138.017123 134.283215,136.458529 C127.22469,135.679231 119.942549,137.205355 112.79004,136.935848 C102.153641,136.536458 91.465388,136.023421 80.9488993,134.51678 C72.3995935,133.292633 64.1646481,129.750078 55.6153424,128.724003 C49.5809196,128.003153 43.2613039,130.09102 37.0453947,130.341045 C29.3613902,130.652764 23.8228141,123.996266 24.9246959,116.359153 C25.0608107,115.404513 25.4335059,114.492086 25.6441598,113.547188 C29.0275848,98.224255 28.8039677,97.8313593 14.0387527,92.9477629 C3.04262137,89.3077951 0.0707815757,83.264994 3.83338354,72.410032 C5.52509605,67.5231886 9.68631993,62.6980394 3.45744743,57.6488424 C2.30695329,56.7169327 3.46392909,53.0444942 3.37966754,50.6416608 C3.16253203,44.4559885 4.42645517,37.6338901 2.24213672,32.2210209 C-2.24317002,21.1160344 0.842098775,12.7483297 8.20202045,5.01055692" id="Fill-37" fill="#165376" mask="url(#mask-2)"></path>
                </g>
                <path d="M1168.40069,637.089554 C1191.66984,634.436696 1214.14175,631.874757 1236.81134,629.290087 C1233.36958,639.985943 1235.49232,643.483039 1246.00233,646.356698 C1248.63713,647.074301 1251.38211,648.733555 1253.22938,650.743492 C1257.63691,655.545912 1261.96017,660.539909 1265.54453,665.969013 C1269.98122,672.6937 1275.34479,676.700587 1283.74178,676.655128 C1285.78026,676.642139 1288.37617,678.918337 1289.78917,680.827615 C1298.57829,692.685922 1307.30584,704.59943 1315.59912,716.801927 C1318.4867,721.049097 1321.37752,721.922559 1326.34247,721.399781 C1331.36252,720.870508 1336.59969,722.370655 1341.73965,722.981105 C1341.72668,723.766896 1341.71696,724.552688 1341.704,725.341726 C1334.195,730.858502 1326.68924,736.375277 1318.34087,742.508996 C1321.86365,743.333753 1324.21973,743.885755 1326.31006,744.372816 C1316.79175,755.360908 1319.73442,768.005006 1319.45247,781.19786 C1313.34351,780.561434 1306.43406,779.840584 1298.682,779.03531 C1299.57971,788.705091 1300.4126,797.705975 1301.1742,805.943796 C1297.40187,805.417771 1294.03789,804.557297 1290.67067,804.544308 C1262.62778,804.433908 1234.58489,804.479367 1208.05223,804.479367 C1204.39657,797.225408 1200.69555,791.130654 1198.28113,784.561827 C1197.07878,781.295272 1198.4691,777.145514 1198.24872,773.42437 C1198.04779,770.00845 1198.29085,765.907398 1196.52784,763.371434 C1192.54162,757.640352 1191.92911,752.048894 1194.28843,745.795033 C1196.68016,739.456749 1196.31395,733.423689 1194.28843,726.799662 C1185.68079,698.62157 1177.6727,670.261643 1169.46368,641.963409 C1169.06506,640.593145 1168.84793,639.170927 1168.40069,637.089554" id="Fill-40" fill="#165376"></path>
                <path d="M1048.94537,566.85019 C1045.40963,564.041473 1043.26096,562.141935 1040.91784,560.515152 C1036.52976,557.466152 1034.35516,554.225574 1037.11635,548.526962 C1037.93304,546.841732 1036.13762,542.821857 1034.35516,541.117144 C1026.88181,533.986573 1018.82511,527.472947 1011.25129,520.443036 C1006.54885,516.082218 1006.84377,510.614149 1009.18365,505.071397 C1009.93228,503.295248 1011.06008,501.541829 1011.2675,499.694245 C1012.23326,491.001833 1010.12349,489.267897 1001.36353,488.267799 C997.493977,487.826197 993.254973,485.744824 990.276651,483.150413 C976.240623,470.918692 968.686251,455.037263 966.048217,436.204245 C966.080625,436.162033 966.427394,435.340524 966.984816,435.152194 C976.840176,431.846674 979.967576,425.537613 977.115647,415.348301 C976.383219,412.740902 979.118479,409.159382 980.518517,405.318095 C979.209222,403.61663 977.170741,400.960525 974.668821,397.710205 C977.180463,396.112646 979.16385,394.255321 981.503728,393.466282 C991.511407,390.099068 997.241192,382.526896 1001.10426,373.399377 C1002.0603,371.136168 1001.71029,367.415023 1000.43989,365.268708 C996.213849,358.105667 991.294271,351.355004 985.953386,343.425654 C1003.63211,342.785981 1019.72282,342.162543 1035.81677,341.639765 C1044.27858,341.363764 1052.75983,341.519623 1061.19894,340.974115 C1065.21433,340.714349 1066.39075,341.86706 1067.32411,345.805758 C1068.90887,352.488233 1070.81124,359.385014 1074.1655,365.291438 C1078.72859,373.327941 1081.20134,381.575504 1081.64533,390.680294 C1082.85092,415.345054 1084.19262,440.006566 1085.41441,464.671326 C1085.48247,466.044837 1085.37228,467.752797 1084.63013,468.79186 C1079.30221,476.240644 1080.67956,483.621238 1082.60786,492.050638 C1083.81669,497.32713 1080.13511,503.723862 1078.51793,510.140076 C1083.73567,511.205116 1091.54282,510.740784 1091.3192,520.66059 C1084.00141,523.819991 1079.2374,528.615916 1074.98219,536.606961 C1068.92832,547.97496 1058.00025,556.738807 1048.94537,566.85019" id="Fill-42" fill="#165376"></path>
                <path d="M967.852062,396.839341 C970.85631,400.570226 972.972571,403.197108 973.863799,404.307606 C973.261005,409.30485 972.188291,412.795453 972.554504,416.126949 C973.698517,426.585768 973.909171,426.563038 963.399164,431.4856 C954.911434,419.955247 955.076716,420.715062 940.635584,423.825757 C931.058935,425.890895 920.941069,425.614893 911.05006,426.007789 C888.811494,426.890993 866.550243,427.303371 844.327881,428.452834 C839.006441,428.728836 836.715175,426.988405 835.901727,422.250927 C833.532681,408.454117 830.74881,394.709261 829.014966,380.831275 C827.718635,370.469868 825.03847,360.972183 820.161023,351.623862 C817.189183,345.931745 817.150293,338.66155 816.025725,332.060253 C815.500711,328.96904 815.659512,325.76418 815.270612,322.640497 C813.984003,312.240125 814.748839,311.249768 825.057915,311.431604 C869.820239,312.217395 914.585804,312.980457 959.344887,314.035756 C961.811158,314.094203 965.165415,316.107388 966.507118,318.227726 C976.456462,333.950049 986.114131,349.863949 995.53522,365.910979 C996.7084,367.911176 996.857478,371.453731 995.917638,373.590305 C992.949039,380.331226 988.505863,385.75059 981.168627,388.679449 C976.589336,390.50755 972.61608,393.852034 967.852062,396.839341" id="Fill-44" fill="#165376"></path>
                <path d="M937.581103,182.319251 C948.752239,180.338537 959.424287,178.442247 968.326844,176.86417 C973.236699,179.254015 976.752998,181.4328 980.570694,182.744617 C1002.32962,190.212883 1024.23762,197.262277 1045.88311,205.039014 C1049.14663,206.211207 1051.99531,210.07847 1053.84259,213.371001 C1059.59506,223.625255 1060.86546,234.675041 1058.908,246.341771 C1058.06215,251.397462 1058.76865,256.712919 1058.76865,263.775301 C1063.72387,255.868681 1067.7425,249.455713 1071.76113,243.042746 C1072.15651,243.231076 1072.55189,243.416159 1072.94727,243.604489 C1072.04956,246.192406 1070.79536,248.712134 1070.30276,251.371486 C1065.52901,277.283121 1062.85857,303.33438 1066.77997,329.603193 C1067.5675,334.856956 1066.21607,336.668822 1061.0988,336.785717 C1036.65323,337.337719 1012.2109,338.100781 987.765333,338.584595 C986.015286,338.620312 983.477717,337.529296 982.58973,336.139549 C978.165999,329.210298 974.102,322.047257 970.07365,314.874474 C969.020381,313.004161 967.597657,310.627304 967.954148,308.795955 C970.200042,297.24612 962.464185,289.823313 956.789494,281.835516 C954.187108,278.169572 949.526797,275.847915 945.527615,273.360658 C943.55395,272.139759 940.958046,271.922205 938.640854,271.266296 C926.542841,267.850377 921.590855,267.512681 924.420098,250.985084 C925.570592,244.253904 923.460813,236.857074 922.284392,229.856386 C921.205196,223.427183 921.535761,218.105232 927.813246,214.218487 C936.04495,209.117337 941.304815,202.516039 937.723699,191.797454 C936.783859,188.988737 937.581103,185.595547 937.581103,182.319251" id="Fill-46" fill="#165376"></path>
                <path d="M876.508985,595.374095 C922.327819,593.367404 966.911898,591.415914 1012.81499,589.409223 C1010.39409,595.841673 1008.31672,601.371437 1006.1713,607.079789 C1010.59503,617.402232 1019.85407,612.067292 1027.83623,612.382258 C1025.67136,631.046428 1014.27985,643.326855 1001.81562,656.071613 C1009.28249,664.845202 1004.14578,671.706265 997.70301,679.168037 C988.680543,689.613867 984.713769,702.063142 986.703638,716.09374 C987.069851,718.675163 986.758732,721.35075 986.758732,725.120601 C955.682427,726.309029 924.897796,727.484469 893.455277,728.685886 C892.677479,723.812031 891.876994,719.126506 891.19642,714.424745 C890.545013,709.930797 890.613071,705.138119 884.001781,704.936801 C883.016569,704.907577 881.354024,702.244978 881.282725,700.738336 C879.597495,665.919983 878.090509,631.095134 876.508985,595.374095" id="Fill-48" fill="#165376"></path>
                <path d="M1200.32156,795.890537 C1170.55779,795.06578 1142.56999,794.28973 1115.20119,793.533162 C1110.93626,800.634509 1121.19025,810.0705 1109.05658,815.70417 C1109.65938,807.206583 1106.67782,802.514564 1098.68269,801.326135 C1097.7785,805.638247 1096.8581,810.018547 1095.89234,814.619648 C1091.52694,815.989913 1089.19354,815.197627 1088.98613,809.940617 C1088.25695,791.581672 1086.56199,773.235715 1086.48745,754.880016 C1086.34486,719.954509 1087.06756,685.022508 1087.42729,650.097 C1087.44674,648.444241 1087.43053,646.794728 1087.43053,644.528272 C1112.91965,642.092968 1137.85135,639.709617 1163.34046,637.274313 C1168.56468,655.061774 1173.74352,672.615445 1178.86403,690.185352 C1182.04328,701.08902 1184.53872,712.236219 1188.43744,722.867133 C1191.76901,731.958934 1191.45465,740.459769 1189.13422,749.593783 C1188.20086,753.259727 1189.86664,757.666004 1190.67037,761.672891 C1191.4903,765.751214 1194.26445,770.118525 1193.42831,773.713034 C1191.46761,782.11321 1194.01814,788.652813 1200.32156,795.890537" id="Fill-50" fill="#165376"></path>
                <g id="Group-54" transform="translate(1206.646882, 524.478775)">
                    <mask id="mask-4" fill="white">
                        <use xlink:href="#path-3"></use>
                    </mask>
                    <g id="Clip-53"></g>
                    <path d="M256.824769,0.654331699 C257.628494,10.5156896 247.254602,17.7664015 233.380615,16.9091745 C233.892666,20.2569058 234.382031,23.4357894 235.176034,28.6213635 C241.408147,25.9587644 247.484701,24.6924063 251.811207,21.2342745 C259.955409,14.7174009 261.433227,14.3699642 267.697748,22.9357403 C268.932504,24.6242178 270.16726,26.3126953 272.306207,29.2350601 C268.893614,28.1278085 266.916709,27.4848883 264.252748,26.61792 C261.190165,31.2027858 258.367403,36.258477 254.676099,40.5738358 C253.123742,42.3889491 249.212062,44.0676854 247.293492,43.3500824 C239.447446,40.4049881 232.839396,43.0773284 224.789178,46.5224719 C231.578714,47.9771602 237.091363,49.1590944 244.172574,50.67223 C240.490993,56.1825113 237.383038,60.8355656 233.834331,66.1477755 C239.982183,64.8229701 245.52724,63.6312946 251.075539,62.4363721 C251.5487,63.4169879 252.01862,64.3976036 252.48854,65.3782194 C248.084254,68.0018537 243.919789,71.2229492 239.217347,73.0965097 C233.746828,75.2785422 226.331813,74.6161395 222.378002,78.1359656 C214.256485,85.3769363 208.568831,95.2188118 206.893323,106.206904 C206.079875,111.532102 204.939103,114.503173 199.445899,115.269482 C197.669925,115.516259 196.059233,116.957959 193.920286,118.094435 C181.951906,109.876095 169.964081,101.303825 157.574394,93.3582395 C154.207173,91.1989366 149.66029,90.1111674 145.606014,89.9780375 C137.896083,89.7182717 130.150502,90.5397809 122.414645,90.8385116 C116.163086,91.0787949 109.966622,91.6178089 104.949819,86.2341634 C103.728027,84.9255933 100.441827,85.136653 98.1570428,85.3087478 C82.9932059,86.441976 67.8390915,87.7018399 52.6946996,89.0818456 C50.6853859,89.2669287 48.0732781,89.7962014 46.9130615,91.1664659 C41.2999464,97.7807517 34.0275271,99.9335605 25.7893409,100.59921 C17.4150399,101.281095 9.08935127,102.527971 0.371522425,103.573528 C2.38083614,92.030187 6.54530085,83.3475163 18.0664464,78.3827431 C26.7615894,74.638869 36.8502888,71.0638426 39.8286102,59.819232 C40.0943582,58.8158867 41.8346831,58.0658131 43.0240672,57.474846 C47.1464011,55.4356847 51.5766138,53.9095608 55.4396814,51.4775039 C67.4955637,43.8858493 79.172269,35.6772511 91.3869519,28.3615977 C94.8902876,26.2607421 99.7320855,25.533398 103.93544,25.6113277 C150.224195,26.4880371 193.939731,12.3665207 238.436307,2.80389341 C241.738712,2.09278463 245.011948,1.15762787 248.350002,0.722520212 C250.949146,0.381577644 253.626071,0.654331699 256.824769,0.654331699" id="Fill-52" fill="#165376" mask="url(#mask-4)"></path>
                </g>
                <path d="M1047.1937,821.868087 C1046.62332,821.150484 1046.39646,820.984884 1046.33812,820.773824 C1042.09912,804.954089 1042.09912,804.954089 1024.96162,804.954089 L982.675288,804.954089 C978.38119,795.323273 981.612296,788.40701 986.275848,780.269847 C990.738469,772.476874 995.262666,765.833364 1003.28696,761.797254 C1000.55818,755.127768 997.861811,748.997296 995.518692,742.733694 C990.320403,728.81999 989.656033,714.217907 992.005633,699.921048 C993.107515,693.23208 998.279877,687.147067 1001.91933,680.97763 C1003.62724,678.084489 1005.88286,675.441372 1008.24218,673.035292 C1011.14921,670.073962 1011.58996,667.274986 1009.83991,663.401229 C1007.04632,657.225298 1012.97379,647.445117 1019.95778,647.328222 C1040.23888,646.984032 1060.52971,647.204833 1081.47843,647.204833 C1083.95118,702.103081 1078.67511,758.196251 1084.48268,814.688811 C1070.60545,810.925454 1059.27227,817.731317 1047.1937,821.868087" id="Fill-55" fill="#165376"></path>
                <path d="M976.791888,787.888777 C974.37747,793.25294 977.021987,801.013442 977.939141,807.61474 C978.049329,808.420014 981.640167,809.192817 983.623554,809.209052" id="Fill-57" fill="#707070"></path>
                <path d="M1179.09316,268.529015 C1176.37086,273.078163 1176.59772,279.396965 1175.40834,285.241695 C1179.67002,286.157369 1182.44093,286.75483 1185.70121,287.456198" id="Fill-59" fill="#707070"></path>
                <path d="M1160.44122,363.799408 C1173.96519,363.500678 1186.70813,358.45148 1200.16081,362.809051 C1204.4776,364.205292 1209.75042,363.124017 1214.5112,362.546038 C1220.01413,361.873894 1225.15408,361.364104 1228.54075,368.286862 C1245.59723,357.490347 1262.25185,346.950351 1279.85279,335.809647 C1280.97735,345.002108 1282.68203,353.908827 1283.04176,362.870746 C1283.80984,381.937553 1284.58115,401.05956 1283.94595,420.110132 C1283.61863,429.867584 1278.82868,438.287242 1268.88582,442.89159 C1255.69565,448.996085 1251.96546,462.425975 1246.23891,474.173882 C1245.32824,476.044196 1245.21805,478.304158 1244.62174,480.88558 C1236.04327,475.388287 1227.50368,475.164239 1218.26408,477.209895 C1206.51608,479.807552 1195.51022,477.050788 1185.60301,470.037112 C1183.15618,468.303176 1180.39176,467.020582 1178.36624,465.867872 C1172.40311,431.906745 1166.48212,398.195643 1160.44122,363.799408" id="Fill-61" fill="#165376"></path>
                <path d="M1284.77398,554.747378 C1274.73714,561.985102 1265.63365,571.310693 1254.58567,575.603322 C1246.49332,578.746488 1242.62701,583.0586 1238.14818,589.452085 C1235.10505,593.799914 1228.87617,596.329383 1223.60983,598.605581 C1213.22621,603.099528 1205.67832,609.645626 1203.88614,621.37405 C1202.94306,627.553228 1198.97629,629.287165 1193.26919,629.809943 C1153.582,633.456405 1113.95315,637.833458 1074.22059,640.879212 C1056.26964,642.255971 1038.12424,641.113001 1019.50244,641.113001 C1028.16842,635.985874 1029.33836,626.582354 1031.4449,617.630176 C1031.82731,616.003393 1032.62132,614.133079 1032.17408,612.704368 C1029.00779,602.612468 1033.4056,595.280579 1039.80948,588.039608 C1042.46371,585.036066 1044.43414,583.207965 1048.0509,585.341291 C1056.62613,590.390488 1064.00226,588.036361 1072.19508,583.43526 C1077.54244,580.431718 1084.51995,579.977128 1090.86873,579.184843 C1126.54701,574.739601 1162.27066,570.677514 1197.94246,566.216037 C1226.85714,562.595551 1255.72644,558.598406 1284.77398,554.747378" id="Fill-63" fill="#165376"></path>
                <path d="M1045.69352,579.213742 C1048.19544,568.787393 1057.91145,564.725306 1064.24727,557.71163 C1067.3293,554.305452 1069.53954,550.119976 1072.30073,546.405325 C1073.39613,544.934402 1075.01654,543.869362 1076.23185,542.476368 C1077.70319,540.784644 1080.06251,539.011742 1080.18566,537.147923 C1080.6329,530.504413 1085.31913,528.208733 1090.30353,526.286467 C1092.95453,525.263639 1095.98146,524.662931 1098.8107,524.757096 C1110.27027,525.146744 1119.15663,518.876648 1128.39623,513.255966 C1130.79768,515.486705 1132.88802,517.425207 1135.14039,519.516321 C1142.01743,516.483556 1148.19445,513.600156 1147.52684,504.144682 C1147.20924,499.653982 1147.74722,494.283324 1155.02936,494.322289 C1156.64329,494.33203 1158.42899,491.347971 1159.86791,489.529611 C1164.0259,484.26286 1167.7172,478.583731 1172.23816,473.66117 C1175.37204,470.251744 1179.09575,470.75504 1183.18243,473.687146 C1194.40866,481.726897 1206.93771,484.779144 1220.62373,481.428166 C1234.51068,478.031729 1243.88639,482.4997 1247.16287,495.926343 C1248.07355,499.663723 1249.20135,503.475785 1250.99353,506.846246 C1256.43488,517.064782 1257.74418,526.172819 1245.72394,532.699434 C1244.34659,542.076978 1234.41669,543.005641 1229.92166,548.652299 C1221.3043,559.481285 1210.14289,560.400206 1198.1583,561.77047 C1160.77211,566.053358 1123.43776,570.768107 1086.10666,575.512079 C1080.48382,576.226435 1074.06698,576.606343 1069.64325,579.574167 C1061.06801,585.321484 1053.67244,583.886278 1045.69352,579.213742" id="Fill-65" fill="#165376"></path>
                <path d="M1461.08478,519.336109 C1424.82963,527.372612 1389.38793,535.678623 1353.72261,542.874134 C1342.45425,545.147085 1330.51504,543.851503 1319.0101,545.257485 C1296.27568,548.036979 1273.62877,551.556805 1250.94946,554.781148 C1243.09045,555.898141 1235.23792,557.047604 1227.38539,558.180832 C1227.0127,557.615842 1226.63676,557.054098 1226.26407,556.489108 C1231.24846,553.524531 1236.0222,550.082634 1241.28855,547.754484 C1244.88587,546.163418 1247.17713,545.130849 1247.60816,540.435583 C1248.37624,532.084114 1259.15848,525.307474 1267.25731,527.19727 C1291.74177,532.912117 1315.2637,518.264575 1321.77128,493.710216 C1323.41762,487.492073 1326.17881,481.472001 1329.12148,475.714943 C1332.52111,469.061692 1337.27865,464.025483 1345.61406,467.892746 C1349.3637,459.658171 1352.39711,451.540491 1356.62964,444.107943 C1360.91401,436.58123 1366.38777,429.736402 1371.31383,422.631808 C1383.97575,429.554566 1387.97169,433.259475 1387.30408,437.240386 C1391.75374,436.746831 1396.22932,436.250029 1401.01278,435.720756 C1401.44057,433.876419 1401.9267,431.769069 1402.53273,429.158423 C1410.63156,436.230546 1409.47134,444.757357 1407.81852,452.901014 C1406.5546,459.119157 1408.07455,463.083832 1412.78023,467.363473 C1421.47861,475.276588 1429.35707,484.098883 1438.95316,493.956994 L1417.61231,493.956994 C1417.35952,495.064245 1417.1035,496.171497 1416.85071,497.278748 C1426.69635,501.2142 1436.53226,505.172381 1446.39086,509.078608 C1451.95861,511.286617 1459.04954,511.231417 1461.08478,519.336109" id="Fill-67" fill="#165376"></path>
                <path d="M1144.72579,491.542146 C1143.9804,497.055674 1143.38409,501.825623 1142.68083,506.582584 C1141.71182,513.128681 1137.67375,514.716499 1132.42685,510.683636" id="Fill-69" fill="#707070"></path>
                <path d="M1396.45974,646.404105 C1384.3358,651.502008 1382.21306,662.519324 1379.75327,673.413251 C1379.44215,674.790009 1378.22684,676.806441 1377.13468,677.023995 C1371.22017,678.199435 1369.03909,682.384911 1367.48998,687.508791 C1365.09176,695.444635 1357.41748,694.548443 1351.07518,696.801911 C1350.76082,698.928743 1350.42053,701.204941 1349.97006,704.2442 C1345.2028,705.010509 1340.31239,705.799548 1334.81918,706.682751 C1337.17202,710.455849 1339.48922,714.170499 1341.32353,717.1091 C1335.58726,717.1091 1329.85423,717.433807 1324.19251,716.930511 C1322.25773,716.761663 1320.01832,714.888102 1318.7544,713.173648 C1309.9912,701.292612 1301.33494,689.327151 1292.90231,677.212325 C1290.31288,673.494428 1287.44151,671.27343 1282.79092,671.763738 C1277.36253,672.335223 1273.75873,669.705094 1270.76097,665.334535 C1267.34189,660.347033 1263.42049,655.706967 1259.70002,650.927277 C1256.08001,646.277469 1252.11648,642.468654 1245.75473,641.491285 C1243.44726,641.137354 1239.6879,638.049389 1239.83374,636.516771 C1240.11245,633.578171 1242.56576,630.756465 1244.42599,628.103607 C1245.0061,627.282098 1247.06079,627.499652 1247.63765,626.678142 C1255.4675,615.46925 1267.56551,617.992225 1278.52923,616.868738 C1286.93918,616.005016 1295.34265,615.027648 1303.77205,614.371739 C1306.02118,614.196397 1309.25229,614.183409 1310.48056,615.521203 C1314.89781,620.330116 1320.47203,620.81393 1325.84857,619.670961 C1354.72111,613.5275 1375.80594,628.188031 1396.45974,646.404105" id="Fill-71" fill="#165376"></path>
                <path d="M1290.70891,408.912604 C1291.5094,413.377328 1292.30988,417.845299 1293.30158,423.381557 C1304.84217,421.303431 1316.24988,419.244787 1328.49373,417.040025 L1328.49373,436.798459 C1341.97558,430.404974 1354.47222,424.482315 1367.61053,418.25443 C1358.83113,432.979902 1350.53461,446.893606 1341.70983,461.693761 C1326.00478,461.895079 1322.09634,476.204926 1318.87495,488.605494 C1314.02343,507.276159 1302.80693,518.95263 1285.24164,523.703096 C1278.25117,525.592892 1269.82825,522.465962 1262.14101,521.124921 C1260.94838,520.917108 1259.95345,518.140862 1259.31177,516.387443 C1255.98992,507.308629 1251.59211,498.385675 1250.00411,488.991896 C1248.93463,482.650364 1250.51292,474.954803 1253.35836,469.048379 C1258.52424,458.326547 1265.22304,449.127592 1276.82844,442.776319 C1283.1351,439.327928 1285.62081,428.209953 1288.89081,420.170203 C1290.23575,416.864684 1289.11443,412.549325 1289.11443,408.691803 C1289.64592,408.766486 1290.17742,408.837921 1290.70891,408.912604" id="Fill-73" fill="#165376"></path>
                <g id="Group-5" transform="translate(66.000000, 418.000000)" fill="#2AC3EC">
                    <path d="M1.16669828,25.7297991 C0.521773399,25.7297991 0,25.2070205 0,24.5608532 L0,1.16894595 C0,0.522778604 0.521773399,0 1.16669828,0 C1.81162317,0 2.33339657,0.522778604 2.33339657,1.16894595 L2.33339657,24.5608532 C2.33339657,25.2070205 1.81162317,25.7297991 1.16669828,25.7297991" id="Fill-95"></path>
                    <path d="M2,5.6986115 L2,0 L6.75429551,2.85092928 L10.4909708,5.04919708 C10.9868176,5.34143357 10.9868176,6.0590365 10.4942117,6.35127298 L6.79642628,8.54629371 L3.13753083,10.7185849 C2.6352024,11.0173156 2,10.6568906 2,10.0691705 L2,5.6986115 Z" id="Fill-97"></path>
                </g>
                <g id="Group-5-Copy" transform="translate(78.000000, 408.000000)" fill="#2AC3EC">
                    <path d="M1.16669828,25.7297991 C0.521773399,25.7297991 0,25.2070205 0,24.5608532 L0,1.16894595 C0,0.522778604 0.521773399,0 1.16669828,0 C1.81162317,0 2.33339657,0.522778604 2.33339657,1.16894595 L2.33339657,24.5608532 C2.33339657,25.2070205 1.81162317,25.7297991 1.16669828,25.7297991" id="Fill-95"></path>
                    <path d="M2,5.6986115 L2,0 L6.75429551,2.85092928 L10.4909708,5.04919708 C10.9868176,5.34143357 10.9868176,6.0590365 10.4942117,6.35127298 L6.79642628,8.54629371 L3.13753083,10.7185849 C2.6352024,11.0173156 2,10.6568906 2,10.0691705 L2,5.6986115 Z" id="Fill-97"></path>
                </g>
                <g id="Group-5-Copy-2" transform="translate(68.000000, 472.000000)" fill="#2AC3EC">
                    <path d="M1.16669828,25.7297991 C0.521773399,25.7297991 0,25.2070205 0,24.5608532 L0,1.16894595 C0,0.522778604 0.521773399,0 1.16669828,0 C1.81162317,0 2.33339657,0.522778604 2.33339657,1.16894595 L2.33339657,24.5608532 C2.33339657,25.2070205 1.81162317,25.7297991 1.16669828,25.7297991" id="Fill-95"></path>
                    <path d="M2,5.6986115 L2,0 L6.75429551,2.85092928 L10.4909708,5.04919708 C10.9868176,5.34143357 10.9868176,6.0590365 10.4942117,6.35127298 L6.79642628,8.54629371 L3.13753083,10.7185849 C2.6352024,11.0173156 2,10.6568906 2,10.0691705 L2,5.6986115 Z" id="Fill-97"></path>
                </g>
                <path d="M49.5299071,417.939464 C48.8849822,417.939464 48.3632088,417.416686 48.3632088,416.770518 L48.3632088,393.378611 C48.3632088,392.732444 48.8849822,392.209665 49.5299071,392.209665 C50.174832,392.209665 50.6966054,392.732444 50.6966054,393.378611 L50.6966054,416.770518 C50.6966054,417.416686 50.174832,417.939464 49.5299071,417.939464" id="Fill-99" fill="#2AC3EC"></path>
                <path d="M49.8215816,398.023223 L49.8215816,392.324612 L54.5758772,395.175541 L58.3125525,397.373809 C58.8083993,397.666045 58.8083993,398.383648 58.3157933,398.675885 L54.6180079,400.870905 L50.9591125,403.043197 C50.456784,403.341927 49.8215816,402.981502 49.8215816,402.393782 L49.8215816,398.023223 Z" id="Fill-101" fill="#2AC3EC"></path>
                <path d="M43.3413382,451.72009 C42.6964133,451.72009 42.1746399,451.197311 42.1746399,450.551144 L42.1746399,427.159236 C42.1746399,426.513069 42.6964133,425.99029 43.3413382,425.99029 C43.9862631,425.99029 44.5080365,426.513069 44.5080365,427.159236 L44.5080365,450.551144 C44.5080365,451.197311 43.9862631,451.72009 43.3413382,451.72009" id="Fill-103" fill="#2AC3EC"></path>
                <path d="M44.1746399,431.688902 L44.1746399,425.99029 L48.9289354,428.84122 L52.6656108,431.039488 C53.1614575,431.331724 53.1614575,432.049327 52.6688516,432.341563 L48.9710662,434.536584 L45.3121707,436.708875 C44.8098423,437.007606 44.1746399,436.647181 44.1746399,436.059461 L44.1746399,431.688902 Z" id="Fill-105" fill="#2AC3EC"></path>
                <path d="M56.8217714,471.922038 C56.1768465,471.922038 55.6550731,471.399259 55.6550731,470.753092 L55.6550731,447.361185 C55.6550731,446.715017 56.1768465,446.192239 56.8217714,446.192239 C57.4666962,446.192239 57.9884696,446.715017 57.9884696,447.361185 L57.9884696,470.753092 C57.9884696,471.399259 57.4666962,471.922038 56.8217714,471.922038" id="Fill-107" fill="#2AC3EC"></path>
                <path d="M57.1134459,452.005796 L57.1134459,446.307185 L61.8677414,449.158114 L65.6044168,451.356382 C66.1002635,451.648619 66.1002635,452.366221 65.6076576,452.658458 L61.9098722,454.853479 L58.2509768,457.02577 C57.7486483,457.3245 57.1134459,456.964075 57.1134459,456.376355 L57.1134459,452.005796 Z" id="Fill-109" fill="#2AC3EC"></path>
                <path d="M79.1024678,462.180821 C78.4575429,462.180821 77.9357695,461.658043 77.9357695,461.011876 L77.9357695,437.619968 C77.9357695,436.973801 78.4575429,436.451022 79.1024678,436.451022 C79.7473926,436.451022 80.269166,436.973801 80.269166,437.619968 L80.269166,461.011876 C80.269166,461.658043 79.7473926,462.180821 79.1024678,462.180821" id="Fill-111" fill="#2AC3EC"></path>
                <path d="M79.3941423,442.26458 L79.3941423,436.565969 L84.1484378,439.416898 L87.8851132,441.615166 C88.3809599,441.907402 88.3809599,442.625005 87.888354,442.917242 L84.1905686,445.112262 L80.5316731,447.284554 C80.0293447,447.583284 79.3941423,447.222859 79.3941423,446.635139 L79.3941423,442.26458 Z" id="Fill-113" fill="#2AC3EC"></path>
                <path d="M48.3145964,509.669251 C47.6696715,509.669251 47.1478981,509.146472 47.1478981,508.500305 L47.1478981,485.108397 C47.1478981,484.46223 47.6696715,483.939451 48.3145964,483.939451 C48.9595212,483.939451 49.4812946,484.46223 49.4812946,485.108397 L49.4812946,508.500305 C49.4812946,509.146472 48.9595212,509.669251 48.3145964,509.669251" id="Fill-119" fill="#2AC3EC"></path>
                <path d="M48.6062709,489.753009 L48.6062709,484.054398 L53.3605664,486.905327 L57.0972418,489.103595 C57.5930886,489.395831 57.5930886,490.113434 57.1004826,490.405671 L53.4026972,492.600692 L49.7438018,494.772983 C49.2414733,495.071713 48.6062709,494.711288 48.6062709,494.123568 L48.6062709,489.753009 Z" id="Fill-121" fill="#2AC3EC"></path>
                <path d="M60.8728071,431.333637 C60.2278822,431.333637 59.7061088,430.810858 59.7061088,430.164691 L59.7061088,406.772784 C59.7061088,406.126616 60.2278822,405.603838 60.8728071,405.603838 C61.5177319,405.603838 62.0395053,406.126616 62.0395053,406.772784 L62.0395053,430.164691 C62.0395053,430.810858 61.5177319,431.333637 60.8728071,431.333637" id="Fill-123" fill="#2AC3EC"></path>
                <path d="M61.1644816,411.417395 L61.1644816,405.718784 L65.9187771,408.569713 L69.6554525,410.767981 C70.1512992,411.060218 70.1512992,411.77782 69.6586933,412.070057 L65.9609079,414.265078 L62.3020125,416.437369 C61.799684,416.7361 61.1644816,416.375675 61.1644816,415.787954 L61.1644816,411.417395 Z" id="Fill-125" fill="#2AC3EC"></path>
                <path d="M101.788268,540.110551 C101.143343,540.110551 100.621569,539.587773 100.621569,538.941605 L100.621569,515.549698 C100.621569,514.903531 101.143343,514.380752 101.788268,514.380752 C102.433193,514.380752 102.954966,514.903531 102.954966,515.549698 L102.954966,538.941605 C102.954966,539.587773 102.433193,540.110551 101.788268,540.110551" id="Fill-127" fill="#2AC3EC"></path>
                <path d="M102.079942,520.19431 L102.079942,514.495699 L106.834238,517.346628 L110.570913,519.544896 C111.06676,519.837132 111.06676,520.554735 110.574154,520.846972 L106.876369,523.041992 L103.217473,525.214283 C102.715145,525.513014 102.079942,525.152589 102.079942,524.564869 L102.079942,520.19431 Z" id="Fill-129" fill="#2AC3EC"></path>
                <path d="M126.094806,594.904893 C125.449881,594.904893 124.928108,594.382114 124.928108,593.735947 L124.928108,570.344039 C124.928108,569.697872 125.449881,569.175094 126.094806,569.175094 C126.739731,569.175094 127.261504,569.697872 127.261504,570.344039 L127.261504,593.735947 C127.261504,594.382114 126.739731,594.904893 126.094806,594.904893" id="Fill-135" fill="#2AC3EC"></path>
                <path d="M126.386157,574.988651 L126.386157,569.29004 L131.140452,572.140969 L134.877127,574.339237 C135.372974,574.631473 135.372974,575.349076 134.880368,575.641313 L131.182583,577.836334 L127.523687,580.008625 C127.021359,580.307355 126.386157,579.94693 126.386157,579.35921 L126.386157,574.988651 Z" id="Fill-137" fill="#2AC3EC"></path>
                <path d="M179.163374,628.999149 C178.518449,628.999149 177.996676,628.476371 177.996676,627.830204 L177.996676,604.438296 C177.996676,603.792129 178.518449,603.26935 179.163374,603.26935 C179.808299,603.26935 180.330072,603.792129 180.330072,604.438296 L180.330072,627.830204 C180.330072,628.476371 179.808299,628.999149 179.163374,628.999149" id="Fill-139" fill="#2AC3EC"></path>
                <path d="M179.454724,609.082908 L179.454724,603.384297 L184.20902,606.235226 L187.945695,608.433494 C188.441542,608.72573 188.441542,609.443333 187.948936,609.73557 L184.251151,611.93059 L180.592255,614.102882 C180.089927,614.401612 179.454724,614.041187 179.454724,613.453467 L179.454724,609.082908 Z" id="Fill-141" fill="#2AC3EC"></path>
                <path d="M148.034891,640.356109 C147.389966,640.356109 146.868193,639.83333 146.868193,639.187163 L146.868193,615.795256 C146.868193,615.149088 147.389966,614.62631 148.034891,614.62631 C148.679816,614.62631 149.20159,615.149088 149.20159,615.795256 L149.20159,639.187163 C149.20159,639.83333 148.679816,640.356109 148.034891,640.356109" id="Fill-143" fill="#2AC3EC"></path>
                <path d="M148.326566,620.439543 L148.326566,614.740931 L153.080861,617.591861 L156.817537,619.790128 C157.313384,620.082365 157.313384,620.799968 156.820778,621.092204 L153.122992,623.287225 L149.464097,625.459516 C148.961768,625.758247 148.326566,625.397822 148.326566,624.810102 L148.326566,620.439543 Z" id="Fill-145" fill="#2AC3EC"></path>
                <g id="Group-6" transform="translate(168.000000, 640.000000)" fill="#2AC3EC">
                    <path d="M1.66166986,26.4855007 C1.01674498,26.4855007 0.494971579,25.9627221 0.494971579,25.3165547 L0.494971579,1.92464746 C0.494971579,1.27848012 1.01674498,0.755701514 1.66166986,0.755701514 C2.30659475,0.755701514 2.82836815,1.27848012 2.82836815,1.92464746 L2.82836815,25.3165547 C2.82836815,25.9627221 2.30659475,26.4855007 1.66166986,26.4855007" id="Fill-147"></path>
                    <path d="M1.95334443,6.56893465 L1.95334443,0.870323158 L6.70763994,3.72125244 L10.4443153,5.91952024 C10.9401621,6.21175673 10.9401621,6.92935965 10.4475561,7.22159614 L6.74977071,9.41661687 L3.09087526,11.5889081 C2.58854683,11.8876387 1.95334443,11.5272137 1.95334443,10.9394937 L1.95334443,6.56893465 Z" id="Fill-149"></path>
                </g>
                <g id="Group-6-Copy" transform="translate(138.000000, 578.000000)" fill="#2AC3EC">
                    <path d="M1.66166986,26.4855007 C1.01674498,26.4855007 0.494971579,25.9627221 0.494971579,25.3165547 L0.494971579,1.92464746 C0.494971579,1.27848012 1.01674498,0.755701514 1.66166986,0.755701514 C2.30659475,0.755701514 2.82836815,1.27848012 2.82836815,1.92464746 L2.82836815,25.3165547 C2.82836815,25.9627221 2.30659475,26.4855007 1.66166986,26.4855007" id="Fill-147"></path>
                    <path d="M1.95334443,6.56893465 L1.95334443,0.870323158 L6.70763994,3.72125244 L10.4443153,5.91952024 C10.9401621,6.21175673 10.9401621,6.92935965 10.4475561,7.22159614 L6.74977071,9.41661687 L3.09087526,11.5889081 C2.58854683,11.8876387 1.95334443,11.5272137 1.95334443,10.9394937 L1.95334443,6.56893465 Z" id="Fill-149"></path>
                </g>
                <g id="Group-6-Copy-2" transform="translate(111.000000, 553.000000)" fill="#2AC3EC">
                    <path d="M1.66166986,26.4855007 C1.01674498,26.4855007 0.494971579,25.9627221 0.494971579,25.3165547 L0.494971579,1.92464746 C0.494971579,1.27848012 1.01674498,0.755701514 1.66166986,0.755701514 C2.30659475,0.755701514 2.82836815,1.27848012 2.82836815,1.92464746 L2.82836815,25.3165547 C2.82836815,25.9627221 2.30659475,26.4855007 1.66166986,26.4855007" id="Fill-147"></path>
                    <path d="M1.95334443,6.56893465 L1.95334443,0.870323158 L6.70763994,3.72125244 L10.4443153,5.91952024 C10.9401621,6.21175673 10.9401621,6.92935965 10.4475561,7.22159614 L6.74977071,9.41661687 L3.09087526,11.5889081 C2.58854683,11.8876387 1.95334443,11.5272137 1.95334443,10.9394937 L1.95334443,6.56893465 Z" id="Fill-149"></path>
                </g>
                <g id="Group-6-Copy-4" transform="translate(133.000000, 531.000000)" fill="#2AC3EC">
                    <path d="M1.66166986,26.4855007 C1.01674498,26.4855007 0.494971579,25.9627221 0.494971579,25.3165547 L0.494971579,1.92464746 C0.494971579,1.27848012 1.01674498,0.755701514 1.66166986,0.755701514 C2.30659475,0.755701514 2.82836815,1.27848012 2.82836815,1.92464746 L2.82836815,25.3165547 C2.82836815,25.9627221 2.30659475,26.4855007 1.66166986,26.4855007" id="Fill-147"></path>
                    <path d="M1.95334443,6.56893465 L1.95334443,0.870323158 L6.70763994,3.72125244 L10.4443153,5.91952024 C10.9401621,6.21175673 10.9401621,6.92935965 10.4475561,7.22159614 L6.74977071,9.41661687 L3.09087526,11.5889081 C2.58854683,11.8876387 1.95334443,11.5272137 1.95334443,10.9394937 L1.95334443,6.56893465 Z" id="Fill-149"></path>
                </g>
                <g id="Group-6-Copy-5" transform="translate(102.000000, 464.542146)" fill="#2AC3EC">
                    <path d="M1.66166986,26.4855007 C1.01674498,26.4855007 0.494971579,25.9627221 0.494971579,25.3165547 L0.494971579,1.92464746 C0.494971579,1.27848012 1.01674498,0.755701514 1.66166986,0.755701514 C2.30659475,0.755701514 2.82836815,1.27848012 2.82836815,1.92464746 L2.82836815,25.3165547 C2.82836815,25.9627221 2.30659475,26.4855007 1.66166986,26.4855007" id="Fill-147"></path>
                    <path d="M1.95334443,6.56893465 L1.95334443,0.870323158 L6.70763994,3.72125244 L10.4443153,5.91952024 C10.9401621,6.21175673 10.9401621,6.92935965 10.4475561,7.22159614 L6.74977071,9.41661687 L3.09087526,11.5889081 C2.58854683,11.8876387 1.95334443,11.5272137 1.95334443,10.9394937 L1.95334443,6.56893465 Z" id="Fill-149"></path>
                </g>
                <g id="Group-6-Copy-3" transform="translate(113.000000, 574.000000)" fill="#2AC3EC">
                    <path d="M1.66166986,26.4855007 C1.01674498,26.4855007 0.494971579,25.9627221 0.494971579,25.3165547 L0.494971579,1.92464746 C0.494971579,1.27848012 1.01674498,0.755701514 1.66166986,0.755701514 C2.30659475,0.755701514 2.82836815,1.27848012 2.82836815,1.92464746 L2.82836815,25.3165547 C2.82836815,25.9627221 2.30659475,26.4855007 1.66166986,26.4855007" id="Fill-147"></path>
                    <path d="M1.95334443,6.56893465 L1.95334443,0.870323158 L6.70763994,3.72125244 L10.4443153,5.91952024 C10.9401621,6.21175673 10.9401621,6.92935965 10.4475561,7.22159614 L6.74977071,9.41661687 L3.09087526,11.5889081 C2.58854683,11.8876387 1.95334443,11.5272137 1.95334443,10.9394937 L1.95334443,6.56893465 Z" id="Fill-149"></path>
                </g>
                <path d="M149.250202,603.826548 C148.605277,603.826548 148.083504,603.303769 148.083504,602.657602 L148.083504,579.265695 C148.083504,578.619527 148.605277,578.096749 149.250202,578.096749 C149.895127,578.096749 150.4169,578.619527 150.4169,579.265695 L150.4169,602.657602 C150.4169,603.303769 149.895127,603.826548 149.250202,603.826548" id="Fill-151" fill="#2AC3EC"></path>
                <path d="M149.541877,583.909982 L149.541877,578.21137 L154.296172,581.0623 L158.032848,583.260567 C158.528694,583.552804 158.528694,584.270407 158.036088,584.562643 L154.338303,586.757664 L150.679407,588.929955 C150.177079,589.228686 149.541877,588.868261 149.541877,588.280541 L149.541877,583.909982 Z" id="Fill-153" fill="#2AC3EC"></path>
            </g>
            <g id="Page-1" transform="translate(665.000000, 176.000000)" fill="#165376">
                <g id="Group-3" transform="translate(0.000000, 0.237000)">
                    <path d="M183.071159,8.48956258 C183.071159,11.9996702 183.292921,15.0703341 183.031704,18.0974618 C182.079349,29.0563442 183.650735,39.3132052 190.18797,48.5592095 C191.442357,50.3305894 191.768879,52.9495651 191.993362,55.2297745 C193.662704,72.2020971 195.209601,89.1866643 196.771462,106.171231 C197.201382,110.83913 197.555114,115.513832 198,120.891915 C131.815425,117.802204 66.5247021,114.753309 0,111.647271 C2.89924004,74.3829895 5.76446741,37.5472673 8.68275455,0" id="Fill-1"></path>
                </g>
                <path d="M372.515346,716.344439 C388.293583,716.472706 404.074549,716.418124 419.854151,716.419489 L427.211779,716.419489 C428.61726,722.740063 429.901298,728.505266 431.087087,733.836545 C422.134306,736.272258 413.496734,738.62337 404.860527,740.973117 C404.893276,741.842332 404.924661,742.711547 404.956045,743.579398 C413.367102,744.631462 421.77816,745.684891 430.931529,746.829745 C430.931529,750.392573 427.546092,757.246684 435.902568,760.315546 C435.470007,761.291196 434.828671,762.737614 434.449327,763.591819 C440.024859,768.103006 445.098238,772.839342 450.799308,776.631414 C455.755337,779.928155 453.816318,781.889007 452.477699,782.98883 C443.977947,779.426002 436.919154,776.134719 429.603827,773.574832 C426.910214,772.631931 423.528871,772.958058 420.610109,773.50524 C414.75621,774.603699 409.004651,776.253435 401.799852,778.020521 C401.592441,778.432613 400.552658,780.494441 399.525155,782.530343 C392.151153,778.750552 384.80717,775.467457 378.064952,771.22645 C376.105465,769.992901 375.868034,766.022074 374.620839,762.722604 C368.484479,763.1538 361.788656,763.040543 355.316618,764.192219 C339.400561,767.026379 324.269119,766.900841 309.675307,758.234614 C306.62282,756.422498 300.931301,759.051977 295.889306,759.708323 C293.858863,754.138249 293.819291,748.247507 297.933395,742.390879 C310.49267,724.50442 304.936242,702.420619 293.273473,687.394246 C287.897165,680.467815 284.218351,673.990318 285.142148,664.909269 C285.904929,657.405635 285.297706,649.762817 285.297706,641.522328 C288.739089,641.334021 292.746759,641.059747 296.758522,640.902825 C320.878224,639.964017 345.003384,639.167123 369.11217,638.031821 C373.867611,637.8094 376.392019,638.651325 377.700618,643.821587 C379.729697,651.832832 382.836767,659.571168 384.860387,665.564251 C378.01037,675.896588 370.446696,684.965356 365.771763,695.3359" id="Fill-4"></path>
            </g>
        </g>
    </g>
</svg>