<?xml version="1.0" encoding="UTF-8" standalone="no"?>
<svg width="236px" height="64px" viewBox="0 0 236 64" version="1.1" xmlns="http://www.w3.org/2000/svg" xmlns:xlink="http://www.w3.org/1999/xlink">
    <!-- Generator: Sketch 41.2 (35397) - http://www.bohemiancoding.com/sketch -->
    <title>Page 1</title>
    <desc>Created with Sketch.</desc>
    <defs>
        <polygon id="path-1" points="16.4679872 25.5362785 16.4679872 0.263119013 0.164419702 0.263119013 0.164419702 25.5362785 16.4679872 25.5362785"></polygon>
    </defs>
    <g id="Visual_Design" stroke="none" stroke-width="1" fill="none" fill-rule="evenodd">
        <g id="9_Blog_No-Photo" transform="translate(-60.000000, -25.000000)">
            <g id="Page-1" transform="translate(60.000000, 25.000000)">
                <path d="M13.9206979,39.1983367 C11.7916693,35.0828113 13.4905911,32.4414554 9.90867636,31.1976136 C5.21796084,29.5694102 0.499543525,28.5515571 0.0559503328,33.9459977 C-0.505739979,40.7751955 3.34079984,46.4585401 3.77600959,47.0428565 C7.80406905,49.1700429 14.6577114,50.6510825 21.7537445,46.8335006 C18.9055628,45.7104271 15.259132,41.7861785 13.9206979,39.1983367" id="Fill-1" fill="#32C5ED"></path>
                <path d="M43.0745027,22.6916881 C50.6436533,28.4357785 48.8572521,38.6106938 43.9321648,45.6156203 C38.8703911,52.8143548 28.826304,63.909496 23.5961325,63.909496 C17.0147696,63.909496 4.27996353,47.7200271 3.77586379,47.0427842 C7.80392326,49.1703322 14.7064083,50.5396429 21.517769,46.9664904 C22.8306882,46.2780384 24.1399624,45.4095186 25.4244509,44.3233266 C30.9097705,39.6849537 34.4399266,32.0534056 29.892823,29.8611345 C26.3615734,28.1588068 22.7078526,34.3715073 21.3752506,34.3487277 C19.9795905,34.3248633 18.5791919,32.7194395 14.6849029,30.8052249 C10.0058513,28.5048407 4.55370099,27.8395299 1.77841869,27.4963887 C-0.708181769,27.1890441 1.38877109,22.5882757 6.27850213,22.6407051 C15.1944701,22.7358011 18.7971613,26.9475073 19.911794,25.8887955 C21.5075631,24.3730441 30.7151289,13.3122531 43.0745027,22.6916881 L42.1771104,21.0240723" id="Fill-3" fill="#36A6CE"></path>
                <path d="M63.3262269,35.7187254 L71.7803768,35.7339119 L67.6925398,25.5427254 L67.4512426,25.5423638 L63.3262269,35.7187254 Z M71.8058916,21.7562395 L81.0258504,43.3387028 C81.0258504,43.3387028 81.4267974,44.3377537 81.4253394,45.1364881 C81.4224234,46.6540475 80.1718333,47.9300701 78.6019435,47.9268158 C76.9915945,47.9242847 76.187878,47.0839684 75.5871864,45.5255503 L73.7840184,40.9291209 L61.3036315,40.9067028 L59.4836965,45.4962621 C58.8768086,47.0528723 58.0701761,47.8899345 56.4598271,47.8870418 C54.8899373,47.8841492 53.6440856,46.6041492 53.6470016,45.0865898 C53.6484595,44.2874938 54.0530515,43.2898893 54.0530515,43.2898893 L63.3517417,21.7406915 C63.9582652,20.3442621 65.3695986,18.9489175 67.5839196,18.9528949 C69.7982406,18.9568723 71.2044711,20.3572791 71.8058916,21.7562395 L71.8058916,21.7562395 Z" id="Fill-5" fill="#36A6CE"></path>
                <path d="M95.647185,41.2326328 C95.652288,38.5327006 83.5939889,40.8251299 83.6074753,33.4965876 C83.6140362,30.0254011 86.5354819,27.1378079 92.3681675,27.1482938 C97.8115699,27.1580565 100.722081,30.0561356 100.719165,31.7917288 C100.716613,33.1418757 99.7426765,34.1044068 98.3820081,34.1018757 C97.4098939,34.1000678 96.2449605,33.1339209 96.2449605,33.1339209 C96.2449605,33.1339209 94.6925666,31.7808814 92.3594195,31.7765424 C89.6377183,31.7718418 88.8587876,32.5420113 88.8569651,33.5063503 C88.8518622,36.2062825 100.909797,33.9134915 100.89631,41.2423955 C100.88902,45.0993898 97.9675747,47.9869831 91.552058,47.9754124 C85.9140141,47.9652881 82.6153137,44.680678 82.6182297,42.9447232 C82.6207811,41.5949379 83.5943534,40.6324068 84.9553862,40.6349379 C86.122142,40.6371073 86.7042442,41.2167232 87.2863463,41.796339 C87.8684485,42.3759548 88.8387403,43.3417401 91.5604415,43.3464407 C94.6710613,43.352226 95.644998,42.3896949 95.647185,41.2326328" id="Fill-7" fill="#36A6CE"></path>
                <path d="M118.981426,39.1535006 L118.986894,36.0677605 C118.991632,33.5605514 117.244961,31.821704 114.328983,31.8166418 C111.41264,31.8112181 109.659773,33.5435571 109.655399,36.0511277 L109.649567,39.1368678 C109.644828,41.6437153 111.391499,43.3825627 114.307478,43.3879864 C117.22382,43.3930486 118.976688,41.6607096 118.981426,39.1535006 L118.981426,39.1535006 Z M104.611485,30.0633311 C104.614037,28.7131842 105.782615,27.5062237 107.143283,27.5087548 C108.698593,27.5116475 109.66925,28.4745401 109.667792,29.197704 L109.862069,29.197704 C109.862069,29.197704 111.421024,27.1309017 115.309481,27.1377718 C120.169687,27.1468113 124.050854,31.0367096 124.041742,36.0511277 L124.03591,39.1495232 C124.026798,44.1639412 120.131415,47.9923706 115.271208,47.9836927 C111.383116,47.976461 109.831815,45.8304723 109.831815,45.8304723 L109.637174,45.8304723 L109.623323,52.540348 C109.621136,53.8904949 108.452193,55.0594893 107.091525,55.0569582 C105.730492,55.0544271 104.566288,53.9024271 104.568475,52.5522802 L104.611485,30.0633311 Z" id="Fill-9" fill="#36A6CE"></path>
                <path d="M133.16325,45.1576407 C133.160699,46.507426 131.99212,47.6623186 130.631452,47.6601492 C129.270784,47.6576181 128.106215,46.4983864 128.108766,45.1482395 L128.135739,30.1057085 C128.13829,28.7555616 129.307233,27.6006689 130.668266,27.6028384 C132.028934,27.6053695 133.193139,28.7646011 133.190587,30.114748 L133.16325,45.1576407 Z M130.682481,19.695765 C132.432068,19.6990192 133.596637,20.8582508 133.593721,22.4011209 C133.590805,23.943991 132.422227,25.0988836 130.67264,25.0956294 C128.923053,25.0927367 127.758484,23.9335051 127.7614,22.390635 C127.764316,20.847765 128.932895,19.6928723 130.682481,19.695765 L130.682481,19.695765 Z" id="Fill-11" fill="#36A6CE"></path>
                <path d="M142.884866,45.1750689 C142.882315,46.5248542 141.713737,47.6801085 140.353068,47.6775774 C138.9924,47.6750463 137.827831,46.5158147 137.830383,45.1660294 L137.857355,30.1231367 C137.859907,28.7733514 139.02885,27.6180972 140.389882,27.6206282 C141.945192,27.6235209 142.91512,28.5893062 142.913662,29.360922 L143.108303,29.3612836 C143.108303,29.3612836 144.667623,27.2427751 148.361074,27.2492836 C151.471693,27.2550689 153.024452,28.8004701 153.0219,30.3433401 C153.019349,31.6931254 152.045048,32.6560181 150.684015,32.653487 C149.517623,32.6513175 149.325169,31.8797017 147.38094,31.8760859 C144.853516,31.8713853 142.906007,33.6033627 142.901269,36.1109333 L142.884866,45.1750689 Z" id="Fill-13" fill="#36A6CE"></path>
                <path d="M167.274473,40.011896 L167.275566,39.2406418 L162.41536,39.2319638 C159.887936,39.2272633 158.913999,40.1894328 158.911812,41.3468565 C158.909989,42.5039186 159.880281,43.4700655 162.407341,43.4744045 C165.517961,43.4801898 167.270828,41.940574 167.274473,40.011896 M153.663051,41.3374554 C153.669612,37.6731842 156.202139,34.977591 162.423014,34.9888 L167.283585,34.9978395 C167.286866,33.1078508 165.92802,31.9095684 163.012042,31.9041446 C160.679259,31.9001672 159.510681,32.8623367 159.510681,32.8623367 C159.510681,32.8623367 158.342467,33.8241446 157.370717,33.8226983 C156.00932,33.8201672 155.039028,32.8543819 155.04158,31.504235 C155.04486,29.7686418 157.382746,27.2657718 163.020425,27.275896 C168.891383,27.2863819 172.346453,30.5709921 172.338069,35.0452068 L172.31948,45.2280768 C172.317293,46.5782237 171.14835,47.7331164 169.787682,47.7309469 C168.232372,47.7280542 167.26208,46.7619073 167.263174,45.9902915 L167.068532,45.9899299 C167.068532,45.9899299 165.509577,48.1088 161.621485,48.1019299 C156.760913,48.093252 153.65649,45.0017266 153.663051,41.3374554" id="Fill-15" fill="#36A6CE"></path>
                <path d="M181.48706,29.4305266 C181.48706,29.4305266 183.045651,27.3120181 186.739466,27.3185266 C191.40576,27.3268429 195.286927,31.1910689 195.277815,36.205487 L195.261048,45.2696226 C195.258861,46.6194079 194.284924,47.7750237 192.72925,47.7721311 C191.17394,47.7692384 190.204013,46.6103684 190.206564,45.2605831 L190.222967,36.1964475 C190.227705,33.6888768 188.481399,31.9500294 185.759333,31.9453288 C183.232273,31.9406282 181.2844,33.6729672 181.280026,36.1801763 L181.263624,45.2443119 C181.261072,46.5940972 180.092494,47.7493514 178.731825,47.7468203 C177.370793,47.7446508 176.206588,46.5850576 176.208775,45.2352723 L176.236112,30.1927412 C176.238664,28.8425944 177.407607,27.6873401 178.768275,27.6898712 C180.32395,27.6927638 181.293512,28.6585492 181.292419,29.430165 L181.48706,29.4305266 Z" id="Fill-17" fill="#36A6CE"></path>
                <path d="M212.776819,35.6582689 C212.7801,33.729591 211.033793,31.9907435 208.467732,31.9860429 C205.590391,31.9809808 203.837523,33.7136814 203.834243,35.6423593 L212.776819,35.6582689 Z M203.826224,39.8851616 C203.822579,41.8138395 205.568885,43.5523254 208.484864,43.5577492 C211.206929,43.5628113 212.180502,42.7930034 212.764426,42.2155571 C213.154074,41.8304723 213.738728,41.253026 214.905483,41.2548339 C216.266152,41.257365 217.236079,42.2235119 217.233527,43.5736588 C217.230611,45.309252 214.309166,48.1968452 208.476845,48.1863593 C202.839165,48.176235 198.763721,44.1185627 198.772469,39.2972294 L198.778301,36.2114893 C198.787414,31.1974328 202.682431,27.3473085 208.514752,27.3577944 C213.958155,27.3679186 217.839686,31.2317831 217.830574,36.2462011 L217.828387,37.4032633 C217.8262,38.7530486 216.851534,39.9083028 215.296589,39.9057718 L203.826224,39.8851616 Z" id="Fill-19" fill="#36A6CE"></path>
                <g id="Group-23" transform="translate(219.427364, 22.689266)">
                    <mask id="mask-2" fill="white">
                        <use xlink:href="#path-1"></use>
                    </mask>
                    <g id="Clip-22"></g>
                    <path d="M2.5012168,5.46411751 L3.279054,5.46556384 L3.28379246,2.76563164 C3.28634394,1.41584633 4.45492223,0.26059209 5.81559058,0.263123164 C7.17698793,0.265292655 8.34155675,1.42488588 8.33900527,2.77467119 L8.3339023,5.47460339 L12.6109134,5.48219661 C13.9715818,5.48472768 14.9418735,6.25778983 14.939322,7.80102147 C14.9367706,9.15080678 13.9628338,10.1133379 12.6021655,10.1111684 L8.32515437,10.1032136 L8.31057448,18.2030102 C8.3069295,20.1316881 9.782779,20.905835 11.4157268,20.9087277 C12.193564,20.910174 12.7774887,20.5254508 12.7774887,20.5254508 C12.7774887,20.5254508 13.3617778,20.1410893 14.1392505,20.1425356 C15.5002834,20.1450667 16.4705751,21.110852 16.4680236,22.4606373 C16.4651077,24.0035073 14.9068818,25.5434847 10.8245122,25.5362531 C6.39186079,25.5282983 3.24807173,22.3597559 3.25536167,18.1939706 L3.27030606,10.094174 L2.49246886,10.0927277 C1.13180051,10.0901966 0.161873243,9.12404972 0.164424724,7.77426441 C0.166976205,6.42411751 1.14054844,5.46158644 2.5012168,5.46411751" id="Fill-21" fill="#36A6CE" mask="url(#mask-2)"></path>
                </g>
                <path d="M9.53918547,20.668565 C12.7146858,21.9915932 16.371687,20.5116384 17.7061116,17.3593672 C19.0398071,14.2085424 17.5479197,10.5815141 14.3698679,9.25776271 C11.1899937,7.93256497 7.53554391,9.41288136 6.20075486,12.5658757 C4.86705931,15.7159774 6.36149816,19.3448136 9.53918547,20.668565" id="Fill-24" fill="#32C5ED"></path>
                <path d="M30.1706064,16.1584452 C34.4855252,17.9652701 39.4598196,15.9599367 41.2797546,11.6827842 C43.101512,7.40165424 41.0814681,2.47256949 36.7636333,0.664298305 C32.4487144,-1.14252655 27.4777005,0.863529944 25.6574011,5.14140565 C23.8363727,9.42181243 25.8589681,14.3530667 30.1706064,16.1584452" id="Fill-26" fill="#36A6CE"></path>
                <path d="M129.533149,62.908565 C129.533149,63.3666893 129.244467,63.7101921 128.725423,63.7101921 C128.20565,63.7101921 127.917332,63.3666893 127.917332,62.908565 L127.917332,56.3816497 C127.917332,55.9235254 128.263605,55.5800226 128.725423,55.5800226 C129.186876,55.5800226 129.533149,55.9235254 129.533149,56.3816497 L129.533149,58.9011525 L133.169374,58.9011525 L133.169374,56.3816497 C133.169374,55.9235254 133.515646,55.5800226 133.977464,55.5800226 C134.439282,55.5800226 134.785554,55.9235254 134.785554,56.3816497 L134.785554,62.908565 C134.785554,63.3666893 134.496873,63.7101921 133.977464,63.7101921 C133.458055,63.7101921 133.169374,63.3666893 133.169374,62.908565 L133.169374,60.2748023 L129.533149,60.2748023 L129.533149,62.908565 Z" id="Fill-28" fill="#03B4DD"></path>
                <path d="M143.154449,60.5613559 L143.154449,58.7292203 C143.154449,57.6987119 142.346723,56.8970847 141.134405,56.8970847 C139.922451,56.8970847 139.114361,57.6987119 139.114361,58.7292203 L139.114361,60.5613559 C139.114361,61.5918644 139.922451,62.3934915 141.134405,62.3934915 C142.346723,62.3934915 143.154449,61.5918644 143.154449,60.5613559 L143.154449,60.5613559 Z M144.770265,60.5613559 C144.770265,62.3934915 143.269994,63.8821243 141.134405,63.8821243 C138.99918,63.8821243 137.498544,62.3934915 137.498544,60.5613559 L137.498544,58.7292203 C137.498544,56.8970847 138.99918,55.408452 141.134405,55.408452 C143.269994,55.408452 144.770265,56.8970847 144.770265,58.7292203 L144.770265,60.5613559 Z" id="Fill-30" fill="#03B4DD"></path>
                <path d="M150.946781,57.1260384 L149.099873,57.1260384 L149.099873,59.6451797 L150.946781,59.6451797 C151.985598,59.6451797 152.505007,59.1299254 152.505007,58.3857898 C152.505007,57.6412927 151.985598,57.1260384 150.946781,57.1260384 L150.946781,57.1260384 Z M150.946781,55.6374056 C152.90887,55.6374056 154.178778,56.8971571 154.178778,58.3857898 C154.178778,59.8744226 152.90887,61.1338124 150.946781,61.1338124 L149.099873,61.1338124 L149.099873,62.9084565 C149.099873,63.3665808 148.753236,63.7104452 148.291783,63.7104452 C147.829965,63.7104452 147.483692,63.3665808 147.483692,62.9084565 L147.483692,56.4390328 C147.483692,55.9809085 147.829965,55.6374056 148.291783,55.6374056 L150.946781,55.6374056 Z" id="Fill-32" fill="#03B4DD"></path>
                <path d="M158.161676,57.1260384 L158.161676,58.958174 L161.220538,58.958174 C161.624765,58.958174 161.913082,59.2445469 161.913082,59.6451797 C161.913082,60.046174 161.624765,60.3321853 161.220538,60.3321853 L158.161676,60.3321853 L158.161676,62.1643209 L162.374901,62.1643209 C162.779128,62.1643209 163.1254,62.5078237 163.1254,62.9084565 C163.1254,63.3094508 162.779128,63.6529537 162.374901,63.6529537 L157.35395,63.6529537 C156.892132,63.6529537 156.54586,63.3094508 156.54586,62.8513266 L156.54586,56.4390328 C156.54586,55.9809085 156.892132,55.6374056 157.35395,55.6374056 L162.259355,55.6374056 C162.663582,55.6374056 163.009855,55.9809085 163.009855,56.3819028 C163.009855,56.7825356 162.663582,57.1260384 162.259355,57.1260384 L158.161676,57.1260384 Z" id="Fill-34" fill="#03B4DD"></path>
                <path d="M171.205941,57.1260384 L171.205941,59.2445469 L173.861303,59.2445469 C174.264802,59.2445469 174.611074,59.5880497 174.611074,59.9886825 C174.611074,60.4008859 174.264802,60.7331797 173.861303,60.7331797 L171.205941,60.7331797 L171.205941,62.9084565 C171.205941,63.3665808 170.859668,63.7104452 170.398215,63.7104452 C169.936397,63.7104452 169.590124,63.3665808 169.590124,62.9084565 L169.590124,56.4390328 C169.590124,55.9809085 169.936397,55.6374056 170.398215,55.6374056 L175.246029,55.6374056 C175.650256,55.6374056 175.996528,55.9809085 175.996528,56.3819028 C175.996528,56.7825356 175.638592,57.1260384 175.246029,57.1260384 L171.205941,57.1260384 Z" id="Fill-36" fill="#03B4DD"></path>
                <path d="M183.211315,60.5613559 L183.211315,58.7292203 C183.211315,57.6987119 182.403589,56.8970847 181.191271,56.8970847 C179.979317,56.8970847 179.171227,57.6987119 179.171227,58.7292203 L179.171227,60.5613559 C179.171227,61.5918644 179.979317,62.3934915 181.191271,62.3934915 C182.403589,62.3934915 183.211315,61.5918644 183.211315,60.5613559 L183.211315,60.5613559 Z M184.827131,60.5613559 C184.827131,62.3934915 183.32686,63.8821243 181.191271,63.8821243 C179.056046,63.8821243 177.55541,62.3934915 177.55541,60.5613559 L177.55541,58.7292203 C177.55541,56.8970847 179.056046,55.408452 181.191271,55.408452 C183.32686,55.408452 184.827131,56.8970847 184.827131,58.7292203 L184.827131,60.5613559 Z" id="Fill-38" fill="#03B4DD"></path>
                <path d="M191.292147,57.1260384 L189.156557,57.1260384 L189.156557,59.1870554 L191.292147,59.1870554 C192.100237,59.1870554 192.561691,58.7292927 192.561691,58.1565469 C192.561691,57.5270328 192.100237,57.1260384 191.292147,57.1260384 L191.292147,57.1260384 Z M191.292147,55.6374056 C193.081464,55.6374056 194.235462,56.7825356 194.235462,58.1565469 C194.235462,59.8169311 192.735191,60.3321853 192.735191,60.3321853 L192.735191,60.3896768 L194.351008,62.3935638 C194.351008,62.3935638 194.581735,62.6795751 194.581735,62.965948 C194.581735,63.3665808 194.293417,63.7104452 193.831964,63.7104452 C193.427736,63.7104452 193.196645,63.4237107 193.196645,63.4237107 L190.992165,60.6756881 L189.156557,60.6756881 L189.156557,62.9084565 C189.156557,63.3665808 188.810285,63.7104452 188.348831,63.7104452 C187.887013,63.7104452 187.540741,63.3665808 187.540741,62.9084565 L187.540741,56.4390328 C187.540741,55.9809085 187.887013,55.6374056 188.348831,55.6374056 L191.292147,55.6374056 Z" id="Fill-40" fill="#03B4DD"></path>
                <path d="M207.914608,56.3818305 C207.914608,56.6107119 207.799427,56.9542147 207.799427,56.9542147 L206.010109,62.8516158 C205.81401,63.4811299 205.43311,63.8821243 204.740565,63.8821243 C204.048021,63.8821243 203.632129,63.424 203.470657,62.8516158 L202.085567,58.0422147 L202.027977,58.0422147 L200.654186,62.8516158 C200.492714,63.424 200.065523,63.8821243 199.372978,63.8821243 C198.680434,63.8821243 198.299534,63.4811299 198.103434,62.8516158 L196.314117,56.9542147 C196.314117,56.9542147 196.198572,56.6107119 196.198572,56.3818305 C196.198572,55.9237062 196.544844,55.5802034 197.006662,55.5802034 C197.41089,55.5802034 197.710871,55.8665763 197.814753,56.2100791 L199.453532,61.7064859 L199.523151,61.7064859 L200.931204,56.5535819 C201.092677,55.9808362 201.450613,55.5802034 202.050575,55.5802034 C202.662566,55.5802034 203.020503,55.9808362 203.18234,56.5535819 L204.590393,61.7064859 L204.659647,61.7064859 L206.298791,56.2100791 C206.402673,55.8665763 206.702654,55.5802034 207.106882,55.5802034 C207.568335,55.5802034 207.914608,55.9237062 207.914608,56.3818305" id="Fill-42" fill="#03B4DD"></path>
                <path d="M211.955753,60.2178169 L214.380024,60.2178169 L213.202698,57.2976814 L213.133079,57.2976814 L211.955753,60.2178169 Z M214.380024,56.2100429 L217.034658,62.3934554 C217.034658,62.3934554 217.150203,62.6798282 217.150203,62.9087096 C217.150203,63.3436927 216.792267,63.7103367 216.342113,63.7103367 C215.880659,63.7103367 215.649568,63.4698847 215.476432,63.0233311 L214.957023,61.7064497 L211.378753,61.7064497 L210.859345,63.0233311 C210.686209,63.4698847 210.455482,63.7103367 209.993664,63.7103367 C209.543145,63.7103367 209.185573,63.3436927 209.185573,62.9087096 C209.185573,62.6798282 209.300754,62.3934554 209.300754,62.3934554 L211.955753,56.2100429 C212.129253,55.8090486 212.533116,55.4084158 213.168071,55.4084158 C213.80266,55.4084158 214.206888,55.8090486 214.380024,56.2100429 L214.380024,56.2100429 Z" id="Fill-44" fill="#03B4DD"></path>
                <path d="M223.095191,57.1260384 L220.959601,57.1260384 L220.959601,59.1870554 L223.095191,59.1870554 C223.903281,59.1870554 224.364735,58.7292927 224.364735,58.1565469 C224.364735,57.5270328 223.903281,57.1260384 223.095191,57.1260384 L223.095191,57.1260384 Z M223.095191,55.6374056 C224.884508,55.6374056 226.038506,56.7825356 226.038506,58.1565469 C226.038506,59.8169311 224.538235,60.3321853 224.538235,60.3321853 L224.538235,60.3896768 L226.154052,62.3935638 C226.154052,62.3935638 226.384778,62.6795751 226.384778,62.965948 C226.384778,63.3665808 226.096461,63.7104452 225.635008,63.7104452 C225.23078,63.7104452 224.999689,63.4237107 224.999689,63.4237107 L222.795209,60.6756881 L220.959601,60.6756881 L220.959601,62.9084565 C220.959601,63.3665808 220.613329,63.7104452 220.151875,63.7104452 C219.690057,63.7104452 219.343784,63.3665808 219.343784,62.9084565 L219.343784,56.4390328 C219.343784,55.9809085 219.690057,55.6374056 220.151875,55.6374056 L223.095191,55.6374056 Z" id="Fill-46" fill="#03B4DD"></path>
                <path d="M231.822458,62.1643932 C233.080338,62.1643932 233.888793,61.3627661 233.888793,60.320687 L233.888793,58.9698169 C233.888793,57.9277379 233.080338,57.1261107 231.822458,57.1261107 L230.310159,57.1261107 L230.310159,62.1643932 L231.822458,62.1643932 Z M231.822458,55.637478 C234.003975,55.637478 235.50461,57.1261107 235.50461,58.9698169 L235.50461,60.320687 C235.50461,62.1643932 234.003975,63.653026 231.822458,63.653026 L229.502433,63.653026 C229.040251,63.653026 228.693978,63.3095232 228.693978,62.8513989 L228.693978,56.4391051 C228.693978,55.9809808 229.040251,55.637478 229.502433,55.637478 L231.822458,55.637478 Z" id="Fill-48" fill="#03B4DD"></path>
            </g>
        </g>
    </g>
</svg>