<?xml version="1.0" encoding="utf-8"?>
<!-- Generator: Adobe Illustrator 21.0.0, SVG Export Plug-In . SVG Version: 6.00 Build 0)  -->
<svg version="1.1" id="Layer_1" xmlns="http://www.w3.org/2000/svg" xmlns:xlink="http://www.w3.org/1999/xlink" x="0px" y="0px"
	 viewBox="0 0 246 90" style="enable-background:new 0 0 246 90;" xml:space="preserve">
<style type="text/css">
	.st0{fill:#36C5EC;}
	.st1{fill:#36A6CE;}
	.st2{fill:#00B4DC;}
	.st3{fill:#565656;}
	.st4{fill:#232323;}
	.st5{fill:#CCCCCB;}
	.st6{fill:#FFFFFF;}
	.st7{fill:#3A3A3A;}
	.st8{fill:#B5B5B6;}
</style>
<g>
	<path class="st5" d="M29.7,41.5c-1.9-3.7-0.4-6.1-3.6-7.3c-4.2-1.5-8.5-2.4-8.9,2.5c-0.5,6.2,3,11.4,3.4,11.9
		c3.6,1.9,9.8,3.3,16.2-0.2C34.2,47.5,31,43.9,29.7,41.5z"/>
	<path class="st6" d="M56,26.5c6.9,5.2,5.2,14.5,0.8,20.8C52.2,53.9,43.2,64,38.5,64c-5.9,0-17.4-14.7-17.9-15.3
		c3.6,1.9,9.9,3.2,16-0.1c1.2-0.6,2.4-1.4,3.5-2.4c4.9-4.2,8.1-11.2,4-13.1c-3.2-1.5-6.5,4.1-7.7,4.1c-1.3,0-2.5-1.5-6-3.2
		c-4.2-2.1-9.1-2.7-11.6-3c-2.2-0.3-0.4-4.5,4.1-4.4c8,0.1,11.3,3.9,12.3,3C36.6,28.1,45.1,18.3,56,26.5z"/>
	<path class="st6" d="M81.9,25.7l8.3,19.6c0,0,0.4,0.9,0.4,1.6c0,1.4-1.1,2.5-2.5,2.5c-1.5,0-2.2-0.8-2.7-2.2l-1.6-4.2l-11.3,0
		l-1.6,4.2c-0.5,1.4-1.3,2.2-2.7,2.2c-1.4,0-2.5-1.2-2.5-2.5c0-0.7,0.4-1.6,0.4-1.6l8.4-19.6c0.5-1.3,1.8-2.5,3.8-2.5
		C80.1,23.1,81.4,24.4,81.9,25.7z M74.3,38.4l7.6,0l-3.7-9.3l-0.2,0L74.3,38.4z"/>
	<path class="st6" d="M103.4,43.4c0-2.5-10.9-0.4-10.9-7c0-3.2,2.6-5.8,7.9-5.8c4.9,0,7.5,2.6,7.5,4.2c0,1.2-0.9,2.1-2.1,2.1
		c-0.9,0-1.9-0.9-1.9-0.9s-1.4-1.2-3.5-1.2c-2.5,0-3.2,0.7-3.2,1.6c0,2.5,10.9,0.4,10.9,7c0,3.5-2.6,6.1-8.4,6.1
		c-5.1,0-8.1-3-8.1-4.6c0-1.2,0.9-2.1,2.1-2.1c1.1,0,1.6,0.5,2.1,1.1c0.5,0.5,1.4,1.4,3.9,1.4C102.6,45.3,103.4,44.4,103.4,43.4z"/>
	<path class="st6" d="M111.5,33.2c0-1.2,1.1-2.3,2.3-2.3c1.4,0,2.3,0.9,2.3,1.5h0.2c0,0,1.4-1.9,4.9-1.9c4.4,0,7.9,3.5,7.9,8.1
		l0,2.8c0,4.6-3.5,8-7.9,8c-3.5,0-4.9-2-4.9-2H116l0,6.1c0,1.2-1.1,2.3-2.3,2.3c-1.2,0-2.3-1-2.3-2.3L111.5,33.2z M124.5,41.5l0-2.8
		c0-2.3-1.6-3.9-4.2-3.9c-2.6,0-4.2,1.6-4.2,3.8l0,2.8c0,2.3,1.6,3.9,4.2,3.9C122.9,45.3,124.5,43.8,124.5,41.5z"/>
	<path class="st6" d="M135,23.8c1.6,0,2.6,1.1,2.6,2.5c0,1.4-1.1,2.5-2.6,2.4c-1.6,0-2.6-1.1-2.6-2.5
		C132.4,24.9,133.4,23.8,135,23.8z M137.3,46.9c0,1.2-1.1,2.3-2.3,2.3c-1.2,0-2.3-1.1-2.3-2.3l0-13.7c0-1.2,1.1-2.3,2.3-2.3
		c1.2,0,2.3,1.1,2.3,2.3L137.3,46.9z"/>
	<path class="st6" d="M146,47c0,1.2-1.1,2.3-2.3,2.3s-2.3-1.1-2.3-2.3l0-13.7c0-1.2,1.1-2.3,2.3-2.3c1.4,0,2.3,0.9,2.3,1.6l0.2,0
		c0,0,1.4-1.9,4.7-1.9c2.8,0,4.2,1.4,4.2,2.8c0,1.2-0.9,2.1-2.1,2.1c-1.1,0-1.2-0.7-3-0.7c-2.3,0-4,1.6-4,3.8L146,47z"/>
	<path class="st6" d="M155.7,43.5c0-3.3,2.3-5.8,7.9-5.8l4.4,0c0-1.7-1.2-2.8-3.9-2.8c-2.1,0-3.2,0.9-3.2,0.9s-1.1,0.9-1.9,0.9
		c-1.2,0-2.1-0.9-2.1-2.1c0-1.6,2.1-3.9,7.2-3.8c5.3,0,8.4,3,8.4,7.1l0,9.3c0,1.2-1.1,2.3-2.3,2.3c-1.4,0-2.3-0.9-2.3-1.6l-0.2,0
		c0,0-1.4,1.9-4.9,1.9C158.5,49.6,155.7,46.8,155.7,43.5z M168,42.3l0-0.7l-4.4,0c-2.3,0-3.2,0.9-3.2,1.9c0,1.1,0.9,1.9,3.2,1.9
		C166.4,45.4,168,44,168,42.3z"/>
	<path class="st6" d="M180.8,32.7c0,0,1.4-1.9,4.7-1.9c4.2,0,7.7,3.5,7.7,8.1l0,8.2c0,1.2-0.9,2.3-2.3,2.3c-1.4,0-2.3-1.1-2.3-2.3
		l0-8.2c0-2.3-1.6-3.9-4-3.9c-2.3,0-4,1.6-4,3.8l0,8.2c0,1.2-1.1,2.3-2.3,2.3c-1.2,0-2.3-1.1-2.3-2.3l0-13.7c0-1.2,1.1-2.3,2.3-2.3
		c1.4,0,2.3,0.9,2.3,1.6L180.8,32.7z"/>
	<path class="st6" d="M201,42.2c0,1.8,1.6,3.3,4.2,3.3c2.5,0,3.3-0.7,3.9-1.2c0.4-0.3,0.9-0.9,1.9-0.9c1.2,0,2.1,0.9,2.1,2.1
		c0,1.6-2.6,4.2-7.9,4.2c-5.1,0-8.8-3.7-8.7-8.1l0-2.8c0-4.6,3.5-8.1,8.8-8c4.9,0,8.4,3.5,8.4,8.1l0,1.1c0,1.2-0.9,2.3-2.3,2.3
		L201,42.2z M209,38.3c0-1.8-1.6-3.3-3.9-3.3c-2.6,0-4.2,1.6-4.2,3.3L209,38.3z"/>
	<path class="st6" d="M217.3,31.5l0.7,0l0-2.5c0-1.2,1.1-2.3,2.3-2.3c1.2,0,2.3,1.1,2.3,2.3l0,2.5l3.9,0c1.2,0,2.1,0.7,2.1,2.1
		c0,1.2-0.9,2.1-2.1,2.1l-3.9,0l0,7.4c0,1.8,1.3,2.5,2.8,2.5c0.7,0,1.2-0.3,1.2-0.3s0.5-0.3,1.2-0.3c1.2,0,2.1,0.9,2.1,2.1
		c0,1.4-1.4,2.8-5.1,2.8c-4,0-6.8-2.9-6.8-6.7l0-7.4l-0.7,0c-1.2,0-2.1-0.9-2.1-2.1C215.2,32.4,216.1,31.5,217.3,31.5z"/>
	<ellipse transform="matrix(0.3872 -0.922 0.922 0.3872 -0.8414 37.7459)" class="st5" cx="28" cy="19.5" rx="5.6" ry="5.6"/>
	<ellipse transform="matrix(0.3889 -0.9213 0.9213 0.3889 16.464 51.9244)" class="st6" cx="47.4" cy="13.6" rx="7.6" ry="7.6"/>
	<g>
		<path class="st8" d="M134,63.1c0,0.4-0.3,0.7-0.7,0.7c-0.5,0-0.7-0.3-0.7-0.7v-5.9c0-0.4,0.3-0.7,0.7-0.7c0.4,0,0.7,0.3,0.7,0.7
			v2.3h3.3v-2.3c0-0.4,0.3-0.7,0.7-0.7c0.4,0,0.7,0.3,0.7,0.7v5.9c0,0.4-0.3,0.7-0.7,0.7c-0.5,0-0.7-0.3-0.7-0.7v-2.4H134V63.1z"/>
		<path class="st8" d="M147.7,60.9c0,1.7-1.4,3-3.3,3c-1.9,0-3.3-1.4-3.3-3v-1.7c0-1.7,1.4-3,3.3-3c1.9,0,3.3,1.4,3.3,3V60.9z
			 M146.3,60.9v-1.7c0-0.9-0.7-1.7-1.8-1.7c-1.1,0-1.8,0.7-1.8,1.7v1.7c0,0.9,0.7,1.7,1.8,1.7C145.5,62.6,146.3,61.9,146.3,60.9z"/>
		<path class="st8" d="M153.3,56.5c1.8,0,2.9,1.1,2.9,2.5s-1.1,2.5-2.9,2.5h-1.7v1.6c0,0.4-0.3,0.7-0.7,0.7c-0.4,0-0.7-0.3-0.7-0.7
			v-5.9c0-0.4,0.3-0.7,0.7-0.7H153.3z M153.3,57.8h-1.7v2.3h1.7c0.9,0,1.4-0.5,1.4-1.1C154.7,58.3,154.2,57.8,153.3,57.8z"/>
		<path class="st8" d="M159.8,57.8v1.7h2.8c0.4,0,0.6,0.3,0.6,0.6c0,0.4-0.3,0.6-0.6,0.6h-2.8v1.7h3.8c0.4,0,0.7,0.3,0.7,0.7
			c0,0.4-0.3,0.7-0.7,0.7h-4.5c-0.4,0-0.7-0.3-0.7-0.7v-5.8c0-0.4,0.3-0.7,0.7-0.7h4.4c0.4,0,0.7,0.3,0.7,0.7c0,0.4-0.3,0.7-0.7,0.7
			H159.8z"/>
		<path class="st8" d="M171.6,57.8v1.9h2.4c0.4,0,0.7,0.3,0.7,0.7c0,0.4-0.3,0.7-0.7,0.7h-2.4v2c0,0.4-0.3,0.7-0.7,0.7
			c-0.4,0-0.7-0.3-0.7-0.7v-5.9c0-0.4,0.3-0.7,0.7-0.7h4.4c0.4,0,0.7,0.3,0.7,0.7c0,0.4-0.3,0.7-0.7,0.7H171.6z"/>
		<path class="st8" d="M183.8,60.9c0,1.7-1.4,3-3.3,3c-1.9,0-3.3-1.4-3.3-3v-1.7c0-1.7,1.4-3,3.3-3c1.9,0,3.3,1.4,3.3,3V60.9z
			 M182.4,60.9v-1.7c0-0.9-0.7-1.7-1.8-1.7c-1.1,0-1.8,0.7-1.8,1.7v1.7c0,0.9,0.7,1.7,1.8,1.7C181.6,62.6,182.4,61.9,182.4,60.9z"/>
		<path class="st8" d="M189.7,56.5c1.6,0,2.7,1,2.7,2.3c0,1.5-1.4,2-1.4,2v0.1l1.5,1.8c0,0,0.2,0.3,0.2,0.5c0,0.4-0.3,0.7-0.7,0.7
			c-0.4,0-0.6-0.3-0.6-0.3l-2-2.5h-1.7v2c0,0.4-0.3,0.7-0.7,0.7c-0.4,0-0.7-0.3-0.7-0.7v-5.9c0-0.4,0.3-0.7,0.7-0.7H189.7z
			 M189.7,57.8h-1.9v1.9h1.9c0.7,0,1.1-0.4,1.1-0.9C190.8,58.2,190.4,57.8,189.7,57.8z"/>
		<path class="st8" d="M204.6,57.1c0,0.2-0.1,0.5-0.1,0.5l-1.6,5.4c-0.2,0.6-0.5,0.9-1.1,0.9c-0.6,0-1-0.4-1.1-0.9l-1.2-4.4h-0.1
			l-1.2,4.4c-0.1,0.5-0.5,0.9-1.2,0.9c-0.6,0-1-0.4-1.1-0.9l-1.6-5.4c0,0-0.1-0.3-0.1-0.5c0-0.4,0.3-0.7,0.7-0.7
			c0.4,0,0.6,0.3,0.7,0.6l1.5,5h0.1l1.3-4.7c0.1-0.5,0.5-0.9,1-0.9c0.6,0,0.9,0.4,1,0.9l1.3,4.7h0.1l1.5-5c0.1-0.3,0.4-0.6,0.7-0.6
			C204.3,56.4,204.6,56.7,204.6,57.1z"/>
		<path class="st8" d="M210.5,57l2.4,5.6c0,0,0.1,0.3,0.1,0.5c0,0.4-0.3,0.7-0.7,0.7c-0.4,0-0.6-0.2-0.8-0.6L211,62h-3.2l-0.5,1.2
			c-0.2,0.4-0.4,0.6-0.8,0.6c-0.4,0-0.7-0.3-0.7-0.7c0-0.2,0.1-0.5,0.1-0.5l2.4-5.6c0.2-0.4,0.5-0.7,1.1-0.7S210.3,56.6,210.5,57z
			 M208.3,60.6h2.2l-1.1-2.7h-0.1L208.3,60.6z"/>
		<path class="st8" d="M218.3,56.5c1.6,0,2.7,1,2.7,2.3c0,1.5-1.4,2-1.4,2v0.1l1.5,1.8c0,0,0.2,0.3,0.2,0.5c0,0.4-0.3,0.7-0.7,0.7
			c-0.4,0-0.6-0.3-0.6-0.3l-2-2.5h-1.7v2c0,0.4-0.3,0.7-0.7,0.7c-0.4,0-0.7-0.3-0.7-0.7v-5.9c0-0.4,0.3-0.7,0.7-0.7H218.3z
			 M218.3,57.8h-1.9v1.9h1.9c0.7,0,1.1-0.4,1.1-0.9C219.5,58.2,219.1,57.8,218.3,57.8z"/>
		<path class="st8" d="M226.2,56.5c2,0,3.3,1.4,3.3,3v1.2c0,1.7-1.4,3-3.3,3h-2.1c-0.4,0-0.7-0.3-0.7-0.7v-5.8
			c0-0.4,0.3-0.7,0.7-0.7H226.2z M226.2,62.4c1.1,0,1.9-0.7,1.9-1.7v-1.2c0-0.9-0.7-1.7-1.9-1.7h-1.4v4.6H226.2z"/>
	</g>
</g>
</svg>
