<?xml version="1.0" encoding="UTF-8" standalone="no"?>
<svg width="136px" height="136px" viewBox="0 0 136 136" version="1.1" xmlns="http://www.w3.org/2000/svg" xmlns:xlink="http://www.w3.org/1999/xlink">
    <!-- Generator: Sketch 41.2 (35397) - http://www.bohemiancoding.com/sketch -->
    <title>Page 1</title>
    <desc>Created with Sketch.</desc>
    <defs></defs>
    <g id="Visual_Design" stroke="none" stroke-width="1" fill="none" fill-rule="evenodd">
        <g id="2_Donate-1" transform="translate(-1065.000000, -1329.000000)">
            <g id="Page-1" transform="translate(1065.000000, 1329.000000)">
                <path d="M135.9932,67.9966 C135.9932,105.55041 105.550248,135.993362 67.9964381,135.993362 C30.4426286,135.993362 -0.000323809524,105.55041 -0.000323809524,67.9966 C-0.000323809524,30.4427905 30.4426286,-0.000161904762 67.9964381,-0.000161904762 C105.550248,-0.000161904762 135.9932,30.4427905 135.9932,67.9966" id="Fill-1" fill="#107395"></path>
                <path d="M33.6449429,35.2403524 L33.6449429,35.2403524 C33.1446571,35.3374952 32.7852286,35.7794952 32.7965619,36.2846381 L32.7965619,43.5994952 L25.4833238,43.5994952 C25.4169429,43.593019 25.352181,43.593019 25.2858,43.5994952 C24.808181,43.691781 24.4260857,44.1532095 24.437419,44.643781 L24.437419,96.8872095 C24.437419,97.4360667 24.9328476,97.9314952 25.4833238,97.9314952 L57.8723714,97.9314952 C62.9610381,97.9314952 66.5083714,99.7934 68.4188476,103.612733 C68.7523714,104.33159 69.9812286,104.33159 70.3131333,103.612733 C72.2236095,99.7934 75.7725619,97.9314952 80.8596095,97.9314952 L113.250276,97.9314952 C113.800752,97.9314952 114.294562,97.4360667 114.294562,96.8872095 L114.294562,44.643781 C114.294562,44.0933048 113.800752,43.5994952 113.250276,43.5994952 L105.935419,43.5994952 L105.935419,36.2846381 C105.935419,35.7082571 105.467514,35.2403524 104.891133,35.2403524 L80.8596095,35.2403524 C76.0057048,35.2403524 71.3736095,38.2226381 69.3659905,42.3253048 C67.3583714,38.2226381 62.7262762,35.2403524 57.8723714,35.2403524 L33.8408476,35.2403524 C33.7760857,35.2354952 33.7097048,35.2354952 33.6449429,35.2403524" id="Fill-4" fill="#5BB69E"></path>
                <path d="M70.4112476,97.8450381 L70.4112476,48.475419 C70.4112476,43.7186571 75.5695333,39.0719905 80.8589619,39.0719905 L103.8462,39.0719905 L103.8462,89.2236095 L85.0393429,89.2236095 C78.6619143,89.2236095 73.2802,92.3305619 70.4112476,97.8450381" id="Fill-6" fill="#A2D8CB"></path>
                <path d="M68.3215429,97.8450381 C65.4525905,92.3305619 60.0708762,89.2236095 53.6934476,89.2236095 L34.8865905,89.2236095 L34.8865905,39.0719905 L57.8738286,39.0719905 C63.1632571,39.0719905 68.3215429,43.7186571 68.3215429,48.475419 L68.3215429,97.8450381" id="Fill-8" fill="#A2D8CB"></path>
            </g>
        </g>
    </g>
</svg>