<?xml version="1.0" encoding="UTF-8" standalone="no"?>
<svg width="185px" height="57px" viewBox="0 0 185 57" version="1.1" xmlns="http://www.w3.org/2000/svg" xmlns:xlink="http://www.w3.org/1999/xlink">
    <!-- Generator: Sketch 41.2 (35397) - http://www.bohemiancoding.com/sketch -->
    <title>Page 1</title>
    <desc>Created with Sketch.</desc>
    <defs>
        <polygon id="path-1" points="0 56.7034557 184.970115 56.7034557 184.970115 0 0 0"></polygon>
    </defs>
    <g id="Symbols" stroke="none" stroke-width="1" fill="none" fill-rule="evenodd">
        <g id="Fotter" transform="translate(-668.000000, -868.000000)">
            <g id="Group-2">
                <g id="Group-4" transform="translate(500.000000, 864.000000)">
                    <g id="Group-3">
                        <g id="Page-1" transform="translate(168.000000, 4.000000)">
                            <path d="M21.5761231,0.0057721519 L21.5761231,13.9642785 C19.6137,14.1258987 17.6968154,14.9599747 16.2047192,16.4780506 C14.7190269,17.9853038 13.8964885,19.9059873 13.7264308,21.8786203 L0.00583461539,21.8786203 L21.5761231,0.0057721519 Z" id="Fill-1" fill="#A3A436"></path>
                            <path d="M44.5928269,21.8786924 L30.8608462,21.8786924 C30.6907885,19.9060595 29.8625577,17.9846544 28.3825577,16.4781228 C26.8904615,14.9593253 24.9735769,14.1259709 23.0168462,13.9643506 L23.0168462,7.21518988e-05 L44.5928269,21.8786924 Z" id="Fill-3" fill="#FDB935"></path>
                            <path d="M21.5761231,31.3398987 L21.5761231,45.2183165 L0.000142307692,23.3396962 L13.7207385,23.3396962 C13.8737192,25.3411899 14.6962577,27.3022785 16.2047192,28.8318987 C17.6968154,30.3449241 19.6137,31.179 21.5761231,31.3398987" id="Fill-5" fill="#7B91C9"></path>
                            <path d="M44.5984481,23.3396241 L23.016775,45.2240165 L23.016775,31.3398266 C24.9735058,31.1789278 26.8903904,30.3448519 28.3824865,28.8325481 C29.8852558,27.3022063 30.7134865,25.3411177 30.8664673,23.3396241 L44.5984481,23.3396241 Z" id="Fill-7" fill="#6E439A"></path>
                            <path d="M61.4694519,10.5333835 C60.8176827,12.5485861 59.3682788,14.216738 56.0617596,14.216738 C52.2180288,14.216738 50.1332212,11.4915608 50.1332212,8.12206709 C50.1332212,4.76916835 52.4457212,1.99420633 56.142875,1.99420633 C59.482125,1.99420633 61.0624519,3.81099114 61.5185481,5.74321899 L59.8407404,5.74321899 C59.3355481,4.50437089 58.4069904,3.36509241 56.1265096,3.36509241 C53.4717596,3.36509241 51.8594135,5.3637 51.8594135,8.07228228 C51.8594135,10.7318013 53.4553942,12.829257 56.142875,12.829257 C58.325875,12.829257 59.1889712,11.8876747 59.824375,10.5333835 L61.4694519,10.5333835 Z" id="Fill-9" fill="#221F20"></path>
                            <path d="M68.7978,9.88913924 L66.8268385,9.88913924 C64.9377038,9.88913924 64.0418769,10.318443 64.0418769,11.4418481 C64.0418769,12.2672658 64.64455,12.9613671 66.0128385,12.9613671 C68.2114923,12.9613671 68.7978,11.6727342 68.7978,10.2527848 L68.7978,9.88913924 Z M70.3126654,11.9043418 C70.3126654,12.7131646 70.3617615,13.7709114 70.3937808,13.9686076 L68.9116462,13.9686076 C68.8468962,13.6713418 68.8305308,13.0277468 68.8141654,12.7463544 C68.3908,13.6056835 67.4458769,14.2002152 65.7033192,14.2002152 C63.3737423,14.2002152 62.5106462,12.7629494 62.5106462,11.5075063 C62.5106462,9.37686076 64.4325115,8.78232911 66.7941077,8.78232911 L68.7978,8.78232911 L68.7978,8.33643038 C68.7978,7.42803797 68.4071654,6.56943038 66.6475308,6.56943038 C65.0679154,6.56943038 64.7093,7.27940506 64.5299923,8.03916456 L62.9831077,8.03916456 C63.0805885,6.93307595 63.8134731,5.38036709 66.6475308,5.38036709 C69.6445308,5.38036709 70.3126654,6.8666962 70.3126654,8.23758228 L70.3126654,11.9043418 Z" id="Fill-11" fill="#221F20"></path>
                            <mask id="mask-2" fill="white">
                                <use xlink:href="#path-1"></use>
                            </mask>
                            <g id="Clip-14"></g>
                            <polygon id="Fill-13" fill="#221F20" mask="url(#mask-2)" points="72.2795 13.9686076 73.8270962 13.9686076 73.8270962 1.54837975 72.2795 1.54837975"></polygon>
                            <path d="M75.78525,13.9686076 L77.3328462,13.9686076 L77.3328462,5.61125316 L75.78525,5.61125316 L75.78525,13.9686076 Z M75.78525,3.4315443 L77.3328462,3.4315443 L77.3328462,1.54837975 L75.78525,1.54837975 L75.78525,3.4315443 Z" id="Fill-15" fill="#221F20" mask="url(#mask-2)"></path>
                            <path d="M79.8456442,13.9688241 L79.8456442,6.85031772 L78.2980481,6.85031772 L78.2980481,5.61146962 L79.8456442,5.61146962 L79.8456442,4.48806456 C79.8456442,2.58902658 80.6603558,1.41583671 82.5822212,1.41583671 C82.9892212,1.41583671 83.3314712,1.44902658 83.5591635,1.51540633 L83.5591635,2.80331772 C83.3478365,2.75425443 83.0219519,2.73765949 82.8262788,2.73765949 C81.719125,2.73765949 81.3932404,3.2167481 81.3932404,4.57103924 L81.3932404,5.61146962 L83.3151058,5.61146962 L83.3151058,6.85031772 L81.3932404,6.85031772 L81.3932404,13.9688241 L79.8456442,13.9688241 Z" id="Fill-16" fill="#221F20" mask="url(#mask-2)"></path>
                            <path d="M85.0556712,9.79000253 C85.0556712,11.3924962 86.0489788,12.9120152 87.8569981,12.9120152 C89.7468442,12.9120152 90.658325,11.4913443 90.658325,9.80659747 C90.658325,8.13844557 89.6650173,6.66871139 87.8242673,6.66871139 C85.9514981,6.66871139 85.0556712,8.12185063 85.0556712,9.79000253 M92.2550173,9.79000253 C92.2550173,12.1024709 90.7728827,14.1999266 87.8086135,14.1999266 C85.0229404,14.1999266 83.4589788,12.1024709 83.4589788,9.79000253 C83.4589788,7.39528101 85.1204212,5.38007848 87.8897288,5.38007848 C90.7401519,5.38007848 92.2550173,7.5771038 92.2550173,9.79000253" id="Fill-17" fill="#221F20" mask="url(#mask-2)"></path>
                            <path d="M93.7067692,7.89067595 C93.7067692,7.13091646 93.7067692,6.37115696 93.6904038,5.61139747 L95.2052692,5.61139747 C95.2216346,5.85887848 95.2543654,6.73480253 95.2543654,7.49456203 C95.7915769,6.20592911 96.9805577,5.36391646 98.5936154,5.38051139 L98.5936154,6.88271392 C96.7037692,6.86684051 95.2543654,8.02271392 95.2543654,10.4838152 L95.2543654,13.9687519 L93.7067692,13.9687519 L93.7067692,7.89067595 Z" id="Fill-18" fill="#221F20" mask="url(#mask-2)"></path>
                            <path d="M99.5908365,7.72559241 C99.5908365,7.01561772 99.5908365,6.23926329 99.5744712,5.61154177 L101.072971,5.61154177 C101.105702,5.89221266 101.137721,6.58631392 101.137721,7.16425063 C101.496337,6.35470633 102.359433,5.3806557 104.119067,5.3806557 C106.057298,5.3806557 107.311029,6.58631392 107.311029,8.88146582 L107.311029,13.9688962 L105.747779,13.9688962 L105.747779,9.16285823 C105.747779,7.79125063 105.242587,6.70103544 103.69499,6.70103544 C101.985163,6.70103544 101.137721,8.02285823 101.137721,9.95508608 L101.137721,13.9688962 L99.5908365,13.9688962 L99.5908365,7.72559241 Z" id="Fill-19" fill="#221F20" mask="url(#mask-2)"></path>
                            <path d="M109.280212,13.9686076 L110.827096,13.9686076 L110.827096,5.61125316 L109.280212,5.61125316 L109.280212,13.9686076 Z M109.280212,3.4315443 L110.827096,3.4315443 L110.827096,1.54837975 L109.280212,1.54837975 L109.280212,3.4315443 Z" id="Fill-20" fill="#221F20" mask="url(#mask-2)"></path>
                            <path d="M118.568279,9.88913924 L116.597317,9.88913924 C114.708183,9.88913924 113.811644,10.318443 113.811644,11.4418481 C113.811644,12.2672658 114.415029,12.9613671 115.783317,12.9613671 C117.981971,12.9613671 118.568279,11.6727342 118.568279,10.2527848 L118.568279,9.88913924 Z M120.083144,11.9043418 C120.083144,12.7131646 120.13224,13.7709114 120.164971,13.9686076 L118.682125,13.9686076 C118.617375,13.6713418 118.60101,13.0277468 118.584644,12.7463544 C118.161279,13.6056835 117.216356,14.2002152 115.473798,14.2002152 C113.144221,14.2002152 112.281125,12.7629494 112.281125,11.5075063 C112.281125,9.37686076 114.20299,8.78232911 116.564587,8.78232911 L118.568279,8.78232911 L118.568279,8.33643038 C118.568279,7.42803797 118.176933,6.56943038 116.41801,6.56943038 C114.838394,6.56943038 114.479779,7.27940506 114.301183,8.03916456 L112.753587,8.03916456 C112.851067,6.93307595 113.583952,5.38036709 116.41801,5.38036709 C119.41501,5.38036709 120.083144,6.8666962 120.083144,8.23758228 L120.083144,11.9043418 Z" id="Fill-21" fill="#221F20" mask="url(#mask-2)"></path>
                            <path d="M66.6168635,32.3601266 C64.3292673,26.7026962 63.2206904,23.7863165 62.6315365,21.9240759 L62.5966712,21.9240759 C62.0772481,23.750962 60.7601904,27.5107975 58.9237096,32.3601266 L66.6168635,32.3601266 Z M57.3988827,37.1741013 L55.2849019,42.7961772 L49.1863058,42.7961772 L58.9927288,18.0581772 L66.6168635,18.0581772 L76.9434212,42.7961772 L70.5324596,42.7961772 L68.245575,37.1741013 L57.3988827,37.1741013 Z" id="Fill-22" fill="#221F20" mask="url(#mask-2)"></path>
                            <polygon id="Fill-23" fill="#221F20" mask="url(#mask-2)" points="77.9483269 42.7961772 83.5965192 42.7961772 83.5965192 16.6173038 77.9483269 16.6173038"></polygon>
                            <polygon id="Fill-24" fill="#221F20" mask="url(#mask-2)" points="86.5600769 42.7961772 92.2082692 42.7961772 92.2082692 16.6173038 86.5600769 16.6173038"></polygon>
                            <path d="M95.1896154,42.7961772 L100.837808,42.7961772 L100.837808,24.6290506 L95.1896154,24.6290506 L95.1896154,42.7961772 Z M95.1896154,21.2205949 L100.837808,21.2205949 L100.837808,16.6173038 L95.1896154,16.6173038 L95.1896154,21.2205949 Z" id="Fill-25" fill="#221F20" mask="url(#mask-2)"></path>
                            <path d="M115.999838,34.8899165 C115.583588,34.8552835 114.371127,34.8552835 112.361031,34.8552835 C109.485704,34.8552835 108.34155,35.6280304 108.34155,37.0689038 C108.34155,38.2630177 109.277223,39.2125367 111.356338,39.2125367 C114.440858,39.2125367 115.999838,37.7716633 115.999838,35.1713089 L115.999838,34.8899165 Z M121.544146,37.7009544 C121.544146,40.0552709 121.648742,42.4103089 121.683608,42.7963215 L116.346358,42.7963215 C116.208319,42.3749544 116.173454,41.2501063 116.138588,40.7580304 C115.168762,42.3042456 113.1238,43.2883975 109.727627,43.2883975 C104.841492,43.2883975 102.866262,40.2659544 102.866262,37.3502962 C102.866262,32.6063089 106.990338,31.2707772 112.257146,31.2707772 L115.999838,31.2707772 L115.999838,30.7087139 C115.999838,29.2324861 115.375819,28.0383722 112.742415,28.0383722 C110.316781,28.0383722 109.762492,28.9518152 109.519858,30.0059544 L103.870954,30.0059544 C104.009704,27.7569797 105.569396,24.1378405 112.673396,24.1378405 C120.435569,24.1378405 121.544146,27.8623215 121.544146,30.884043 L121.544146,37.7009544 Z" id="Fill-26" fill="#221F20" mask="url(#mask-2)"></path>
                            <path d="M124.502794,29.2327747 C124.502794,27.6865595 124.502794,25.9296608 124.467929,24.6294835 L129.978083,24.6294835 C130.047102,25.1561924 130.116833,26.2456861 130.151698,26.9838 C130.982775,25.7189772 132.611487,24.1374076 136.111544,24.1374076 C140.51241,24.1374076 143.11166,26.9138127 143.11166,31.5870911 L143.11166,42.7966101 L137.393737,42.7966101 L137.393737,32.5005342 C137.393737,30.4276101 136.596813,28.6000025 134.067294,28.6000025 C131.399025,28.6000025 130.185852,30.4629646 130.185852,33.7307241 L130.185852,42.7966101 L124.502794,42.7966101 L124.502794,29.2327747 Z" id="Fill-27" fill="#221F20" mask="url(#mask-2)"></path>
                            <path d="M164.498798,36.6473203 C163.770894,40.0911304 160.85999,43.288181 155.003317,43.288181 C148.107087,43.288181 145.058144,38.8962949 145.058144,33.6948646 C145.058144,28.7755481 148.523337,24.1376241 155.003317,24.1376241 C162.107317,24.1376241 164.152279,28.846257 164.360048,30.8491937 L158.711856,30.8491937 C158.364625,29.8650418 157.498683,28.4595228 155.038183,28.4595228 C152.127279,28.4595228 150.810221,30.6377886 150.810221,33.6602316 C150.810221,36.5766114 152.023394,38.9662823 155.038183,38.9662823 C157.048279,38.9662823 158.12199,38.1928139 158.849894,36.6473203 L164.498798,36.6473203 Z" id="Fill-28" fill="#221F20" mask="url(#mask-2)"></path>
                            <path d="M179.217612,31.5872354 C179.113727,30.2170709 178.385823,28.1787797 175.163265,28.1787797 C172.217496,28.1787797 171.108208,29.7949823 170.970169,31.5872354 L179.217612,31.5872354 Z M170.90115,35.1010329 C171.039188,37.3146532 172.598169,39.036919 175.301304,39.036919 C177.415285,39.036919 178.420688,38.3687924 179.078862,37.2446658 L184.761919,37.2446658 C183.653342,40.4770709 180.984362,43.2888304 175.232285,43.2888304 C167.88565,43.2888304 165.252246,38.3687924 165.252246,33.7308684 C165.252246,28.6355013 168.648419,24.1375519 175.197419,24.1375519 C182.162669,24.1375519 184.969688,29.0215139 184.969688,33.7308684 C184.969688,34.1868684 184.969688,34.5389696 184.934823,35.1010329 L170.90115,35.1010329 Z" id="Fill-29" fill="#221F20" mask="url(#mask-2)"></path>
                            <polygon id="Fill-30" fill="#221F20" mask="url(#mask-2)" points="53.0831173 52.5397861 50.4354827 52.5397861 50.4354827 54.6220899 53.3385596 54.6220899 53.2638481 55.1019 49.9018288 55.1019 49.9018288 49.7785329 53.2111942 49.7785329 53.2111942 50.2590646 50.4354827 50.2590646 50.4354827 52.0592544 53.0831173 52.0592544"></polygon>
                            <path d="M54.1507808,52.2573114 C54.1507808,51.9218051 54.1507808,51.5711468 54.1429538,51.2659443 L54.6317808,51.2659443 C54.6396077,51.387881 54.65455,51.6930835 54.6474346,51.9066532 C54.8125115,51.540843 55.1583192,51.1743114 55.7681077,51.1743114 C56.3017615,51.1743114 56.7002231,51.4412734 56.8432423,51.8987165 C57.0389154,51.5177544 57.4074923,51.1743114 58.0692231,51.1743114 C58.6633577,51.1743114 59.2574923,51.5256911 59.2574923,52.5783873 L59.2574923,55.1022608 L58.7608385,55.1022608 L58.7608385,52.6389949 C58.7608385,52.1584633 58.5886462,51.6396911 57.9340308,51.6396911 C57.2573577,51.6396911 56.94855,52.1815519 56.94855,52.8980203 L56.94855,55.1022608 L56.4597231,55.1022608 L56.4597231,52.6541468 C56.4597231,52.1202228 56.3017615,51.6396911 55.6549731,51.6396911 C54.9783,51.6396911 54.6474346,52.2270076 54.6474346,52.9817165 L54.6474346,55.1022608 L54.1507808,55.1022608 L54.1507808,52.2573114 Z" id="Fill-31" fill="#221F20" mask="url(#mask-2)"></path>
                            <path d="M62.1227865,51.6321152 C61.2653827,51.6321152 60.919575,52.1811911 60.919575,53.1725582 C60.919575,54.1408367 61.1977865,54.7440266 62.0701327,54.7440266 C62.8151135,54.7440266 63.2206904,54.1105329 63.2206904,53.1040139 C63.2206904,52.2497354 62.8222288,51.6321152 62.1227865,51.6321152 L62.1227865,51.6321152 Z M60.4456904,56.6279127 L60.4456904,52.2035582 C60.4456904,51.891862 60.4456904,51.5556342 60.4378635,51.2655835 L60.9266904,51.2655835 C60.9423442,51.4033937 60.9494596,51.6321152 60.9494596,51.9142291 C61.1679019,51.4870899 61.5663635,51.1746722 62.2359212,51.1746722 C63.1232096,51.1746722 63.7472288,51.9221658 63.7472288,53.0809253 C63.7472288,54.4611911 63.0179019,55.1935329 62.1000173,55.1935329 C61.4610558,55.1935329 61.1301904,54.911419 60.9494596,54.5759127 L60.9494596,56.6279127 L60.4456904,56.6279127 Z" id="Fill-32" fill="#221F20" mask="url(#mask-2)"></path>
                            <path d="M64.9277423,53.1801342 C64.9277423,54.0647165 65.3866846,54.7436658 66.1309538,54.7436658 C66.8908769,54.7436658 67.3192231,54.1108937 67.3192231,53.1880709 C67.3192231,52.2955519 66.8979923,51.6245392 66.1160115,51.6245392 C65.3190885,51.6245392 64.9277423,52.2804 64.9277423,53.1801342 M67.8457615,53.172919 C67.8457615,54.2631342 67.2438,55.1938937 66.1010692,55.1938937 C65.0479923,55.1938937 64.4090308,54.3396152 64.4090308,53.1880709 C64.4090308,52.0740456 65.0252231,51.1743114 66.1387808,51.1743114 C67.1690885,51.1743114 67.8457615,51.9672608 67.8457615,53.172919" id="Fill-33" fill="#221F20" mask="url(#mask-2)"></path>
                            <path d="M68.8609846,51.2659443 C69.3796962,53.1649823 69.6735615,54.2479823 69.7411577,54.6137924 L69.7482731,54.6137924 C69.8087538,54.2862228 70.1396192,53.1880709 70.7038692,51.2659443 L71.2225808,51.2659443 C71.8693692,53.5466658 72.0650423,54.2025266 72.1326385,54.5221595 L72.1404654,54.5221595 C72.2379462,54.1108937 72.4037346,53.5315139 73.0498115,51.2659443 L73.57635,51.2659443 L72.3887923,55.1022608 L71.8394846,55.1022608 C71.4559654,53.7212734 71.0197923,52.2270076 70.9443692,51.8453241 L70.9372538,51.8453241 C70.8618308,52.2421595 70.4704846,53.5235772 70.0115423,55.1022608 L69.43235,55.1022608 L68.3273308,51.2659443 L68.8609846,51.2659443 Z" id="Fill-34" fill="#221F20" mask="url(#mask-2)"></path>
                            <path d="M76.7426962,52.8677886 C76.7348692,52.1657506 76.3741192,51.608738 75.6746769,51.608738 C74.94535,51.608738 74.6216,52.1202949 74.5468885,52.8677886 L76.7426962,52.8677886 Z M74.5241192,53.2646241 C74.5241192,54.1564215 74.9674077,54.743738 75.6597346,54.743738 C76.3214654,54.743738 76.5399077,54.3772063 76.6679846,54.080662 L77.1788692,54.080662 C77.0209077,54.5835608 76.6224462,55.1939658 75.6447923,55.1939658 C74.4714654,55.1939658 74.0125231,54.2025987 74.0125231,53.2184468 C74.0125231,52.105143 74.5618308,51.1743835 75.6825038,51.1743835 C76.8778885,51.1743835 77.2614077,52.1816241 77.2614077,52.9435481 C77.2614077,53.0582696 77.2614077,53.1650544 77.2542923,53.2646241 L74.5241192,53.2646241 Z" id="Fill-35" fill="#221F20" mask="url(#mask-2)"></path>
                            <path d="M78.1487673,52.3106316 C78.1487673,51.7161 78.1409404,51.4260494 78.1409404,51.2658722 L78.6297673,51.2658722 C78.6454212,51.3805937 78.6525365,51.6554924 78.6525365,52.0898468 C78.8631519,51.5407709 79.3299212,51.1973278 79.9461135,51.1742392 L79.9461135,51.7009481 C79.1641327,51.7391886 78.6525365,52.2269354 78.6525365,53.1649101 L78.6525365,55.1021886 L78.1487673,55.1021886 L78.1487673,52.3106316 Z" id="Fill-36" fill="#221F20" mask="url(#mask-2)"></path>
                            <path d="M80.6308269,55.1024051 L81.1345962,55.1024051 L81.1345962,51.2660886 L80.6308269,51.2660886 L80.6308269,55.1024051 Z M80.6308269,50.2747215 L81.1345962,50.2747215 L81.1345962,49.4889873 L80.6308269,49.4889873 L80.6308269,50.2747215 Z" id="Fill-37" fill="#221F20" mask="url(#mask-2)"></path>
                            <path d="M82.3227231,52.2348 C82.3227231,51.8985722 82.3227231,51.5637873 82.3148962,51.2658 L82.8037231,51.2658 C82.8193769,51.3805215 82.8343192,51.8379646 82.8264923,51.9519646 C82.9844538,51.5861544 83.29255,51.1741671 84.0524731,51.1741671 C84.7448,51.1741671 85.3239923,51.5789392 85.3239923,52.6236987 L85.3239923,55.1021165 L84.8195115,55.1021165 L84.8195115,52.692243 C84.8195115,52.0587494 84.5640692,51.6402684 83.94005,51.6402684 C83.1274731,51.6402684 82.8264923,52.3033443 82.8264923,53.1114456 L82.8264923,55.1021165 L82.3227231,55.1021165 L82.3227231,52.2348 Z" id="Fill-38" fill="#221F20" mask="url(#mask-2)"></path>
                            <path d="M87.8730788,54.6370975 C88.7603673,54.6370975 89.0236365,54.0425658 89.0236365,53.1118063 C89.0236365,52.1658949 88.7532519,51.6240342 87.8958481,51.6240342 C87.0982135,51.6240342 86.7445788,52.3109203 86.7445788,53.1651987 C86.7445788,54.0266924 87.1885788,54.6370975 87.8730788,54.6370975 L87.8730788,54.6370975 Z M89.4975212,54.8044899 C89.4975212,56.0325152 88.9788096,56.7035278 87.8133096,56.7035278 C86.7602327,56.7035278 86.3767135,56.1010595 86.2934635,55.5447684 L86.8050596,55.5447684 C86.9331365,56.0253 87.3166558,56.2612367 87.8353673,56.2612367 C88.7681942,56.2612367 89.0086942,55.6587684 89.0086942,54.7287304 L89.0086942,54.3694139 C88.8059058,54.8355152 88.4444442,55.0945405 87.7827135,55.0945405 C86.8726558,55.0945405 86.2180404,54.3470468 86.2180404,53.1882873 C86.2180404,51.9140848 86.9402519,51.1745278 87.8431942,51.1745278 C88.5952904,51.1745278 88.9105019,51.5324013 89.0086942,51.8152367 C89.0165212,51.616819 89.0314635,51.349857 89.0385788,51.2661608 L89.5124635,51.2661608 C89.5124635,51.4414899 89.4975212,52.0057177 89.4975212,52.3715278 L89.4975212,54.8044899 Z" id="Fill-39" fill="#221F20" mask="url(#mask-2)"></path>
                            <polygon id="Fill-40" fill="#221F20" mask="url(#mask-2)" points="92.6102885 55.1024051 93.1140577 55.1024051 93.1140577 49.4889873 92.6102885 49.4889873"></polygon>
                            <path d="M94.3030385,55.1024051 L94.8068077,55.1024051 L94.8068077,51.2660886 L94.3030385,51.2660886 L94.3030385,55.1024051 Z M94.3030385,50.2747215 L94.8068077,50.2747215 L94.8068077,49.4889873 L94.3030385,49.4889873 L94.3030385,50.2747215 Z" id="Fill-41" fill="#221F20" mask="url(#mask-2)"></path>
                            <path d="M96.0848731,51.2659443 C96.6491231,52.9362608 97.0475846,54.1260456 97.1827769,54.6058557 L97.1906038,54.6058557 C97.2731423,54.255919 97.6872577,53.1115899 98.3489885,51.2659443 L98.8677,51.2659443 L97.4538731,55.1022608 L96.8825077,55.1022608 L95.5433923,51.2659443 L96.0848731,51.2659443 Z" id="Fill-42" fill="#221F20" mask="url(#mask-2)"></path>
                            <path d="M102.011348,52.8677886 C102.003521,52.1657506 101.642771,51.608738 100.942617,51.608738 C100.21329,51.608738 99.8902519,52.1202949 99.8148288,52.8677886 L102.011348,52.8677886 Z M99.7927712,53.2646241 C99.7927712,54.1564215 100.23606,54.743738 100.927675,54.743738 C101.590117,54.743738 101.807848,54.3772063 101.935925,54.080662 L102.447521,54.080662 C102.28956,54.5835608 101.890387,55.1939658 100.912733,55.1939658 C99.7401173,55.1939658 99.281175,54.2025987 99.281175,53.2184468 C99.281175,52.105143 99.8297712,51.1743835 100.950444,51.1743835 C102.14654,51.1743835 102.53006,52.1816241 102.53006,52.9435481 C102.53006,53.0582696 102.53006,53.1650544 102.522944,53.2646241 L99.7927712,53.2646241 Z" id="Fill-43" fill="#221F20" mask="url(#mask-2)"></path>
                            <path d="M103.635933,54.0265481 C103.756183,54.4839911 104.087048,54.7668266 104.643471,54.7668266 C105.260375,54.7668266 105.508702,54.4839911 105.508702,54.0878772 C105.508702,53.6831051 105.335087,53.4926241 104.54599,53.3028646 C103.514971,53.0503329 103.282298,52.7299785 103.282298,52.219143 C103.282298,51.685219 103.68076,51.1743835 104.58299,51.1743835 C105.493048,51.1743835 105.900048,51.7234595 105.959817,52.2653203 L105.463163,52.2653203 C105.403394,51.9752696 105.177125,51.6015228 104.568048,51.6015228 C103.966798,51.6015228 103.793894,51.8987886 103.793894,52.1816241 C103.793894,52.501257 103.959683,52.6614342 104.681183,52.8367633 C105.786913,53.1044468 106.03524,53.4774722 106.03524,54.0496367 C106.03524,54.7358013 105.493048,55.1939658 104.628529,55.1939658 C103.710644,55.1939658 103.229644,54.7134342 103.132163,54.0265481 L103.635933,54.0265481 Z" id="Fill-44" fill="#221F20" mask="url(#mask-2)"></path>
                            <polygon id="Fill-45" fill="#221F20" mask="url(#mask-2)" points="106.877346 55.1024051 107.396058 55.1024051 107.396058 54.0576456 106.877346 54.0576456"></polygon>
                            <polygon id="Fill-46" fill="#221F20" mask="url(#mask-2)" points="113.660158 52.5397861 111.013235 52.5397861 111.013235 54.6220899 113.916312 54.6220899 113.840888 55.1019 110.478869 55.1019 110.478869 49.7785329 113.788235 49.7785329 113.788235 50.2590646 111.013235 50.2590646 111.013235 52.0592544 113.660158 52.0592544"></polygon>
                            <path d="M114.728604,52.2348 C114.728604,51.8985722 114.728604,51.5637873 114.720777,51.2658 L115.209604,51.2658 C115.224546,51.3805215 115.2402,51.8379646 115.232373,51.9519646 C115.390335,51.5861544 115.698431,51.1741671 116.458354,51.1741671 C117.149969,51.1741671 117.729162,51.5789392 117.729162,52.6236987 L117.729162,55.1021165 L117.225392,55.1021165 L117.225392,52.692243 C117.225392,52.0587494 116.96995,51.6402684 116.345219,51.6402684 C115.533354,51.6402684 115.232373,52.3033443 115.232373,53.1114456 L115.232373,55.1021165 L114.728604,55.1021165 L114.728604,52.2348 Z" id="Fill-47" fill="#221F20" mask="url(#mask-2)"></path>
                            <path d="M118.910031,52.3106316 C118.910031,51.7161 118.902204,51.4260494 118.902204,51.2658722 L119.391031,51.2658722 C119.405973,51.3805937 119.4138,51.6554924 119.4138,52.0898468 C119.624415,51.5407709 120.090473,51.1973278 120.707377,51.1742392 L120.707377,51.7009481 C119.925396,51.7391886 119.4138,52.2269354 119.4138,53.1649101 L119.4138,55.1021886 L118.910031,55.1021886 L118.910031,52.3106316 Z" id="Fill-48" fill="#221F20" mask="url(#mask-2)"></path>
                            <path d="M121.392019,55.1024051 L121.895788,55.1024051 L121.895788,51.2660886 L121.392019,51.2660886 L121.392019,55.1024051 Z M121.392019,50.2747215 L121.895788,50.2747215 L121.895788,49.4889873 L121.392019,49.4889873 L121.392019,50.2747215 Z" id="Fill-49" fill="#221F20" mask="url(#mask-2)"></path>
                            <path d="M125.956752,53.9507165 C125.783137,54.6217291 125.347675,55.1938937 124.444733,55.1938937 C123.459963,55.1938937 122.797521,54.4615519 122.797521,53.2032228 C122.797521,52.1353747 123.376713,51.1743114 124.490271,51.1743114 C125.512752,51.1743114 125.896271,51.9066532 125.956752,52.4254253 L125.452983,52.4254253 C125.347675,52.0055013 125.083694,51.6245392 124.482444,51.6245392 C123.74529,51.6245392 123.32406,52.2652481 123.32406,53.1801342 C123.32406,54.0805899 123.723233,54.7436658 124.45256,54.7436658 C124.971271,54.7436658 125.272252,54.4767038 125.452983,53.9507165 L125.956752,53.9507165 Z" id="Fill-50" fill="#221F20" mask="url(#mask-2)"></path>
                            <path d="M127.302698,49.4887709 L127.302698,51.8755557 C127.506198,51.5025304 127.866948,51.1742392 128.521563,51.1742392 C129.085102,51.1742392 129.799487,51.4794418 129.799487,52.6540747 L129.799487,55.1021886 L129.296429,55.1021886 L129.296429,52.7529228 C129.296429,52.0364544 128.987621,51.639619 128.393487,51.639619 C127.671275,51.639619 127.302698,52.1049987 127.302698,52.9816443 L127.302698,55.1021886 L126.798929,55.1021886 L126.798929,49.4887709 L127.302698,49.4887709 Z" id="Fill-51" fill="#221F20" mask="url(#mask-2)"></path>
                            <path d="M130.980712,55.1024051 L131.484481,55.1024051 L131.484481,51.2660886 L130.980712,51.2660886 L130.980712,55.1024051 Z M130.980712,50.2747215 L131.484481,50.2747215 L131.484481,49.4889873 L130.980712,49.4889873 L130.980712,50.2747215 Z" id="Fill-52" fill="#221F20" mask="url(#mask-2)"></path>
                            <path d="M132.672252,52.2348 C132.672252,51.8985722 132.672252,51.5637873 132.664425,51.2658 L133.153252,51.2658 C133.168194,51.3805215 133.183848,51.8379646 133.176021,51.9519646 C133.333983,51.5861544 133.642079,51.1741671 134.402002,51.1741671 C135.093617,51.1741671 135.67281,51.5789392 135.67281,52.6236987 L135.67281,55.1021165 L135.16904,55.1021165 L135.16904,52.692243 C135.16904,52.0587494 134.913598,51.6402684 134.288867,51.6402684 C133.477002,51.6402684 133.176021,52.3033443 133.176021,53.1114456 L133.176021,55.1021165 L132.672252,55.1021165 L132.672252,52.2348 Z" id="Fill-53" fill="#221F20" mask="url(#mask-2)"></path>
                            <path d="M138.222892,54.6370975 C139.110181,54.6370975 139.37345,54.0425658 139.37345,53.1118063 C139.37345,52.1658949 139.103065,51.6240342 138.245662,51.6240342 C137.448027,51.6240342 137.094392,52.3109203 137.094392,53.1651987 C137.094392,54.0266924 137.538392,54.6370975 138.222892,54.6370975 L138.222892,54.6370975 Z M139.847335,54.8044899 C139.847335,56.0325152 139.328623,56.7035278 138.162412,56.7035278 C137.109335,56.7035278 136.726527,56.1010595 136.643277,55.5447684 L137.154873,55.5447684 C137.28295,56.0253 137.666469,56.2612367 138.185181,56.2612367 C139.118008,56.2612367 139.358508,55.6587684 139.358508,54.7287304 L139.358508,54.3694139 C139.155719,54.8355152 138.794258,55.0945405 138.132527,55.0945405 C137.222469,55.0945405 136.568565,54.3470468 136.568565,53.1882873 C136.568565,51.9140848 137.290065,51.1745278 138.193008,51.1745278 C138.944392,51.1745278 139.261027,51.5324013 139.358508,51.8152367 C139.366335,51.616819 139.381277,51.349857 139.388392,51.2661608 L139.862277,51.2661608 C139.862277,51.4414899 139.847335,52.0057177 139.847335,52.3715278 L139.847335,54.8044899 Z" id="Fill-54" fill="#221F20" mask="url(#mask-2)"></path>
                            <path d="M143.065623,55.1021165 L143.065623,51.7088127 L142.433777,51.7088127 L142.433777,51.2658 L143.065623,51.2658 L143.065623,50.7549646 C143.065623,50.0839519 143.284065,49.4129392 144.125815,49.4129392 C144.253892,49.4129392 144.426796,49.4353063 144.517162,49.4663316 L144.517162,49.9237747 C144.419681,49.8934709 144.253892,49.8855342 144.148585,49.8855342 C143.727354,49.8855342 143.569392,50.1676481 143.569392,50.7859899 L143.569392,51.2658 L144.367027,51.2658 L144.367027,51.7088127 L143.569392,51.7088127 L143.569392,55.1021165 L143.065623,55.1021165 Z" id="Fill-55" fill="#221F20" mask="url(#mask-2)"></path>
                            <path d="M147.879038,53.9810203 C147.879038,54.3547671 147.886154,54.9189949 147.886154,55.1022608 L147.398038,55.1022608 C147.382385,55.0026911 147.375269,54.7588177 147.375269,54.4767038 C147.202365,54.9189949 146.825962,55.1938937 146.186288,55.1938937 C145.599981,55.1938937 144.93825,54.9269316 144.93825,53.7977544 L144.93825,51.2659443 L145.442019,51.2659443 L145.442019,53.6830329 C145.442019,54.2176785 145.607808,54.7285139 146.299423,54.7285139 C147.074288,54.7285139 147.375269,54.2862228 147.375269,53.2494 L147.375269,51.2659443 L147.879038,51.2659443 L147.879038,53.9810203 Z" id="Fill-56" fill="#221F20" mask="url(#mask-2)"></path>
                            <path d="M148.608508,51.2659443 L149.292296,51.2659443 L149.292296,50.0992481 L149.796777,50.0992481 L149.796777,51.2659443 L150.669123,51.2659443 L150.669123,51.7082354 L149.796777,51.7082354 L149.796777,54.0878051 C149.796777,54.4918557 149.887142,54.713362 150.240065,54.713362 C150.345373,54.713362 150.488392,54.7054253 150.601527,54.6751215 L150.601527,55.0871089 C150.458508,55.1405013 150.262835,55.1556532 150.089931,55.1556532 C149.555565,55.1556532 149.292296,54.8807544 149.292296,54.255919 L149.292296,51.7082354 L148.608508,51.7082354 L148.608508,51.2659443 Z" id="Fill-57" fill="#221F20" mask="url(#mask-2)"></path>
                            <path d="M154.233931,53.9810203 C154.233931,54.3547671 154.241046,54.9189949 154.241046,55.1022608 L153.752931,55.1022608 C153.737277,55.0026911 153.730162,54.7588177 153.730162,54.4767038 C153.557258,54.9189949 153.180854,55.1938937 152.541181,55.1938937 C151.954873,55.1938937 151.293142,54.9269316 151.293142,53.7977544 L151.293142,51.2659443 L151.796912,51.2659443 L151.796912,53.6830329 C151.796912,54.2176785 151.9627,54.7285139 152.654315,54.7285139 C153.429181,54.7285139 153.730162,54.2862228 153.730162,53.2494 L153.730162,51.2659443 L154.233931,51.2659443 L154.233931,53.9810203 Z" id="Fill-58" fill="#221F20" mask="url(#mask-2)"></path>
                            <path d="M155.414302,52.3106316 C155.414302,51.7161 155.406475,51.4260494 155.406475,51.2658722 L155.895302,51.2658722 C155.910244,51.3805937 155.918071,51.6554924 155.918071,52.0898468 C156.128687,51.5407709 156.594744,51.1973278 157.211648,51.1742392 L157.211648,51.7009481 C156.429667,51.7391886 155.918071,52.2269354 155.918071,53.1649101 L155.918071,55.1021886 L155.414302,55.1021886 L155.414302,52.3106316 Z" id="Fill-59" fill="#221F20" mask="url(#mask-2)"></path>
                            <path d="M160.332883,52.8677886 C160.325056,52.1657506 159.964306,51.608738 159.264152,51.608738 C158.534825,51.608738 158.211787,52.1202949 158.136363,52.8677886 L160.332883,52.8677886 Z M158.114306,53.2646241 C158.114306,54.1564215 158.557594,54.743738 159.24921,54.743738 C159.911652,54.743738 160.129383,54.3772063 160.25746,54.080662 L160.769056,54.080662 C160.611094,54.5835608 160.211921,55.1939658 159.234267,55.1939658 C158.061652,55.1939658 157.60271,54.2025987 157.60271,53.2184468 C157.60271,52.105143 158.151306,51.1743835 159.271979,51.1743835 C160.468075,51.1743835 160.851594,52.1816241 160.851594,52.9435481 C160.851594,53.0582696 160.851594,53.1650544 160.844479,53.2646241 L158.114306,53.2646241 Z" id="Fill-60" fill="#221F20" mask="url(#mask-2)"></path>
                            <path d="M161.956969,54.0265481 C162.077219,54.4839911 162.408085,54.7668266 162.964508,54.7668266 C163.581412,54.7668266 163.829738,54.4839911 163.829738,54.0878772 C163.829738,53.6831051 163.656123,53.4926241 162.867027,53.3028646 C161.836008,53.0503329 161.603335,52.7299785 161.603335,52.219143 C161.603335,51.685219 162.001796,51.1743835 162.904738,51.1743835 C163.814085,51.1743835 164.221085,51.7234595 164.280854,52.2653203 L163.7842,52.2653203 C163.724431,51.9752696 163.498162,51.6015228 162.889085,51.6015228 C162.287835,51.6015228 162.114931,51.8987886 162.114931,52.1816241 C162.114931,52.501257 162.280719,52.6614342 163.002219,52.8367633 C164.10795,53.1044468 164.355565,53.4774722 164.355565,54.0496367 C164.355565,54.7358013 163.814085,55.1939658 162.949565,55.1939658 C162.031681,55.1939658 161.550681,54.7134342 161.4532,54.0265481 L161.956969,54.0265481 Z" id="Fill-61" fill="#221F20" mask="url(#mask-2)"></path>
                            <polygon id="Fill-62" fill="#221F20" mask="url(#mask-2)" points="165.198596 55.1024051 165.717308 55.1024051 165.717308 54.0576456 165.198596 54.0576456"></polygon>
                        </g>
                    </g>
                </g>
            </g>
        </g>
    </g>
</svg>