<?xml version="1.0" encoding="UTF-8" standalone="no"?>
<svg width="142px" height="142px" viewBox="0 0 142 142" version="1.1" xmlns="http://www.w3.org/2000/svg" xmlns:xlink="http://www.w3.org/1999/xlink">
    <!-- Generator: Sketch 41.2 (35397) - http://www.bohemiancoding.com/sketch -->
    <title>Page 1</title>
    <desc>Created with Sketch.</desc>
    <defs>
        <polygon id="path-1" points="0 141.830332 141.993238 141.830332 141.993238 0.519414845 0 0.519414845"></polygon>
    </defs>
    <g id="Visual_Design" stroke="none" stroke-width="1" fill="none" fill-rule="evenodd">
        <g id="6_About_Open" transform="translate(-208.000000, -1036.000000)">
            <g id="Page-1" transform="translate(208.000000, 1036.000000)">
                <path d="M141.9929,71.1750419 C141.9929,110.197218 110.206876,141.830501 70.996281,141.830501 C31.7856857,141.830501 -0.000338095238,110.197218 -0.000338095238,71.1750419 C-0.000338095238,32.1528654 31.7856857,0.51958308 70.996281,0.51958308 C110.206876,0.51958308 141.9929,32.1528654 141.9929,71.1750419" id="Fill-1" fill="#A2D8CB"></path>
                <path d="M100.162743,105.050396 L41.4930762,105.050396 C36.6295762,105.050396 32.6485048,101.090137 32.6485048,96.2483254 L32.6485048,54.542796 C32.6485048,49.7009843 36.6295762,45.7407254 41.4930762,45.7407254 L100.162743,45.7407254 C105.027933,45.7407254 109.007314,49.7009843 109.007314,54.542796 L109.007314,96.2483254 C109.007314,101.090137 105.027933,105.050396 100.162743,105.050396" id="Fill-4" fill="#F05B3D"></path>
                <mask id="mask-2" fill="white">
                    <use xlink:href="#path-1"></use>
                </mask>
                <g id="Clip-7"></g>
                <polygon id="Fill-6" fill="#D54131" mask="url(#mask-2)" points="64.1180714 104.847168 75.2938095 104.847168 75.2938095 46.151556 64.1180714 46.151556"></polygon>
                <path d="M87.113281,48.2117654 L74.0374476,48.2117654 C71.4273524,48.2117654 69.292281,46.0869537 69.292281,43.4894007 L69.292281,43.4894007 C69.292281,37.9309066 73.8633286,33.3835066 79.4486619,33.3835066 L87.113281,33.3835066 C89.7233762,33.3835066 91.8584476,35.5083184 91.8584476,38.104189 L91.8584476,43.4894007 C91.8584476,46.0869537 89.7233762,48.2117654 87.113281,48.2117654" id="Fill-8" fill="#D54131" mask="url(#mask-2)"></path>
                <path d="M53.0324357,48.2117654 L66.108269,48.2117654 C68.7183643,48.2117654 70.8534357,46.0869537 70.8534357,43.4894007 L70.8534357,43.4894007 C70.8534357,37.9309066 66.2823881,33.3835066 60.6970548,33.3835066 L53.0324357,33.3835066 C50.4223405,33.3835066 48.287269,35.5083184 48.287269,38.104189 L48.287269,43.4894007 C48.287269,46.0869537 50.4223405,48.2117654 53.0324357,48.2117654" id="Fill-9" fill="#D54131" mask="url(#mask-2)"></path>
            </g>
        </g>
    </g>
</svg>