<?xml version="1.0" encoding="UTF-8" standalone="no"?>
<svg width="23px" height="16px" viewBox="0 0 23 16" version="1.1" xmlns="http://www.w3.org/2000/svg" xmlns:xlink="http://www.w3.org/1999/xlink">
    <!-- Generator: Sketch 41.2 (35397) - http://www.bohemiancoding.com/sketch -->
    <title>noun_91_cc copy</title>
    <desc>Created with Sketch.</desc>
    <defs></defs>
    <g id="Visual_Design" stroke="none" stroke-width="1" fill="none" fill-rule="evenodd">
        <g id="8-blog-post" transform="translate(-934.000000, -1319.000000)" fill="#FFFFFF">
            <g id="Group-2" transform="translate(926.000000, 1306.000000)">
                <g id="noun_91_cc-copy" transform="translate(8.208791, 13.666667)">
                    <g id="Group">
                        <path d="M0,0 L0,14.3562155 L22.2759905,14.3562155 L22.2759905,0 L0,0 L0,0 Z M20.6545211,0.870073665 L11.1379952,8.78187102 L1.62169211,0.870073665 L20.6545211,0.870073665 L20.6545211,0.870073665 Z M0.891039619,1.40516897 L7.5836382,6.96820247 L0.891039619,13.1189707 L0.891039619,1.40516897 L0.891039619,1.40516897 Z M1.79165791,13.4861418 L8.2663973,7.53592553 L11.1379952,9.9225376 L14.0095932,7.53570802 L20.4843326,13.4861418 L1.79165791,13.4861418 L1.79165791,13.4861418 Z M21.3849509,13.1189707 L14.6923523,6.96820247 L21.3849509,1.40516897 L21.3849509,13.1189707 L21.3849509,13.1189707 Z" id="Shape"></path>
                    </g>
                </g>
            </g>
        </g>
    </g>
</svg>