<?xml version="1.0" encoding="UTF-8" standalone="no"?>
<svg width="41px" height="41px" viewBox="0 0 41 41" version="1.1" xmlns="http://www.w3.org/2000/svg" xmlns:xlink="http://www.w3.org/1999/xlink">
    <!-- Generator: Sketch 41.2 (35397) - http://www.bohemiancoding.com/sketch -->
    <title>Group 4</title>
    <desc>Created with Sketch.</desc>
    <defs></defs>
    <g id="Visual_Design" stroke="none" stroke-width="1" fill="none" fill-rule="evenodd">
        <g id="9_Blog_No-Photo" transform="translate(-1138.000000, -1155.000000)">
            <g id="Group-2" transform="translate(930.000000, 1155.000000)">
                <g id="Group-4" transform="translate(208.000000, 0.000000)">
                    <ellipse id="Oval-83-Copy-5" fill="#165376" cx="20.4795396" cy="20.4576071" rx="20.4795396" ry="20.4576071"></ellipse>
                    <g id="noun_26636_cc-copy" transform="translate(14.000000, 8.000000)" fill="#FFFFFF">
                        <g id="Group">
                            <path d="M13.3211278,1.40426455 C13.2908961,1.21716151 13.1634679,1.06047097 12.9889042,0.995348532 C11.9236431,0.599985913 10.515756,0.208259573 9.00482107,0.207267861 C7.81960835,0.20693729 6.56385499,0.452881929 5.39652123,1.14509708 L5.39652123,1.14509708 C4.80879095,1.49252694 4.34556327,1.93185547 3.99286008,2.42638931 C3.46201741,3.16918179 3.1795298,4.02403775 3.02024449,4.89178598 C2.89184102,5.59358768 2.84340529,6.30861221 2.81739952,7.00181908 C2.51313208,7.00909164 2.16823062,7.01140563 1.85421102,7.01140563 C1.57952513,7.01140563 1.32824443,7.00975278 1.14522886,7.00776935 C1.05388361,7.00677764 0.980092254,7.0061165 0.928730869,7.00545536 C0.877369483,7.00446365 0.850063431,7.00413308 0.849413287,7.00413308 C0.711582734,7.00214965 0.576352758,7.05768554 0.477855925,7.15586505 C0.379684163,7.2547057 0.323771769,7.39189257 0.324746986,7.53238514 L0.345226525,11.0232123 C0.347176958,11.3141145 0.578628263,11.5699763 0.864041529,11.5699763 L1.22454644,11.5699763 C1.73003349,11.5699763 2.6733926,11.547828 3.39862836,11.5623732 C3.50590214,13.9603334 3.53125776,17.553968 3.53125776,20.3423323 C3.53125776,21.5178419 3.52638168,22.5422807 3.52248082,23.2801146 C3.51988024,23.6480398 3.51792981,23.9405949 3.51597937,24.1435654 C3.51435401,24.3462053 3.5133788,24.4546325 3.5133788,24.4552936 C3.51207851,24.5954556 3.56604047,24.730659 3.66388716,24.8304914 C3.76140878,24.9296626 3.89468832,24.9851985 4.03284395,24.9845374 L8.62741241,24.9610668 C8.76556803,24.9604057 8.89559686,24.9042087 8.99246833,24.8040457 C9.08966487,24.7042134 9.14265162,24.5709934 9.14135133,24.4301702 C9.14135133,24.4301702 9.117296,21.5571798 9.08901473,18.458079 C9.0649594,15.7930176 9.03830349,12.9646543 9.0230251,11.6473298 C9.30648794,11.6423713 9.63676115,11.6403879 9.95793234,11.6407184 C10.3333906,11.6407184 10.6987716,11.6430324 10.9698817,11.6453464 C11.1051116,11.6463381 11.2172615,11.6476604 11.2949537,11.6486521 C11.3732961,11.6496438 11.4168557,11.6499744 11.4168557,11.6499744 C11.5550114,11.6519578 11.6879658,11.5974137 11.7864627,11.4989036 C11.8849595,11.4003935 11.9405468,11.2661818 11.9408719,11.1256892 L11.9467232,7.89237668 C11.9470483,7.75188411 11.8927612,7.57172305 11.7949145,7.4728824 C11.6973929,7.37404175 11.5660638,7.2728871 11.4275831,7.2728871 L11.2559451,7.2728871 C11.1460707,7.2728871 10.9897111,7.32048928 10.8021445,7.32048928 C10.2257917,7.32048928 9.35394846,7.34131524 8.66414555,7.32941469 C8.67649829,6.97074543 8.70835535,6.66562863 8.76036688,6.39522175 C8.81042798,6.13208743 8.87934325,5.9188693 8.96061127,5.74333623 C9.02172481,5.61176907 9.08966487,5.50796986 9.16248102,5.42102975 C9.27300551,5.29078487 9.39263203,5.20285305 9.54671619,5.13740004 C9.70047527,5.07260818 9.89389315,5.0339314 10.1415981,5.03360083 C10.5814205,5.03227854 11.1854044,5.16450684 11.9418471,5.46168995 C11.9473733,5.46400395 11.9535497,5.46466509 11.959401,5.46697908 C11.9655774,5.46896251 11.9704534,5.47259879 11.9766298,5.47425164 C11.9876823,5.47788792 11.9987347,5.47821849 12.0097872,5.48086305 C12.0273411,5.48516047 12.0445699,5.48912732 12.0617987,5.49144132 C12.0787024,5.49342474 12.0952811,5.49408588 12.1115347,5.49474703 C12.1287635,5.4950776 12.1453422,5.49540817 12.162571,5.49441645 C12.1794748,5.49309417 12.1957284,5.49078018 12.2116569,5.48780504 C12.2282356,5.48516047 12.2448143,5.48185477 12.2607428,5.47755735 C12.2763463,5.47325993 12.2919497,5.46764022 12.306903,5.46168995 C12.3228316,5.45607025 12.338435,5.4497894 12.3533883,5.44218628 C12.3680166,5.43491372 12.3816696,5.42664945 12.3956477,5.41805461 C12.4099509,5.4091292 12.424254,5.39954265 12.4379071,5.38929496 C12.45091,5.3797084 12.4626125,5.36879957 12.4743151,5.35756016 C12.487318,5.34565962 12.4996708,5.33375907 12.5107232,5.32086681 C12.5217757,5.30830512 12.5315278,5.29508229 12.5416051,5.28152889 C12.5516823,5.26764492 12.5617595,5.25343038 12.5705365,5.23822412 C12.5789883,5.22367901 12.586465,5.20748104 12.5939417,5.19128308 C12.5988177,5.18070481 12.6049941,5.17111826 12.60922,5.15987885 C12.6118206,5.15392858 12.6124708,5.14764774 12.6147463,5.14103632 C12.6163716,5.13541662 12.6199474,5.13045806 12.6215728,5.12450778 C12.7259209,4.77476393 12.9050356,4.18866199 13.0587947,3.57016411 C13.1355117,3.26008875 13.2067025,2.94141854 13.2593642,2.63431832 C13.3117008,2.32688752 13.3471336,2.03334069 13.3474587,1.75962811 C13.3468085,1.63863921 13.339657,1.5212866 13.3211278,1.40426455 L13.3211278,1.40426455 Z M8.98726718,4.24485902 C8.73143547,4.37940131 8.50843604,4.56914892 8.32997148,4.79757331 C8.06113688,5.14136689 7.88819855,5.5628446 7.77962448,6.04250276 C7.67105042,6.52315263 7.62456511,7.06793323 7.62456511,7.68213369 C7.62456511,7.74494213 7.62521526,7.80874228 7.6258654,7.87320358 C7.63041641,8.15385815 7.85049019,8.30426784 8.12647637,8.31352382 C8.86146429,8.33732491 10.0658563,8.26426878 10.8018194,8.26426878 L10.9123439,8.26426878 L10.908443,10.5164473 C10.6441595,10.5144639 10.3064096,10.5508267 9.95793234,10.5508267 C9.40758535,10.5508267 8.83773403,10.5749583 8.4739784,10.5931397 C8.19539164,10.6073543 7.97889365,10.8519766 7.98279452,11.1356063 C7.99677262,12.0334365 8.02797953,15.3645979 8.05593573,18.462707 C8.06991383,20.0120921 8.08291671,21.5075942 8.09266887,22.6130228 C8.09721988,23.1495391 8.10112075,23.5948179 8.10372132,23.9108436 L4.55133388,23.9300167 C4.5568601,23.2335041 4.56433676,21.9122128 4.56433676,20.3291095 C4.56433676,17.3364525 4.53638056,13.4181974 4.40700188,10.9970972 C4.39269871,10.7247069 4.17750101,10.5101665 3.90964164,10.5005799 C3.2097615,10.4754565 2.04665367,10.4708285 1.37603002,10.470498 L1.36172685,8.0606372 C1.50800928,8.06162891 1.6763966,8.06262062 1.85453609,8.06262062 C2.35969807,8.06229005 2.93897647,8.05700092 3.34824219,8.03286925 C3.61610157,8.01733243 3.82804855,7.79485831 3.83487506,7.52246801 C3.86283126,6.41670885 3.92459495,5.29409058 4.21358401,4.33940225 C4.35759093,3.86139694 4.55555982,3.42636584 4.82894542,3.04389548 C5.10298116,2.66175569 5.45113333,2.32920151 5.91728666,2.05284436 L5.91728666,2.05284436 C6.89672877,1.47302327 7.95711383,1.25848285 9.00547121,1.25815228 C10.1988107,1.25716057 11.3661445,1.54178198 12.3104788,1.8670636 C12.3030022,2.03135727 12.2789468,2.23399714 12.2412385,2.45382669 C12.1716731,2.85976757 12.058873,3.32190548 11.9441226,3.74503604 C11.8914609,3.9387505 11.8387993,4.12320898 11.7890632,4.29312235 C11.1795531,4.0924659 10.6366828,3.98436926 10.1415981,3.98337755 C9.72030467,3.98304698 9.32891791,4.06403681 8.98726718,4.24485902 L8.98726718,4.24485902 Z" id="Shape"></path>
                        </g>
                    </g>
                </g>
            </g>
        </g>
    </g>
</svg>