<?xml version="1.0" encoding="UTF-8" standalone="no"?>
<svg width="136px" height="135px" viewBox="0 0 136 135" version="1.1" xmlns="http://www.w3.org/2000/svg" xmlns:xlink="http://www.w3.org/1999/xlink">
    <!-- Generator: Sketch 41.2 (35397) - http://www.bohemiancoding.com/sketch -->
    <title>Group 15</title>
    <desc>Created with Sketch.</desc>
    <defs></defs>
    <g id="Visual_Design" stroke="none" stroke-width="1" fill="none" fill-rule="evenodd">
        <g id="2_Donate-1" transform="translate(-665.000000, -1328.000000)">
            <g id="Group-15" transform="translate(665.000000, 1328.000000)">
                <path d="M135.45594,67.496625 C135.45594,104.774304 105.144938,134.993411 67.7539008,134.993411 C30.3628632,134.993411 0.0518616541,104.774304 0.0518616541,67.496625 C0.0518616541,30.2189464 30.3628632,-0.000160714286 67.7539008,-0.000160714286 C105.144938,-0.000160714286 135.45594,30.2189464 135.45594,67.496625" id="Fill-4" fill="#6D5593"></path>
                <path d="M29.2795789,50.4368036 C12.8320361,75.6319821 57.1967158,106.979304 67.5427248,106.979304 C75.7656902,106.979304 89.6936301,91.245375 97.8746827,80.0307321 C107.501726,66.8344821 106.547405,52.804125 100.482947,45.2376964 C95.2212812,38.674125 78.5786827,27.390375 61.7507008,46.9123393 C61.7507008,46.9123393 39.8738406,34.207875 29.2795789,50.4368036" id="Fill-11" fill="#F05B3D"></path>
                <path d="M85.4004716,58.4885893 C96.7201468,74.6805536 67.2409528,106.984125 67.5440144,106.979304 C74.2484475,106.892518 89.6949197,91.245375 97.8743603,80.0307321 C107.503016,66.8344821 106.547082,52.804125 100.482625,45.2376964 C95.2209588,38.674125 78.5783603,27.390375 61.7519904,46.9123393 C61.7519904,46.9123393 74.2951964,42.6035893 85.4004716,58.4885893" id="Fill-17" fill="#F26F59"></path>
            </g>
        </g>
    </g>
</svg>