<?xml version="1.0" encoding="utf-8"?>
<!-- Generator: Adobe Illustrator 21.0.0, SVG Export Plug-In . SVG Version: 6.00 Build 0)  -->
<svg version="1.1" xmlns="http://www.w3.org/2000/svg" xmlns:xlink="http://www.w3.org/1999/xlink" x="0px" y="0px"
	 viewBox="0 0 308.9 205.7" style="enable-background:new 0 0 308.9 205.7;" xml:space="preserve">
<style type="text/css">
	.st0{clip-path:url(#SVGID_2_);fill:#409BBE;}
	.st1{clip-path:url(#SVGID_4_);}
	.st2{fill-rule:evenodd;clip-rule:evenodd;fill:#165376;}
	.st3{fill-rule:evenodd;clip-rule:evenodd;fill:#FFFFFF;}
	.st4{clip-path:url(#SVGID_4_);fill:none;stroke:#EF4136;stroke-miterlimit:10;}
	.st5{clip-path:url(#SVGID_6_);fill:#2AC3EC;}
	.st6{clip-path:url(#SVGID_8_);fill:#2AC3EC;}
	.st7{clip-path:url(#SVGID_10_);fill:#2AC3EC;}
	.st8{clip-path:url(#SVGID_12_);fill:#2AC3EC;}
	.st9{clip-path:url(#SVGID_14_);fill:#2AC3EC;}
	.st10{clip-path:url(#SVGID_16_);fill:#2AC3EC;}
	.st11{clip-path:url(#SVGID_18_);fill:#2AC3EC;}
	.st12{clip-path:url(#SVGID_20_);fill:#2AC3EC;}
	.st13{clip-path:url(#SVGID_22_);fill:#2AC3EC;}
	.st14{clip-path:url(#SVGID_24_);fill:#2AC3EC;}
	.st15{clip-path:url(#SVGID_26_);fill:#2AC3EC;}
	.st16{clip-path:url(#SVGID_28_);fill:#2AC3EC;}
	.st17{clip-path:url(#SVGID_30_);fill:#2AC3EC;}
	.st18{clip-path:url(#SVGID_32_);fill:#2AC3EC;}
	.st19{clip-path:url(#SVGID_34_);fill:#2AC3EC;}
	.st20{clip-path:url(#SVGID_36_);fill:#2AC3EC;}
	.st21{clip-path:url(#SVGID_38_);fill:#2AC3EC;}
	.st22{clip-path:url(#SVGID_40_);fill:#2AC3EC;}
	.st23{clip-path:url(#SVGID_42_);fill:#2AC3EC;}
	.st24{clip-path:url(#SVGID_44_);fill:#2AC3EC;}
	.st25{clip-path:url(#SVGID_46_);fill:#2AC3EC;}
	.st26{clip-path:url(#SVGID_48_);fill:#2AC3EC;}
	.st27{clip-path:url(#SVGID_50_);fill:#2AC3EC;}
	.st28{clip-path:url(#SVGID_52_);fill:#2AC3EC;}
	.st29{clip-path:url(#SVGID_54_);fill:#2AC3EC;}
	.st30{clip-path:url(#SVGID_56_);fill:#2AC3EC;}
	.st31{clip-path:url(#SVGID_58_);fill:#2AC3EC;}
	.st32{clip-path:url(#SVGID_60_);fill:#2AC3EC;}
	.st33{clip-path:url(#SVGID_62_);fill:#2AC3EC;}
	.st34{clip-path:url(#SVGID_64_);fill:#2AC3EC;}
	.st35{clip-path:url(#SVGID_66_);fill:#2AC3EC;}
	.st36{clip-path:url(#SVGID_68_);fill:#2AC3EC;}
	.st37{clip-path:url(#SVGID_70_);fill:#2AC3EC;}
	.st38{clip-path:url(#SVGID_72_);fill:#2AC3EC;}
	.st39{clip-path:url(#SVGID_74_);fill:#2AC3EC;}
	.st40{clip-path:url(#SVGID_76_);fill:#2AC3EC;}
	.st41{clip-path:url(#SVGID_78_);fill:#2AC3EC;}
	.st42{clip-path:url(#SVGID_80_);fill:#2AC3EC;}
	.st43{clip-path:url(#SVGID_82_);fill:#2AC3EC;}
	.st44{clip-path:url(#SVGID_84_);fill:#2AC3EC;}
</style>
<g id="Layer_1">
	<g>
		<defs>
			<rect id="SVGID_1_" width="308.9" height="205.7"/>
		</defs>
		<clipPath id="SVGID_2_">
			<use xlink:href="#SVGID_1_"  style="overflow:visible;"/>
		</clipPath>
		<rect x="-0.9" y="-0.9" class="st0" width="310.8" height="207.4"/>
	</g>
	<g>
		<defs>
			<rect id="SVGID_3_" width="308.9" height="205.7"/>
		</defs>
		<clipPath id="SVGID_4_">
			<use xlink:href="#SVGID_3_"  style="overflow:visible;"/>
		</clipPath>
		<g class="st1">
			<path class="st2" d="M376.7,184.2c-1.8-2-2.4-4.1-2.5-6.7c-0.2-5.8-0.8-11.6-1.2-16.5c-3.2-1.5-5.9-2.1-7.8-3.7
				c-2.3-2-4.6-1.9-7.2-1.6c-5.7,0.5-11.4,0.9-17.1,1.3c-0.3,0-0.7-0.1-0.9-0.3c-1.7-1.6-3.9-1.4-5.9-1.2c-2.2,0.2-4,0-5.6-1.8
				c-0.6-0.7-1.9-0.9-2.9-1.2c-2.3-0.7-4.6-1.3-6.8-2.1c-2.8-0.9-5.6-2.1-8.4-2.9c-1.3-0.4-1.9-0.7-1.8-2.1c0.2-2.4,0.2-4.9,0.2-7.3
				c0-6.7,0-13.3,0-20.2h-31.2c-1.4,20.3-2.9,40.5-4.3,60.8c-14.3-1-28.2-1.9-42.6-2.9c2.8,2.4,5.2,4.2,7.3,6.3
				c3.1,3.3,5.1,7.6,9.4,9.7c0.4,0.2,0.5,1.1,0.7,1.7c0.6,1.4,1.1,2.9,1.7,4.3c1,2.3,2,4.7,3.1,7c1,1.9,1.9,3.9,3.3,5.3
				c2.2,2.1,4.8,3.9,7.3,5.6c3.2,2.1,6.1,0.6,6.6-3.3c0.5-4,1.1-5.4,4.7-5.3c4.5,0.2,9.3,1.2,13.4,3.1c3.4,1.5,6,4.8,8.8,7.3
				c0.6,0.5,0.8,1.5,1.2,2.3c0.6,1.3,1,2.7,1.6,4c0.3,0.7,1,1.4,0.9,1.9c-0.5,2.9,1.4,4.6,3.1,6.5c1.4,1.5,3.3,2.8,4.2,4.6
				c2.2,4.5,4,9.1,5.8,13.8c1.8,4.7,5.3,7.8,9.8,9.3c4,1.4,8.4,1.8,12.6,2.7c0.5-3.7,0.3-7.2-1.3-10.6c-0.2-0.5-0.2-1.3,0-1.8
				c1.6-4.1,1.6-4-2.6-4.3c-0.1,0-0.3-0.2-0.6-0.4c0.4-1,0.5-2.6,1.2-3c2.8-1.3,3.3-3.7,3.4-5.8c1.4-0.9,3.4-1.8,3.3-2.3
				c-0.5-3.2,2.1-2.9,3.7-3.5c1.3-0.5,2.8-0.7,4.1-1c-1-1.9-1.9-3.6-3-5.6c1.3,0.2,1.9,0.4,2.6,0.5c2.2,0.1,4.6,0.7,6.6,0.1
				c3-1,5.7-2.8,8.4-4.4c3.4-2.1,4.6-5.4,3.5-9.1c1.3-0.7,2.6-1.5,3.8-2.2c0.7,1.6,1.4,2.9,1.9,4.2c2.5-1.2,4.5-2.2,6.1-3
				c0.4-2.3,0.1-5.1,1.3-6.7C383.2,196.8,380.8,188.7,376.7,184.2z"/>
			<path class="st3" d="M147.2,132.8c1.2-0.8,2.5-2.6,2.4-3.7c-0.3-2.4-1.3-4.8-2.5-6.9c-0.7-1.2-1.2-2.2-0.5-3.4
				c1-1.5,0.2-2.6-0.6-3.8c-13.8-20.3-28-40.4-40.2-61.8c-0.6-1.1-0.9-2.7-0.6-3.9c3.1-11.9,6.3-23.8,9.5-36
				c-3.1-0.8-6.2-1.6-9.2-2.4c-9.6-2.5-19.2-4.9-28.8-7.4c-2.5-0.6-2.5-0.4-2.2,2c0.1,1.2-0.1,2.7-0.7,3.8c-1.8,3.4-3.9,6.6-5.8,10
				c-0.5,0.9-0.6,2-0.9,3c-0.7,2.5,1.6,4.1,1.9,6.2c0.6,3.2,0.5,6.5,0.2,9.7c-0.3,3.7-0.7,7.4,1.2,10.7c1.5,2.6,2.6,5.2,2.4,8.2
				c0,0.5,0.2,1.1,0.5,2.3c1.4-0.7,2.5-1.3,4.1-2c2.2,0.7,3.5,2.6,2.2,3.4c-2.2,1.3-1.6,3.2-1.8,4.4c-1.5,0.8-2.6,1.4-3.5,1.8
				c1.4,2.8,2.4,5,3.7,7.1c1.3,2.2,0.7,4.1-0.8,5.7c-1.1,1.1-0.9,2-0.4,3.1c2.3,5.5,4.5,11,6.9,16.4c1.3,2.8,1.2,5.6,0.8,8.5
				c-0.1,0.7-0.3,1.4-0.4,2c1.5,1,2.7,1.8,3.9,2.5c0.8,0.5,1.8,1,2.7,1c2.3,0,4.6,0.7,5.3,2.6c1.1,3,2.9,4.4,5.8,5.3
				c3.6,1.2,4.8,5.1,7,7.9c1.1,1.4,1.7,3.3,4,3.3c0.4,0,1,0.9,1.1,1.4c0.5,2.5,1.1,5.1,1.3,7.6c0.2,2.1,1.1,3.7,3,4.1
				c5.7,1.2,11.4,2.5,17.2,3.2c4.8,0.6,6.1-1.1,6.4-5.8C142.1,139,143.4,135.2,147.2,132.8z"/>
			<path class="st2" d="M174-47c1.4,1.2,1.8,3.5,2.8,5.2c0.5,0.9,0.9,2,1.7,2.7c3.4,3.1,3.5,3,1.5,7.2c-0.2,0.5-0.5,0.9-0.6,1.4
				c-0.5,2.6-1,5.2-1.6,8.4c2.3-0.9,3.9-1.5,5.6-2.2c0.2,0.9,0.6,1.8,0.5,2.7c-0.4,4.2,2,7.6,3.5,11.2c0.8,1.9,3.8,2.9,1.6,6
				c3,0,5.5,0.3,7.9-0.1c3.3-0.6,6.5-1.9,9.8,0.2c0.4-2.1,0.7-3.8,1-5.5c22.4,2.6,44.6,5.2,66.9,7.8c1.4-17.5,2.7-34.6,4.2-52.3
				c-36.2-2-71.5-8-106.5-15.8c-0.1,0.3-0.3,0.4-0.3,0.5c-0.3,4.3-0.7,8.5-0.9,12.8C170.8-53.2,170.9-49.7,174-47z"/>
			<path class="st2" d="M272.1,173.8c0.8-11.8,1.7-23.7,2.5-35.5c0.6-8.8,1-17.5,1.5-26.3c0.1-1.6-0.4-2.1-2.1-2.3
				c-5.8-0.4-11.6-1-17.4-1.6c-13.8-1.4-27.5-2.8-41.6-4.3c-3.8,24.8-7.6,49.4-11.4,74.1c2.5,0.2,4.7,0.5,7,0.7
				c0.3-1.4,0.5-2.4,0.7-3.7c6.1,0.4,12,0.9,17.9,1.3c0.4-0.8,0.6-1.5,0.9-2.2c13.9,1,27.7,1.9,41.6,2.9
				C271.9,175.8,272,174.8,272.1,173.8z"/>
			<path class="st2" d="M159.9,94.6c-2.3,4.7-0.5,10.5-5,14.2c-1.2-0.9-2.1-1.6-3.7-2.8c-0.6,1.6-1.1,2.8-1.4,4.1
				c-0.7,3.4,0.4,7.1-1.7,9.8c1,2.8,1.8,5.4,2.8,7.9c0.8,2.2-0.1,4.2-1.5,5.4c-1.8,1.6-4,2.7-4.7,5.3c-0.4,1.7-1.3,3.2-1.5,4.9
				c-0.3,2.4,0,4.9-0.1,7.3c-0.1,1.6,0.4,2.6,1.8,3.5c8.5,5.8,16.9,11.6,25.3,17.6c2.8,2,5.7,3.5,9.3,3.8c7.4,0.5,14.7,1.5,22.4,2.4
				c3.8-24.9,7.6-49.4,11.5-74.2C195.4,100.6,177.6,97.6,159.9,94.6z"/>
			<path class="st2" d="M115.8,14.9c-3.1,11.4-6.1,22.9-9.2,34.3c-0.4,1.5-0.1,2.6,0.6,3.9c12.3,21,26.2,40.9,39.9,61.1
				c0.1,0.2,0.3,0.3,0.5,0.4c1.2-3.5-0.9-8.4,4.4-10c0.9,0.7,1.8,1.4,3.3,2.6C161,80.2,165.8,53.6,171,27
				c-18.4-4.4-36.5-8.7-54.6-13.1C116.1,14.3,115.9,14.6,115.8,14.9z"/>
			<path class="st2" d="M290.3,56.2c-23.2-2.4-46.1-4.8-69.1-7.1c-2,17.8-3.9,35.4-5.9,53.4c24.2,1.9,47.9,5.5,72,6.5
				C288.4,91.1,289.3,73.6,290.3,56.2z"/>
			<path class="st2" d="M274.5-0.4c-22.1-2.6-43.7-5.1-65.6-7.7c-2.9,17.7-5.8,35.2-8.7,52.9c23.4,2.6,46.6,5.3,70,7.9
				C271.6,34.8,273,17.3,274.5-0.4z"/>
			<path class="st2" d="M78.3,2.5c11.2,2.9,22.4,5.8,33.6,8.6c9.9,2.5,19.9,4.8,30,7.2c4.1-17.5,8.2-34.8,12.3-52.2
				c-3.1-0.5-5.8-1.1-8.6-1.4c-3.4-0.4-6.8-0.8-10.2-1.1c-1.3-0.1-2.8,0.9-3.8,0.5c-2.7-1.3-5.4-0.3-8.1-0.6
				c-3.2-0.4-6.4-1.2-9.6-1.9c-1-0.2-1.9-0.4-2.9-0.3c-2.1,0.1-4.1,0.4-6.2,0.5c-0.6,0-1.5-0.1-1.8-0.5c-1.4-2.1-3.1-4-2.2-7
				c1.1-4.2,1-4.2-3.2-5.6c-0.2-0.1-0.3-0.1-0.5-0.1c-2.6-0.8-6.5,1.8-6.3,4.4c0.2,2.7-0.8,4.9-2.3,6.9c-1.8,2.2-2.3,4.5-2,7.6
				c0.2,2.3-2.7,4.7-3.1,7.2c-0.5,3.2-1.9,5.4-4.1,7.4c0.3,0.7,0.6,1.3,0.9,2c-1.5,1.3-4.3,1-4.3,3.7c0,1.8-2,3.7,0.1,5.4
				c-0.3,0.4-0.5,0.8-0.7,1.1C72.7-2,74,1.4,78.3,2.5z"/>
			<path class="st2" d="M219.7,48.7c-7.3-0.9-14.2-1.7-21.3-2.6c0.8-4.6,1.5-9,2.2-13.6c-9.5-1.7-18.7-3.4-28-5.1
				C168.3,49.3,164.2,71,160,93c18.1,3.1,35.8,6.1,53.8,9.1C215.7,84.3,217.7,66.5,219.7,48.7z"/>
			<path class="st2" d="M200.9,30.8c1.8-11.2,3.6-22.2,5.4-33.2c-2.4-2-4.9-1.7-7.4-0.8c-3.9,1.3-7.6,0.9-10.9,0.1
				c-0.3-1.9-0.1-3.5-0.8-4.8c-1.3-2.7-3.1-5.2-4.6-7.8c-0.2-0.3-0.1-0.8-0.1-1.2c0-1.6,0-3.2,0-5.3c-2.1,0.9-3.6,1.6-5.5,2.5
				c-0.9-5-0.3-9.6,2.1-13.9c0.8-1.5,1.1-2.4-0.9-3.5c-1.3-0.7-2.1-2.6-3-4c-1.3-2-2.5-4.1-3.7-6.1c-0.5-0.9-1.5-1.8-1.6-2.7
				c-0.3-2.7-0.4-5.5-0.4-8.2c0.1-4,0.4-8,0.6-12.1c-1.9-0.4-3.8-0.8-5.6-1.2c-7,30.1-14,60.1-21.1,90.1
				C162.6,23.8,181.5,27.9,200.9,30.8z"/>
			<path class="st2" d="M289,108.8c26.4,0.9,52.4,1.9,78.5,2.8c0.1-1,0.1-1.7,0.1-2.5c0-7.7,0.1-15.4,0-23.1c0-1.3-0.6-2.6-1.2-3.9
				c-1-2.2-2.2-4.2-3.3-6.2c0.8-0.9,1.4-1.6,2-2.3c-0.1-0.3-0.1-0.5-0.2-0.8c-24.5-1-49.1-1.9-73.8-2.9
				C290.4,83.1,289.7,95.8,289,108.8z"/>
			<path class="st2" d="M340,33c-1-0.6-2.9-1.2-3.4-0.7c-2.4,2.3-4.3,1-6.4-0.4c-1.4-0.9-3-2.2-4.5-2.3c-15.3-0.9-30.7-1.5-46-2.2
				c-2-0.1-3.9,0-6,0c-0.7,8.5-1.4,16.8-2.1,25.4c6.9,0.6,13.6,1.2,20.3,1.8c-0.3,4.8-0.5,9.3-0.8,13.9c24,0.9,47.7,1.9,72,2.8
				c-3-2.6-5.5-4.6-7.8-6.7c-0.5-0.4-1-1.1-1.1-1.7c-1-5.8-2-11.6-3-17.4c-0.5-2.8-0.9-5.6-3.5-7.4C345.1,36.4,342.6,34.6,340,33z"
				/>
			<path class="st2" d="M277-12.7c-1,12.8-2,25.4-3,38.1c1,0.1,1.8,0.3,2.5,0.3c15.2,0.7,30.3,1.6,45.5,2.1c3.7,0.1,7,0.6,9.9,3.3
				c0.6,0.6,2.5,1,2.9,0.6c2.4-2.6,4.4-0.8,6.4,0.3c2.2,1.2,4.1,2.7,6.5,4.3c-0.4-4.2-0.9-8-1.2-11.8c-0.1-0.7,0.2-1.6,0.5-2.3
				c0.3-0.9,1-1.7,0.9-2.6c0-5.9-0.1-11.7-0.4-17.6c-0.1-1.3-1-2.6-1.5-4c-0.4-1.2-1-2.3-1.1-3.5c-0.1-1.2,0.2-2.4,0.4-3.9
				C322.6-10.5,299.9-11.6,277-12.7z"/>
			<path class="st2" d="M277.7,116h32.6v29.4c2.6,0.9,4.9,1.8,7.3,2.6c3,1,6.1,2,9.1,3c0.6,0.2,1.4,0.3,1.8,0.8
				c2,2.3,4.6,2.1,7.3,2.1c3.5,0,6.9,1.8,10.6,1.3c3.6-0.5,7.3-0.4,10.8-0.9c3.2-0.4,6.2-0.9,8.8,1.8c0.7,0.7,1.8,1.1,3.2,1.8
				c-0.5-15.3-1-29.9-1.5-44.7c-30.2-1-60-2.1-89.8-3.1V116z"/>
		</g>
		<rect x="-0.9" y="-0.9" class="st4" width="310.8" height="207.4"/>
	</g>
</g>
<g id="Layer_2">
	<g>
		<defs>
			<path id="SVGID_5_" d="M90,68.1c-0.2,0-0.4-0.2-0.4-0.4v-8.1c0-0.2,0.2-0.4,0.4-0.4s0.4,0.2,0.4,0.4v8.1
				C90.4,67.9,90.2,68.1,90,68.1"/>
		</defs>
		<clipPath id="SVGID_6_">
			<use xlink:href="#SVGID_5_"  style="overflow:visible;"/>
		</clipPath>
		<rect x="87.9" y="57.5" class="st5" width="4.3" height="12.3"/>
	</g>
	<g>
		<defs>
			<path id="SVGID_7_" d="M90.3,61.2v-2l1.6,1l1.3,0.8c0.2,0.1,0.2,0.3,0,0.4L92,62.2l-1.3,0.7c-0.2,0.1-0.4,0-0.4-0.2V61.2z"/>
		</defs>
		<clipPath id="SVGID_8_">
			<use xlink:href="#SVGID_7_"  style="overflow:visible;"/>
		</clipPath>
		<rect x="88.6" y="57.5" class="st6" width="6.5" height="7.2"/>
	</g>
	<g>
		<defs>
			<path id="SVGID_9_" d="M94.2,64.7c-0.2,0-0.4-0.2-0.4-0.4v-8.1c0-0.2,0.2-0.4,0.4-0.4s0.4,0.2,0.4,0.4v8.1
				C94.6,64.5,94.4,64.7,94.2,64.7"/>
		</defs>
		<clipPath id="SVGID_10_">
			<use xlink:href="#SVGID_9_"  style="overflow:visible;"/>
		</clipPath>
		<rect x="92" y="54.1" class="st7" width="4.3" height="12.3"/>
	</g>
	<g>
		<defs>
			<path id="SVGID_11_" d="M94.4,57.8v-2l1.6,1l1.3,0.8c0.2,0.1,0.2,0.3,0,0.4l-1.3,0.8l-1.3,0.7c-0.2,0.1-0.4,0-0.4-0.2V57.8z"/>
		</defs>
		<clipPath id="SVGID_12_">
			<use xlink:href="#SVGID_11_"  style="overflow:visible;"/>
		</clipPath>
		<rect x="92.7" y="54.1" class="st8" width="6.5" height="7.2"/>
	</g>
	<g>
		<defs>
			<path id="SVGID_13_" d="M90.7,86.8c-0.2,0-0.4-0.2-0.4-0.4v-8.1c0-0.2,0.2-0.4,0.4-0.4s0.4,0.2,0.4,0.4v8.1
				C91.1,86.6,90.9,86.8,90.7,86.8"/>
		</defs>
		<clipPath id="SVGID_14_">
			<use xlink:href="#SVGID_13_"  style="overflow:visible;"/>
		</clipPath>
		<rect x="88.6" y="76.2" class="st9" width="4.3" height="12.3"/>
	</g>
	<g>
		<defs>
			<path id="SVGID_15_" d="M91,79.8v-2l1.6,1l1.3,0.8c0.2,0.1,0.2,0.3,0,0.4l-1.3,0.8l-1.3,0.7c-0.2,0.1-0.4,0-0.4-0.2V79.8z"/>
		</defs>
		<clipPath id="SVGID_16_">
			<use xlink:href="#SVGID_15_"  style="overflow:visible;"/>
		</clipPath>
		<rect x="89.3" y="76.2" class="st10" width="6.5" height="7.2"/>
	</g>
	<g>
		<defs>
			<path id="SVGID_17_" d="M83.9,59.2c-0.2,0-0.4-0.2-0.4-0.4v-8.1c0-0.2,0.2-0.4,0.4-0.4c0.2,0,0.4,0.2,0.4,0.4v8.1
				C84.3,59,84.2,59.2,83.9,59.2"/>
		</defs>
		<clipPath id="SVGID_18_">
			<use xlink:href="#SVGID_17_"  style="overflow:visible;"/>
		</clipPath>
		<rect x="81.8" y="48.6" class="st11" width="4.3" height="12.3"/>
	</g>
	<g>
		<defs>
			<path id="SVGID_19_" d="M84,52.4v-2l1.6,1l1.3,0.8c0.2,0.1,0.2,0.3,0,0.4l-1.3,0.8l-1.3,0.7c-0.2,0.1-0.4,0-0.4-0.2V52.4z"/>
		</defs>
		<clipPath id="SVGID_20_">
			<use xlink:href="#SVGID_19_"  style="overflow:visible;"/>
		</clipPath>
		<rect x="82.3" y="48.7" class="st12" width="6.5" height="7.2"/>
	</g>
	<g>
		<defs>
			<path id="SVGID_21_" d="M81.8,70.9c-0.2,0-0.4-0.2-0.4-0.4v-8.1c0-0.2,0.2-0.4,0.4-0.4c0.2,0,0.4,0.2,0.4,0.4v8.1
				C82.2,70.7,82,70.9,81.8,70.9"/>
		</defs>
		<clipPath id="SVGID_22_">
			<use xlink:href="#SVGID_21_"  style="overflow:visible;"/>
		</clipPath>
		<rect x="79.7" y="60.3" class="st13" width="4.3" height="12.3"/>
	</g>
	<g>
		<defs>
			<path id="SVGID_23_" d="M82.1,64v-2l1.6,1l1.3,0.8c0.2,0.1,0.2,0.3,0,0.4L83.7,65l-1.3,0.7c-0.2,0.1-0.4,0-0.4-0.2V64z"/>
		</defs>
		<clipPath id="SVGID_24_">
			<use xlink:href="#SVGID_23_"  style="overflow:visible;"/>
		</clipPath>
		<rect x="80.4" y="60.3" class="st14" width="6.5" height="7.2"/>
	</g>
	<g>
		<defs>
			<path id="SVGID_25_" d="M86.5,77.9c-0.2,0-0.4-0.2-0.4-0.4v-8.1c0-0.2,0.2-0.4,0.4-0.4c0.2,0,0.4,0.2,0.4,0.4v8.1
				C86.9,77.7,86.7,77.9,86.5,77.9"/>
		</defs>
		<clipPath id="SVGID_26_">
			<use xlink:href="#SVGID_25_"  style="overflow:visible;"/>
		</clipPath>
		<rect x="84.3" y="67.2" class="st15" width="4.3" height="12.3"/>
	</g>
	<g>
		<defs>
			<path id="SVGID_27_" d="M86.6,71v-2l1.6,1l1.3,0.8c0.2,0.1,0.2,0.3,0,0.4L88.2,72l-1.3,0.7c-0.2,0.1-0.4,0-0.4-0.2V71z"/>
		</defs>
		<clipPath id="SVGID_28_">
			<use xlink:href="#SVGID_27_"  style="overflow:visible;"/>
		</clipPath>
		<rect x="84.8" y="67.3" class="st16" width="6.5" height="7.2"/>
	</g>
	<g>
		<defs>
			<path id="SVGID_29_" d="M94.1,74.5c-0.2,0-0.4-0.2-0.4-0.4V66c0-0.2,0.2-0.4,0.4-0.4c0.2,0,0.4,0.2,0.4,0.4v8.1
				C94.5,74.3,94.4,74.5,94.1,74.5"/>
		</defs>
		<clipPath id="SVGID_30_">
			<use xlink:href="#SVGID_29_"  style="overflow:visible;"/>
		</clipPath>
		<rect x="92" y="63.9" class="st17" width="4.3" height="12.3"/>
	</g>
	<g>
		<defs>
			<path id="SVGID_31_" d="M94.2,67.6v-2l1.6,1l1.3,0.8c0.2,0.1,0.2,0.3,0,0.4l-1.3,0.8l-1.3,0.7c-0.2,0.1-0.4,0-0.4-0.2V67.6z"/>
		</defs>
		<clipPath id="SVGID_32_">
			<use xlink:href="#SVGID_31_"  style="overflow:visible;"/>
		</clipPath>
		<rect x="92.5" y="63.9" class="st18" width="6.5" height="7.2"/>
	</g>
	<g>
		<defs>
			<path id="SVGID_33_" d="M83.5,90.9c-0.2,0-0.4-0.2-0.4-0.4v-8.1c0-0.2,0.2-0.4,0.4-0.4s0.4,0.2,0.4,0.4v8.1
				C83.9,90.7,83.7,90.9,83.5,90.9"/>
		</defs>
		<clipPath id="SVGID_34_">
			<use xlink:href="#SVGID_33_"  style="overflow:visible;"/>
		</clipPath>
		<rect x="81.4" y="80.3" class="st19" width="4.3" height="12.3"/>
	</g>
	<g>
		<defs>
			<path id="SVGID_35_" d="M83.6,84v-2l1.6,1l1.3,0.8c0.2,0.1,0.2,0.3,0,0.4L85.3,85L84,85.7c-0.2,0.1-0.4,0-0.4-0.2V84z"/>
		</defs>
		<clipPath id="SVGID_36_">
			<use xlink:href="#SVGID_35_"  style="overflow:visible;"/>
		</clipPath>
		<rect x="81.9" y="80.3" class="st20" width="6.5" height="7.2"/>
	</g>
	<g>
		<defs>
			<path id="SVGID_37_" d="M87.8,63.8c-0.2,0-0.4-0.2-0.4-0.4v-8.1c0-0.2,0.2-0.4,0.4-0.4c0.2,0,0.4,0.2,0.4,0.4v8.1
				C88.3,63.7,88.1,63.8,87.8,63.8"/>
		</defs>
		<clipPath id="SVGID_38_">
			<use xlink:href="#SVGID_37_"  style="overflow:visible;"/>
		</clipPath>
		<rect x="85.7" y="53.2" class="st21" width="4.3" height="12.3"/>
	</g>
	<g>
		<defs>
			<path id="SVGID_39_" d="M87.9,57v-2l1.6,1l1.3,0.8c0.2,0.1,0.2,0.3,0,0.4L89.6,58l-1.3,0.7c-0.2,0.1-0.4,0-0.4-0.2V57z"/>
		</defs>
		<clipPath id="SVGID_40_">
			<use xlink:href="#SVGID_39_"  style="overflow:visible;"/>
		</clipPath>
		<rect x="86.2" y="53.3" class="st22" width="6.5" height="7.2"/>
	</g>
	<g>
		<defs>
			<path id="SVGID_41_" d="M102,101.4c-0.2,0-0.4-0.2-0.4-0.4v-8.1c0-0.2,0.2-0.4,0.4-0.4c0.2,0,0.4,0.2,0.4,0.4v8.1
				C102.4,101.2,102.2,101.4,102,101.4"/>
		</defs>
		<clipPath id="SVGID_42_">
			<use xlink:href="#SVGID_41_"  style="overflow:visible;"/>
		</clipPath>
		<rect x="99.8" y="90.8" class="st23" width="4.3" height="12.3"/>
	</g>
	<g>
		<defs>
			<path id="SVGID_43_" d="M102.1,94.5v-2l1.6,1l1.3,0.8c0.2,0.1,0.2,0.3,0,0.4l-1.3,0.8l-1.3,0.7c-0.2,0.1-0.4,0-0.4-0.2V94.5z"/>
		</defs>
		<clipPath id="SVGID_44_">
			<use xlink:href="#SVGID_43_"  style="overflow:visible;"/>
		</clipPath>
		<rect x="100.3" y="90.8" class="st24" width="6.5" height="7.2"/>
	</g>
	<g>
		<defs>
			<path id="SVGID_45_" d="M110.4,120.3c-0.2,0-0.4-0.2-0.4-0.4v-8.1c0-0.2,0.2-0.4,0.4-0.4s0.4,0.2,0.4,0.4v8.1
				C110.8,120.1,110.6,120.3,110.4,120.3"/>
		</defs>
		<clipPath id="SVGID_46_">
			<use xlink:href="#SVGID_45_"  style="overflow:visible;"/>
		</clipPath>
		<rect x="108.2" y="109.7" class="st25" width="4.3" height="12.3"/>
	</g>
	<g>
		<defs>
			<path id="SVGID_47_" d="M110.5,113.4v-2l1.6,1l1.3,0.8c0.2,0.1,0.2,0.3,0,0.4l-1.3,0.8l-1.3,0.7c-0.2,0.1-0.4,0-0.4-0.2V113.4z"
				/>
		</defs>
		<clipPath id="SVGID_48_">
			<use xlink:href="#SVGID_47_"  style="overflow:visible;"/>
		</clipPath>
		<rect x="108.7" y="109.7" class="st26" width="6.5" height="7.2"/>
	</g>
	<g>
		<defs>
			<path id="SVGID_49_" d="M128.7,132.1c-0.2,0-0.4-0.2-0.4-0.4v-8.1c0-0.2,0.2-0.4,0.4-0.4c0.2,0,0.4,0.2,0.4,0.4v8.1
				C129.1,131.9,128.9,132.1,128.7,132.1"/>
		</defs>
		<clipPath id="SVGID_50_">
			<use xlink:href="#SVGID_49_"  style="overflow:visible;"/>
		</clipPath>
		<rect x="126.5" y="121.5" class="st27" width="4.3" height="12.3"/>
	</g>
	<g>
		<defs>
			<path id="SVGID_51_" d="M128.8,125.2v-2l1.6,1l1.3,0.8c0.2,0.1,0.2,0.3,0,0.4l-1.3,0.8l-1.3,0.7c-0.2,0.1-0.4,0-0.4-0.2V125.2z"
				/>
		</defs>
		<clipPath id="SVGID_52_">
			<use xlink:href="#SVGID_51_"  style="overflow:visible;"/>
		</clipPath>
		<rect x="127" y="121.5" class="st28" width="6.5" height="7.2"/>
	</g>
	<g>
		<defs>
			<path id="SVGID_53_" d="M117.9,136c-0.2,0-0.4-0.2-0.4-0.4v-8.1c0-0.2,0.2-0.4,0.4-0.4s0.4,0.2,0.4,0.4v8.1
				C118.3,135.8,118.1,136,117.9,136"/>
		</defs>
		<clipPath id="SVGID_54_">
			<use xlink:href="#SVGID_53_"  style="overflow:visible;"/>
		</clipPath>
		<rect x="115.8" y="125.4" class="st29" width="4.3" height="12.3"/>
	</g>
	<g>
		<defs>
			<path id="SVGID_55_" d="M118,129.1v-2l1.6,1l1.3,0.8c0.2,0.1,0.2,0.3,0,0.4l-1.3,0.8l-1.3,0.7c-0.2,0.1-0.4,0-0.4-0.2V129.1z"/>
		</defs>
		<clipPath id="SVGID_56_">
			<use xlink:href="#SVGID_55_"  style="overflow:visible;"/>
		</clipPath>
		<rect x="116.3" y="125.4" class="st30" width="6.5" height="7.2"/>
	</g>
	<g>
		<defs>
			<path id="SVGID_57_" d="M125.4,145c-0.2,0-0.4-0.2-0.4-0.4v-8.1c0-0.2,0.2-0.4,0.4-0.4c0.2,0,0.4,0.2,0.4,0.4v8.1
				C125.8,144.8,125.6,145,125.4,145"/>
		</defs>
		<clipPath id="SVGID_58_">
			<use xlink:href="#SVGID_57_"  style="overflow:visible;"/>
		</clipPath>
		<rect x="123.3" y="134.4" class="st31" width="4.3" height="12.3"/>
	</g>
	<g>
		<defs>
			<path id="SVGID_59_" d="M125.5,138.1v-2l1.6,1l1.3,0.8c0.2,0.1,0.2,0.3,0,0.4l-1.3,0.8l-1.3,0.7c-0.2,0.1-0.4,0-0.4-0.2V138.1z"
				/>
		</defs>
		<clipPath id="SVGID_60_">
			<use xlink:href="#SVGID_59_"  style="overflow:visible;"/>
		</clipPath>
		<rect x="123.8" y="134.4" class="st32" width="6.5" height="7.2"/>
	</g>
	<g>
		<defs>
			<path id="SVGID_61_" d="M115,123.6c-0.2,0-0.4-0.2-0.4-0.4v-8.1c0-0.2,0.2-0.4,0.4-0.4c0.2,0,0.4,0.2,0.4,0.4v8.1
				C115.4,123.4,115.3,123.6,115,123.6"/>
		</defs>
		<clipPath id="SVGID_62_">
			<use xlink:href="#SVGID_61_"  style="overflow:visible;"/>
		</clipPath>
		<rect x="112.9" y="113" class="st33" width="4.3" height="12.3"/>
	</g>
	<g>
		<defs>
			<path id="SVGID_63_" d="M115.1,116.7v-2l1.6,1l1.3,0.8c0.2,0.1,0.2,0.3,0,0.4l-1.3,0.8l-1.3,0.7c-0.2,0.1-0.4,0-0.4-0.2V116.7z"
				/>
		</defs>
		<clipPath id="SVGID_64_">
			<use xlink:href="#SVGID_63_"  style="overflow:visible;"/>
		</clipPath>
		<rect x="113.4" y="113" class="st34" width="6.5" height="7.2"/>
	</g>
	<g>
		<defs>
			<path id="SVGID_65_" d="M105.7,115c-0.2,0-0.4-0.2-0.4-0.4v-8.1c0-0.2,0.2-0.4,0.4-0.4c0.2,0,0.4,0.2,0.4,0.4v8.1
				C106.1,114.8,105.9,115,105.7,115"/>
		</defs>
		<clipPath id="SVGID_66_">
			<use xlink:href="#SVGID_65_"  style="overflow:visible;"/>
		</clipPath>
		<rect x="103.6" y="104.4" class="st35" width="4.3" height="12.3"/>
	</g>
	<g>
		<defs>
			<path id="SVGID_67_" d="M105.8,108.1v-2l1.6,1l1.3,0.8c0.2,0.1,0.2,0.3,0,0.4l-1.3,0.8l-1.3,0.7c-0.2,0.1-0.4,0-0.4-0.2V108.1z"
				/>
		</defs>
		<clipPath id="SVGID_68_">
			<use xlink:href="#SVGID_67_"  style="overflow:visible;"/>
		</clipPath>
		<rect x="104.1" y="104.4" class="st36" width="6.5" height="7.2"/>
	</g>
	<g>
		<defs>
			<path id="SVGID_69_" d="M113.3,107.4c-0.2,0-0.4-0.2-0.4-0.4v-8.1c0-0.2,0.2-0.4,0.4-0.4c0.2,0,0.4,0.2,0.4,0.4v8.1
				C113.7,107.2,113.5,107.4,113.3,107.4"/>
		</defs>
		<clipPath id="SVGID_70_">
			<use xlink:href="#SVGID_69_"  style="overflow:visible;"/>
		</clipPath>
		<rect x="111.2" y="96.8" class="st37" width="4.3" height="12.3"/>
	</g>
	<g>
		<defs>
			<path id="SVGID_71_" d="M113.4,100.5v-2l1.6,1l1.3,0.8c0.2,0.1,0.2,0.3,0,0.4l-1.3,0.8l-1.3,0.7c-0.2,0.1-0.4,0-0.4-0.2V100.5z"
				/>
		</defs>
		<clipPath id="SVGID_72_">
			<use xlink:href="#SVGID_71_"  style="overflow:visible;"/>
		</clipPath>
		<rect x="111.7" y="96.8" class="st38" width="6.5" height="7.2"/>
	</g>
	<g>
		<defs>
			<path id="SVGID_73_" d="M102.6,84.4c-0.2,0-0.4-0.2-0.4-0.4V76c0-0.2,0.2-0.4,0.4-0.4c0.2,0,0.4,0.2,0.4,0.4V84
				C103,84.3,102.8,84.4,102.6,84.4"/>
		</defs>
		<clipPath id="SVGID_74_">
			<use xlink:href="#SVGID_73_"  style="overflow:visible;"/>
		</clipPath>
		<rect x="100.5" y="73.8" class="st39" width="4.3" height="12.3"/>
	</g>
	<g>
		<defs>
			<path id="SVGID_75_" d="M102.7,77.6v-2l1.6,1l1.3,0.8c0.2,0.1,0.2,0.3,0,0.4l-1.3,0.8l-1.3,0.7c-0.2,0.1-0.4,0-0.4-0.2V77.6z"/>
		</defs>
		<clipPath id="SVGID_76_">
			<use xlink:href="#SVGID_75_"  style="overflow:visible;"/>
		</clipPath>
		<rect x="101" y="73.9" class="st40" width="6.5" height="7.2"/>
	</g>
	<g>
		<defs>
			<path id="SVGID_77_" d="M106.4,122.2c-0.2,0-0.4-0.2-0.4-0.4v-8.1c0-0.2,0.2-0.4,0.4-0.4c0.2,0,0.4,0.2,0.4,0.4v8.1
				C106.8,122,106.6,122.2,106.4,122.2"/>
		</defs>
		<clipPath id="SVGID_78_">
			<use xlink:href="#SVGID_77_"  style="overflow:visible;"/>
		</clipPath>
		<rect x="104.3" y="111.6" class="st41" width="4.3" height="12.3"/>
	</g>
	<g>
		<defs>
			<path id="SVGID_79_" d="M106.5,115.3v-2l1.6,1l1.3,0.8c0.2,0.1,0.2,0.3,0,0.4l-1.3,0.8l-1.3,0.7c-0.2,0.1-0.4,0-0.4-0.2V115.3z"
				/>
		</defs>
		<clipPath id="SVGID_80_">
			<use xlink:href="#SVGID_79_"  style="overflow:visible;"/>
		</clipPath>
		<rect x="104.8" y="111.7" class="st42" width="6.5" height="7.2"/>
	</g>
	<g>
		<defs>
			<path id="SVGID_81_" d="M118.3,123.4c-0.2,0-0.4-0.2-0.4-0.4v-8.1c0-0.2,0.2-0.4,0.4-0.4c0.2,0,0.4,0.2,0.4,0.4v8.1
				C118.7,123.2,118.6,123.4,118.3,123.4"/>
		</defs>
		<clipPath id="SVGID_82_">
			<use xlink:href="#SVGID_81_"  style="overflow:visible;"/>
		</clipPath>
		<rect x="116.2" y="112.8" class="st43" width="4.3" height="12.3"/>
	</g>
	<g>
		<defs>
			<path id="SVGID_83_" d="M118.4,116.5v-2l1.6,1l1.3,0.8c0.2,0.1,0.2,0.3,0,0.4l-1.3,0.8l-1.3,0.7c-0.2,0.1-0.4,0-0.4-0.2V116.5z"
				/>
		</defs>
		<clipPath id="SVGID_84_">
			<use xlink:href="#SVGID_83_"  style="overflow:visible;"/>
		</clipPath>
		<rect x="116.7" y="112.8" class="st44" width="6.5" height="7.2"/>
	</g>
</g>
</svg>
