<?xml version="1.0" encoding="UTF-8" standalone="no"?>
<svg width="136px" height="137px" viewBox="0 0 136 137" version="1.1" xmlns="http://www.w3.org/2000/svg" xmlns:xlink="http://www.w3.org/1999/xlink">
    <!-- Generator: Sketch 41.2 (35397) - http://www.bohemiancoding.com/sketch -->
    <title>Group 12</title>
    <desc>Created with Sketch.</desc>
    <defs>
        <polygon id="path-1" points="0 0.343136047 0 136.104113 135.9932 136.104113 135.9932 0.343136047 0 0.343136047"></polygon>
    </defs>
    <g id="Visual_Design" stroke="none" stroke-width="1" fill="none" fill-rule="evenodd">
        <g id="2_Donate-1" transform="translate(-198.000000, -1327.000000)">
            <g id="Group-12" transform="translate(198.000000, 1327.000000)">
                <g id="Group-3" transform="translate(0.000000, 0.272981)">
                    <mask id="mask-2" fill="white">
                        <use xlink:href="#path-1"></use>
                    </mask>
                    <g id="Clip-2"></g>
                    <path d="M135.9932,68.2236244 C135.9932,105.713217 105.550248,136.104113 67.9964381,136.104113 C30.4426286,136.104113 -0.000323809524,105.713217 -0.000323809524,68.2236244 C-0.000323809524,30.7340314 30.4426286,0.343136047 67.9964381,0.343136047 C105.550248,0.343136047 135.9932,30.7340314 135.9932,68.2236244" id="Fill-1" fill="#FCBF5E" mask="url(#mask-2)"></path>
                </g>
                <path d="M90.1736667,70.0239895 L90.1736667,70.0239895 C87.3484286,70.0239895 85.0364286,67.715943 85.0364286,64.895536 L85.0364286,37.790536 C85.0364286,36.6623733 85.9609048,35.7394779 87.091,35.7394779 L93.5072857,35.7394779 C94.4997619,35.7394779 95.3109048,36.5492337 95.3109048,37.5400128 L95.3109048,64.895536 C95.3109048,67.715943 92.9989048,70.0239895 90.1736667,70.0239895" id="Fill-9" fill="#175377"></path>
                <path d="M36.9005238,102.134121 C36.9005238,105.399005 39.591381,105.93076 42.9088095,105.93076 L88.281,105.693167 L85.8095238,105.93076 L72.7948095,105.824086 C73.9135714,105.882272 89.571381,105.93076 89.571381,105.93076 C93.0264286,105.93076 95.8532857,105.415167 95.8532857,102.016133 L95.8532857,64.7156442 C95.8532857,59.3172721 67.9991905,36.7297721 67.9991905,36.7297721 C67.9991905,36.7297721 36.9005238,58.9568419 36.9005238,64.5362372 L36.9005238,102.134121 Z" id="Fill-13" fill="#107395"></path>
                <path d="M59.0397048,60.7934198 L29.5503714,71.7356291 C27.293419,71.7356291 26.1519905,68.8424895 27.732181,67.1276174 L45.0430381,48.3513035 L66.1958952,26.9388384 C67.1948476,25.8559314 68.8349429,25.8559314 69.8338952,26.9388384 L88.1598952,48.3513035 L105.470752,67.1276174 C107.050943,68.8424895 105.909514,71.7356291 103.650943,71.7356291 L75.332181,60.8613035 C69.960181,59.3904895 64.418181,59.3678616 59.0397048,60.7934198" id="Fill-15" fill="#175377"></path>
            </g>
        </g>
    </g>
</svg>