<?xml version="1.0" encoding="UTF-8" standalone="no"?>
<svg width="135px" height="135px" viewBox="0 0 135 135" version="1.1" xmlns="http://www.w3.org/2000/svg" xmlns:xlink="http://www.w3.org/1999/xlink">
    <!-- Generator: Sketch 41.2 (35397) - http://www.bohemiancoding.com/sketch -->
    <title>Page 1</title>
    <desc>Created with Sketch.</desc>
    <defs></defs>
    <g id="Visual_Design" stroke="none" stroke-width="1" fill="none" fill-rule="evenodd">
        <g id="6_About_Open" transform="translate(-1088.000000, -1036.000000)">
            <g id="Page-1" transform="translate(1088.000000, 1036.000000)">
                <path d="M134.99325,67.496625 C134.99325,104.774304 104.774143,134.993411 67.4964643,134.993411 C30.2187857,134.993411 -0.000321428572,104.774304 -0.000321428572,67.496625 C-0.000321428572,30.2189464 30.2187857,-0.000160714288 67.4964643,-0.000160714288 C104.774143,-0.000160714288 134.99325,30.2189464 134.99325,67.496625" id="Fill-1" fill="#CA8ABC"></path>
                <path d="M91.6362321,68.8790893 L91.6362321,68.8790893 C88.6228393,68.8790893 86.1574821,66.4137321 86.1574821,63.4003393 L86.1574821,34.4476607 C86.1574821,33.2423036 87.1442679,32.257125 88.349625,32.257125 L95.1912321,32.257125 C96.2487321,32.257125 97.1149821,33.1217679 97.1149821,34.180875 L97.1149821,63.4003393 C97.1149821,66.4137321 94.649625,68.8790893 91.6362321,68.8790893" id="Fill-4" fill="#175377"></path>
                <path d="M34.8275893,63.0171964 L34.8275893,103.179696 C34.8275893,106.667196 37.6963393,107.232911 41.2352679,107.232911 L89.6183036,106.980589 L73.1033036,107.120411 C74.2958036,107.183089 90.9940179,107.232911 90.9940179,107.232911 C94.6775893,107.232911 97.6925893,106.683268 97.6925893,103.052732 L97.6925893,63.2100536 C97.6925893,57.4420179 67.989375,33.3155893 67.989375,33.3155893 C67.989375,33.3155893 34.8275893,57.0579107 34.8275893,63.0171964" id="Fill-6" fill="#107395"></path>
                <path d="M58.4360357,59.0191071 L26.9906786,70.7078571 C24.5831786,70.7078571 23.3649643,67.6173214 25.0508571,65.7851786 L43.5105,45.7280357 L66.06675,22.8567857 C67.1322857,21.6996429 68.8808571,21.6996429 69.9463929,22.8567857 L89.4876429,45.7280357 L107.947286,65.7851786 C109.633179,67.6173214 108.414964,70.7078571 106.007464,70.7078571 L75.80925,59.0914286 C70.0813929,57.52125 64.1719286,57.4955357 58.4360357,59.0191071" id="Fill-8" fill="#107395"></path>
                <path d="M48.1941964,67.50675 C39.8724107,80.2947857 62.3209821,96.2038929 67.5554464,96.2038929 C71.7163393,96.2038929 78.7636607,88.2196071 82.9036607,82.5271071 C87.7749107,75.8285357 87.2911607,68.7072857 84.223125,64.8678214 C81.5600893,61.5362143 73.1402679,55.8099643 64.625625,65.718 C64.625625,65.718 53.5540179,59.2701429 48.1941964,67.50675" id="Fill-10" fill="#175377"></path>
            </g>
        </g>
    </g>
</svg>