<?xml version="1.0" encoding="UTF-8" standalone="no"?>
<svg width="139px" height="139px" viewBox="0 0 139 139" version="1.1" xmlns="http://www.w3.org/2000/svg" xmlns:xlink="http://www.w3.org/1999/xlink">
    <!-- Generator: Sketch 41.2 (35397) - http://www.bohemiancoding.com/sketch -->
    <title>Page 1</title>
    <desc>Created with Sketch.</desc>
    <defs></defs>
    <g id="Visual_Design" stroke="none" stroke-width="1" fill="none" fill-rule="evenodd">
        <g id="6_About_Open" transform="translate(-651.000000, -1035.000000)">
            <g id="Page-1" transform="translate(651.000000, 1035.000000)">
                <path d="M138.993381,69.4963595 C138.993381,107.878562 107.877238,138.99305 69.4966905,138.99305 C31.1161429,138.99305 0,107.878562 0,69.4963595 C0,31.1141571 31.1161429,-0.000330952382 69.4966905,-0.000330952382 C107.877238,-0.000330952382 138.993381,31.1141571 138.993381,69.4963595" id="Fill-1" fill="#185377"></path>
                <path d="M61.2050095,70.4586036 C66.6028429,67.9284726 70.3492238,62.4677583 70.3492238,56.1134726 C70.3492238,47.3597821 63.2569143,40.2658179 54.4982595,40.2658179 C45.744569,40.2658179 38.6522595,47.3597821 38.6522595,56.1134726 C38.6522595,62.4677583 42.40195,67.9334369 47.7981286,70.4586036 C35.79945,73.4520679 26.9084143,84.2973774 26.90345,97.2276869 C26.90345,97.5354726 27.0308667,97.8333298 27.2459857,98.0517583 C27.4627595,98.2701869 27.7622714,98.3909845 28.0700571,98.3909845 L80.9347357,98.3909845 C81.2408667,98.3909845 81.5403786,98.2652226 81.7588071,98.0517583 C81.9772357,97.8333298 82.0980333,97.5354726 82.0980333,97.2276869 C82.0980333,84.2973774 73.2069976,73.4520679 61.2050095,70.4586036" id="Fill-3" fill="#EBA856"></path>
                <path d="M96.5060452,78.18055 C101.903879,75.650419 105.651914,70.1897048 105.651914,63.8370738 C105.651914,55.0833833 98.55795,47.9877643 89.80095,47.9877643 C81.0472595,47.9877643 73.9532952,55.0833833 73.9532952,63.8370738 C73.9532952,70.1897048 77.7029857,75.6553833 83.0991643,78.18055 C71.1004857,81.1740143 62.20945,92.0209786 62.2061405,104.949633 C62.2061405,105.257419 62.3335571,105.555276 62.5470214,105.773705 C62.7637952,105.992133 63.0633071,106.112931 63.3710929,106.112931 L116.235771,106.112931 C116.541902,106.112931 116.841414,105.988824 117.059843,105.773705 C117.278271,105.555276 117.399069,105.257419 117.399069,104.949633 C117.399069,92.0209786 108.508033,81.1740143 96.5060452,78.18055" id="Fill-5" fill="#FBBE5D"></path>
            </g>
        </g>
    </g>
</svg>