<svg xmlns="http://www.w3.org/2000/svg" width="1920" height="1080"><path d="M202,-255L338,-251L836,-302Z" fill="#347fa1" stroke="#347fa1" stroke-width="1.51"/><path d="M-87,-276L202,-255L836,-302Z" fill="#3783a5" stroke="#3783a5" stroke-width="1.51"/><path d="M805,1344L556,1367L1301,1364Z" fill="#859db3" stroke="#859db3" stroke-width="1.51"/><path d="M1332,-251L1507,-238L1790,-256Z" fill="#6394b0" stroke="#6394b0" stroke-width="1.51"/><path d="M836,-302L1332,-251L1790,-256Z" fill="#5087a5" stroke="#5087a5" stroke-width="1.51"/><path d="M1713,1339L1479,1347L1986,1366Z" fill="#c0cbd7" stroke="#c0cbd7" stroke-width="1.51"/><path d="M1479,1347L1301,1364L1986,1366Z" fill="#b6c3d0" stroke="#b6c3d0" stroke-width="1.51"/><path d="M1301,1364L556,1367L2234,1391Z" fill="#a5b6c6" stroke="#a5b6c6" stroke-width="1.51"/><path d="M1986,1366L1301,1364L2234,1391Z" fill="#ccd5de" stroke="#ccd5de" stroke-width="1.51"/><path d="M2203,426L1973,630L2256,699Z" fill="#859db2" stroke="#859db2" stroke-width="1.51"/><path d="M2245,209L2203,426L2256,699Z" fill="#8aa2b7" stroke="#8aa2b7" stroke-width="1.51"/><path d="M1790,-256L1963,-258L2267,-313Z" fill="#8ab2c8" stroke="#8ab2c8" stroke-width="1.51"/><path d="M836,-302L1790,-256L2267,-313Z" fill="#6c9bb6" stroke="#6c9bb6" stroke-width="1.51"/><path d="M2053,-55L2166,-34L2267,-313Z" fill="#94b6ca" stroke="#94b6ca" stroke-width="1.51"/><path d="M1963,-258L2053,-55L2267,-313Z" fill="#90b5ca" stroke="#90b5ca" stroke-width="1.51"/><path d="M2166,-34L2245,209L2267,-313Z" fill="#96b6ca" stroke="#96b6ca" stroke-width="1.51"/><path d="M2267,-313L2245,209L2269,820Z" fill="#91acc0" stroke="#91acc0" stroke-width="1.51"/><path d="M2245,209L2256,699L2269,820Z" fill="#8da3b7" stroke="#8da3b7" stroke-width="1.51"/><path d="M2009,1168L2234,1391L2279,1161Z" fill="#d6dee5" stroke="#d6dee5" stroke-width="1.51"/><path d="M2269,820L1959,884L2279,1161Z" fill="#b4c1cf" stroke="#b4c1cf" stroke-width="1.51"/><path d="M1959,884L2009,1168L2279,1161Z" fill="#bac7d3" stroke="#bac7d3" stroke-width="1.51"/><path d="M2009,1168L1986,1366L2234,1391Z" fill="#d7dee5" stroke="#d7dee5" stroke-width="1.51"/><path d="M2166,-34L1960,150L2245,209Z" fill="#8aa9bf" stroke="#8aa9bf" stroke-width="1.51"/><path d="M2256,699L1959,884L2269,820Z" fill="#a1b2c3" stroke="#a1b2c3" stroke-width="1.51"/><path d="M1973,398L2203,426L2245,209Z" fill="#85a1b6" stroke="#85a1b6" stroke-width="1.51"/><path d="M1973,630L1959,884L2256,699Z" fill="#91a6b9" stroke="#91a6b9" stroke-width="1.51"/><path d="M1960,150L1973,398L2245,209Z" fill="#819fb6" stroke="#819fb6" stroke-width="1.51"/><path d="M2053,-55L1960,150L2166,-34Z" fill="#87a9bf" stroke="#87a9bf" stroke-width="1.51"/><path d="M1973,398L1973,630L2203,426Z" fill="#7a95ac" stroke="#7a95ac" stroke-width="1.51"/><path d="M1959,884L1809,1075L2009,1168Z" fill="#aabac9" stroke="#aabac9" stroke-width="1.51"/><path d="M1963,-258L1741,-36L2053,-55Z" fill="#7fa6bd" stroke="#7fa6bd" stroke-width="1.51"/><path d="M1741,-36L1960,150L2053,-55Z" fill="#7ba0b8" stroke="#7ba0b8" stroke-width="1.51"/><path d="M1796,923L1809,1075L1959,884Z" fill="#9baec0" stroke="#9baec0" stroke-width="1.51"/><path d="M1790,-256L1741,-36L1963,-258Z" fill="#79a3bc" stroke="#79a3bc" stroke-width="1.51"/><path d="M1960,150L1765,201L1973,398Z" fill="#7495ae" stroke="#7495ae" stroke-width="1.51"/><path d="M1771,701L1959,884L1973,630Z" fill="#849cb2" stroke="#849cb2" stroke-width="1.51"/><path d="M1973,398L1715,481L1973,630Z" fill="#6c8aa4" stroke="#6c8aa4" stroke-width="1.51"/><path d="M1713,1339L1986,1366L2009,1168Z" fill="#c6d1db" stroke="#c6d1db" stroke-width="1.51"/><path d="M1809,1075L1713,1339L2009,1168Z" fill="#b6c3d1" stroke="#b6c3d1" stroke-width="1.51"/><path d="M1715,481L1771,701L1973,630Z" fill="#6e8ba3" stroke="#6e8ba3" stroke-width="1.51"/><path d="M1771,701L1796,923L1959,884Z" fill="#8ba1b6" stroke="#8ba1b6" stroke-width="1.51"/><path d="M1741,-36L1765,201L1960,150Z" fill="#7296b0" stroke="#7296b0" stroke-width="1.51"/><path d="M1765,201L1715,481L1973,398Z" fill="#6b8ca5" stroke="#6b8ca5" stroke-width="1.51"/><path d="M1121,1321L805,1344L1301,1364Z" fill="#8ba1b6" stroke="#8ba1b6" stroke-width="1.51"/><path d="M1526,365L1715,481L1765,201Z" fill="#5e839f" stroke="#5e839f" stroke-width="1.51"/><path d="M1507,-238L1741,-36L1790,-256Z" fill="#6d99b4" stroke="#6d99b4" stroke-width="1.51"/><path d="M1771,701L1591,829L1796,923Z" fill="#8098ae" stroke="#8098ae" stroke-width="1.51"/><path d="M1796,923L1599,1138L1809,1075Z" fill="#9baec0" stroke="#9baec0" stroke-width="1.51"/><path d="M1599,1138L1713,1339L1809,1075Z" fill="#aabac9" stroke="#aabac9" stroke-width="1.51"/><path d="M1741,-36L1482,206L1765,201Z" fill="#648ca7" stroke="#648ca7" stroke-width="1.51"/><path d="M1715,481L1497,603L1771,701Z" fill="#60809c" stroke="#60809c" stroke-width="1.51"/><path d="M1591,829L1599,1138L1796,923Z" fill="#8ca2b6" stroke="#8ca2b6" stroke-width="1.51"/><path d="M1507,-238L1499,-85L1741,-36Z" fill="#6391ad" stroke="#6391ad" stroke-width="1.51"/><path d="M1499,-85L1482,206L1741,-36Z" fill="#5f8aa6" stroke="#5f8aa6" stroke-width="1.51"/><path d="M1482,206L1526,365L1765,201Z" fill="#5a829f" stroke="#5a829f" stroke-width="1.51"/><path d="M1497,603L1591,829L1771,701Z" fill="#6b88a1" stroke="#6b88a1" stroke-width="1.51"/><path d="M1599,1138L1479,1347L1713,1339Z" fill="#acbcca" stroke="#acbcca" stroke-width="1.51"/><path d="M1526,365L1497,603L1715,481Z" fill="#547996" stroke="#547996" stroke-width="1.51"/><path d="M836,-302L1058,-216L1332,-251Z" fill="#387899" stroke="#387899" stroke-width="1.51"/><path d="M1497,603L1342,928L1591,829Z" fill="#6986a0" stroke="#6986a0" stroke-width="1.51"/><path d="M1252,1068L1479,1347L1599,1138Z" fill="#95a9bc" stroke="#95a9bc" stroke-width="1.51"/><path d="M1342,928L1252,1068L1599,1138Z" fill="#8199af" stroke="#8199af" stroke-width="1.51"/><path d="M1591,829L1342,928L1599,1138Z" fill="#8098af" stroke="#8098af" stroke-width="1.51"/><path d="M1252,1068L1301,1364L1479,1347Z" fill="#96aabc" stroke="#96aabc" stroke-width="1.51"/><path d="M1343,-90L1253,178L1482,206Z" fill="#4a7b9a" stroke="#4a7b9a" stroke-width="1.51"/><path d="M1269,625L1342,928L1497,603Z" fill="#587996" stroke="#587996" stroke-width="1.51"/><path d="M1343,-90L1482,206L1499,-85Z" fill="#5483a1" stroke="#5483a1" stroke-width="1.51"/><path d="M1343,-90L1499,-85L1507,-238Z" fill="#588aa7" stroke="#588aa7" stroke-width="1.51"/><path d="M1320,426L1497,603L1526,365Z" fill="#497290" stroke="#497290" stroke-width="1.51"/><path d="M1482,206L1320,426L1526,365Z" fill="#4c7794" stroke="#4c7794" stroke-width="1.51"/><path d="M1320,426L1269,625L1497,603Z" fill="#426b8a" stroke="#426b8a" stroke-width="1.51"/><path d="M1332,-251L1343,-90L1507,-238Z" fill="#5589a6" stroke="#5589a6" stroke-width="1.51"/><path d="M1253,178L1320,426L1482,206Z" fill="#467392" stroke="#467392" stroke-width="1.51"/><path d="M1252,1068L1111,1168L1301,1364Z" fill="#859db2" stroke="#859db2" stroke-width="1.51"/><path d="M1111,1168L1121,1321L1301,1364Z" fill="#8ca2b7" stroke="#8ca2b7" stroke-width="1.51"/><path d="M1115,406L1269,625L1320,426Z" fill="#366485" stroke="#366485" stroke-width="1.51"/><path d="M1253,178L1115,406L1320,426Z" fill="#396a8a" stroke="#396a8a" stroke-width="1.51"/><path d="M1058,-216L1137,-41L1332,-251Z" fill="#407a9a" stroke="#407a9a" stroke-width="1.51"/><path d="M1102,674L1027,909L1342,928Z" fill="#557894" stroke="#557894" stroke-width="1.51"/><path d="M1269,625L1102,674L1342,928Z" fill="#507491" stroke="#507491" stroke-width="1.51"/><path d="M1332,-251L1137,-41L1343,-90Z" fill="#487e9d" stroke="#487e9d" stroke-width="1.51"/><path d="M1137,-41L1253,178L1343,-90Z" fill="#427797" stroke="#427797" stroke-width="1.51"/><path d="M1027,909L1252,1068L1342,928Z" fill="#6887a0" stroke="#6887a0" stroke-width="1.51"/><path d="M1137,-41L1110,171L1253,178Z" fill="#386f90" stroke="#386f90" stroke-width="1.51"/><path d="M1110,171L1115,406L1253,178Z" fill="#346a8a" stroke="#346a8a" stroke-width="1.51"/><path d="M1115,406L1102,674L1269,625Z" fill="#326181" stroke="#326181" stroke-width="1.51"/><path d="M1027,909L1111,1168L1252,1068Z" fill="#6c89a3" stroke="#6c89a3" stroke-width="1.51"/><path d="M867,-75L833,180L1110,171Z" fill="#236487" stroke="#236487" stroke-width="1.51"/><path d="M1027,909L881,1132L1111,1168Z" fill="#65849e" stroke="#65849e" stroke-width="1.51"/><path d="M868,592L1102,674L1115,406Z" fill="#22587a" stroke="#22587a" stroke-width="1.51"/><path d="M843,450L868,592L1115,406Z" fill="#185578" stroke="#185578" stroke-width="1.51"/><path d="M1110,171L833,180L1115,406Z" fill="#256183" stroke="#256183" stroke-width="1.51"/><path d="M833,180L843,450L1115,406Z" fill="#1c5b7d" stroke="#1c5b7d" stroke-width="1.51"/><path d="M867,-75L1110,171L1137,-41Z" fill="#2d6b8d" stroke="#2d6b8d" stroke-width="1.51"/><path d="M1058,-216L867,-75L1137,-41Z" fill="#2e6f91" stroke="#2e6f91" stroke-width="1.51"/><path d="M132,1310L-65,1354L556,1367Z" fill="#8faec3" stroke="#8faec3" stroke-width="1.51"/><path d="M820,851L1027,909L1102,674Z" fill="#436c8a" stroke="#436c8a" stroke-width="1.51"/><path d="M1111,1168L881,1132L1121,1321Z" fill="#7892aa" stroke="#7892aa" stroke-width="1.51"/><path d="M881,1132L805,1344L1121,1321Z" fill="#7993ab" stroke="#7993ab" stroke-width="1.51"/><path d="M868,592L820,851L1102,674Z" fill="#336182" stroke="#336182" stroke-width="1.51"/><path d="M338,-251L598,-217L836,-302Z" fill="#317b9d" stroke="#317b9d" stroke-width="1.51"/><path d="M836,-302L867,-75L1058,-216Z" fill="#2a7093" stroke="#2a7093" stroke-width="1.51"/><path d="M373,1314L132,1310L556,1367Z" fill="#8baabf" stroke="#8baabf" stroke-width="1.51"/><path d="M820,851L881,1132L1027,909Z" fill="#557895" stroke="#557895" stroke-width="1.51"/><path d="M598,-217L666,-72L836,-302Z" fill="#2e7698" stroke="#2e7698" stroke-width="1.51"/><path d="M833,180L566,197L843,450Z" fill="#216285" stroke="#216285" stroke-width="1.51"/><path d="M836,-302L666,-72L867,-75Z" fill="#2b7194" stroke="#2b7194" stroke-width="1.51"/><path d="M666,-72L833,180L867,-75Z" fill="#276b8e" stroke="#276b8e" stroke-width="1.51"/><path d="M600,703L820,851L868,592Z" fill="#376787" stroke="#376787" stroke-width="1.51"/><path d="M551,1158L805,1344L881,1132Z" fill="#7694ab" stroke="#7694ab" stroke-width="1.51"/><path d="M820,851L613,892L881,1132Z" fill="#577c98" stroke="#577c98" stroke-width="1.51"/><path d="M613,892L551,1158L881,1132Z" fill="#6587a3" stroke="#6587a3" stroke-width="1.51"/><path d="M566,197L560,485L843,450Z" fill="#206083" stroke="#206083" stroke-width="1.51"/><path d="M843,450L560,485L868,592Z" fill="#1b597c" stroke="#1b597c" stroke-width="1.51"/><path d="M560,485L600,703L868,592Z" fill="#255e80" stroke="#255e80" stroke-width="1.51"/><path d="M666,-72L566,197L833,180Z" fill="#276a8d" stroke="#276a8d" stroke-width="1.51"/><path d="M600,703L613,892L820,851Z" fill="#467290" stroke="#467290" stroke-width="1.51"/><path d="M551,1158L556,1367L805,1344Z" fill="#819eb4" stroke="#819eb4" stroke-width="1.51"/><path d="M435,408L560,485L566,197Z" fill="#236487" stroke="#236487" stroke-width="1.51"/><path d="M444,889L551,1158L613,892Z" fill="#5d84a0" stroke="#5d84a0" stroke-width="1.51"/><path d="M598,-217L434,-19L666,-72Z" fill="#2e7597" stroke="#2e7597" stroke-width="1.51"/><path d="M434,-19L566,197L666,-72Z" fill="#2a7093" stroke="#2a7093" stroke-width="1.51"/><path d="M434,-19L449,172L566,197Z" fill="#2a6f92" stroke="#2a6f92" stroke-width="1.51"/><path d="M560,485L381,668L600,703Z" fill="#2c6486" stroke="#2c6486" stroke-width="1.51"/><path d="M600,703L444,889L613,892Z" fill="#4a7694" stroke="#4a7694" stroke-width="1.51"/><path d="M444,889L323,1107L551,1158Z" fill="#688da8" stroke="#688da8" stroke-width="1.51"/><path d="M551,1158L373,1314L556,1367Z" fill="#83a1b7" stroke="#83a1b7" stroke-width="1.51"/><path d="M449,172L435,408L566,197Z" fill="#26698c" stroke="#26698c" stroke-width="1.51"/><path d="M338,-251L434,-19L598,-217Z" fill="#317a9d" stroke="#317a9d" stroke-width="1.51"/><path d="M381,668L444,889L600,703Z" fill="#407191" stroke="#407191" stroke-width="1.51"/><path d="M435,408L381,668L560,485Z" fill="#206083" stroke="#206083" stroke-width="1.51"/><path d="M323,1107L373,1314L551,1158Z" fill="#799bb3" stroke="#799bb3" stroke-width="1.51"/><path d="M338,-251L130,-55L434,-19Z" fill="#337c9f" stroke="#337c9f" stroke-width="1.51"/><path d="M130,-55L122,170L434,-19Z" fill="#30799b" stroke="#30799b" stroke-width="1.51"/><path d="M217,457L381,668L435,408Z" fill="#226386" stroke="#226386" stroke-width="1.51"/><path d="M381,668L176,841L444,889Z" fill="#497a98" stroke="#497a98" stroke-width="1.51"/><path d="M176,841L323,1107L444,889Z" fill="#5d87a3" stroke="#5d87a3" stroke-width="1.51"/><path d="M434,-19L122,170L449,172Z" fill="#2d7395" stroke="#2d7395" stroke-width="1.51"/><path d="M217,457L435,408L449,172Z" fill="#26698b" stroke="#26698b" stroke-width="1.51"/><path d="M122,170L217,457L449,172Z" fill="#2a6f91" stroke="#2a6f91" stroke-width="1.51"/><path d="M202,-255L130,-55L338,-251Z" fill="#3681a4" stroke="#3681a4" stroke-width="1.51"/><path d="M323,1107L132,1310L373,1314Z" fill="#82a4ba" stroke="#82a4ba" stroke-width="1.51"/><path d="M217,457L162,687L381,668Z" fill="#2e6a8c" stroke="#2e6a8c" stroke-width="1.51"/><path d="M162,687L176,841L381,668Z" fill="#417695" stroke="#417695" stroke-width="1.51"/><path d="M111,1160L132,1310L323,1107Z" fill="#7da1b9" stroke="#7da1b9" stroke-width="1.51"/><path d="M176,841L111,1160L323,1107Z" fill="#6992ad" stroke="#6992ad" stroke-width="1.51"/><path d="M-38,187L-47,480L122,170Z" fill="#2e7597" stroke="#2e7597" stroke-width="1.51"/><path d="M-51,1058L111,1160L176,841Z" fill="#6994ae" stroke="#6994ae" stroke-width="1.51"/><path d="M122,170L-47,480L217,457Z" fill="#2a6f92" stroke="#2a6f92" stroke-width="1.51"/><path d="M-10,613L162,687L217,457Z" fill="#2d6c8e" stroke="#2d6c8e" stroke-width="1.51"/><path d="M-47,480L-10,613L217,457Z" fill="#266b8d" stroke="#266b8d" stroke-width="1.51"/><path d="M-115,912L-51,1058L176,841Z" fill="#618eab" stroke="#618eab" stroke-width="1.51"/><path d="M-87,-276L130,-55L202,-255Z" fill="#3886a8" stroke="#3886a8" stroke-width="1.51"/><path d="M-38,187L122,170L130,-55Z" fill="#317a9c" stroke="#317a9c" stroke-width="1.51"/><path d="M-87,-276L-104,-92L130,-55Z" fill="#3986a8" stroke="#3986a8" stroke-width="1.51"/><path d="M162,687L-10,613L176,841Z" fill="#417897" stroke="#417897" stroke-width="1.51"/><path d="M-10,613L-115,912L176,841Z" fill="#4d819f" stroke="#4d819f" stroke-width="1.51"/><path d="M-104,-92L-38,187L130,-55Z" fill="#347fa1" stroke="#347fa1" stroke-width="1.51"/><path d="M111,1160L-65,1354L132,1310Z" fill="#89adc2" stroke="#89adc2" stroke-width="1.51"/><path d="M-51,1058L-65,1354L111,1160Z" fill="#80a6bd" stroke="#80a6bd" stroke-width="1.51"/><path d="M-309,1352L-65,1354L-51,1058Z" fill="#8bb0c6" stroke="#8bb0c6" stroke-width="1.51"/><path d="M-356,1050L-309,1352L-51,1058Z" fill="#80a9c1" stroke="#80a9c1" stroke-width="1.51"/><path d="M-104,-92L-266,-32L-38,187Z" fill="#3783a5" stroke="#3783a5" stroke-width="1.51"/><path d="M-306,421L-47,480L-38,187Z" fill="#2e7598" stroke="#2e7598" stroke-width="1.51"/><path d="M-47,480L-352,618L-10,613Z" fill="#2f7193" stroke="#2f7193" stroke-width="1.51"/><path d="M-352,618L-115,912L-10,613Z" fill="#457f9e" stroke="#457f9e" stroke-width="1.51"/><path d="M-352,618L-362,877L-115,912Z" fill="#538aa7" stroke="#538aa7" stroke-width="1.51"/><path d="M-306,421L-352,618L-47,480Z" fill="#2c7295" stroke="#2c7295" stroke-width="1.51"/><path d="M-266,-32L-357,138L-38,187Z" fill="#3682a4" stroke="#3682a4" stroke-width="1.51"/><path d="M-357,138L-306,421L-38,187Z" fill="#337d9f" stroke="#337d9f" stroke-width="1.51"/><path d="M-263,-246L-104,-92L-87,-276Z" fill="#3c8cae" stroke="#3c8cae" stroke-width="1.51"/><path d="M-115,912L-356,1050L-51,1058Z" fill="#6c9ab5" stroke="#6c9ab5" stroke-width="1.51"/><path d="M-263,-246L-266,-32L-104,-92Z" fill="#3b8bac" stroke="#3b8bac" stroke-width="1.51"/><path d="M-362,877L-356,1050L-115,912Z" fill="#6697b3" stroke="#6697b3" stroke-width="1.51"/><path d="M-357,138L-266,-32L-263,-246Z" fill="#3b8aab" stroke="#3b8aab" stroke-width="1.51"/><path d="M-357,138L-352,618L-306,421Z" fill="#307a9c" stroke="#307a9c" stroke-width="1.51"/><path d="M-357,138L-362,877L-352,618Z" fill="#2e7597" stroke="#2e7597" stroke-width="1.51"/></svg>