<?xml version="1.0" encoding="UTF-8" standalone="no"?>
<svg width="88px" height="88px" viewBox="0 0 88 88" version="1.1" xmlns="http://www.w3.org/2000/svg" xmlns:xlink="http://www.w3.org/1999/xlink">
    <!-- Generator: Sketch 41.2 (35397) - http://www.bohemiancoding.com/sketch -->
    <title>Page 1</title>
    <desc>Created with Sketch.</desc>
    <defs></defs>
    <g id="Visual_Design" stroke="none" stroke-width="1" fill="none" fill-rule="evenodd">
        <g id="6_About_Respect_Hover" transform="translate(-1004.000000, -1311.000000)" fill="#FFFFFF">
            <g id="Page-1" transform="translate(1004.000000, 1311.000000)">
                <path d="M65.565991,38.7952511 L36.2543831,20.658764 C34.8041255,19.780412 33.0628879,19.780412 31.6110826,20.658764 C29.8713927,21.537116 29,23.2906998 29,25.3391478 L29,61.3203781 C29,63.3672659 30.1608251,65.1224098 31.6110826,66.0007619 C32.1930429,66.2925058 33.0628879,66.5842497 33.9327328,66.5842497 C34.8041255,66.5842497 35.6755183,66.2925058 36.2543831,66.0007619 L65.565991,47.8627146 C67.0177962,46.9859227 68.1786213,45.2307788 68.1786213,43.1823309 C68.1786213,41.4287471 67.0177962,39.672043 65.565991,38.7952511 Z M34.8041255,60.4420261 L34.8041255,26.8009877 L62.0835156,43.768939 L34.8041255,60.4420261 Z" id="Fill-1"></path>
                <path d="M43.5309416,0 C19.4445945,0 0,19.5998871 0,43.8785979 C0,68.1573086 19.4445945,87.7571957 43.5309416,87.7571957 C67.6172888,87.7571957 87.0618832,68.1573086 87.0618832,43.8785979 C87.0618832,19.5998871 67.6172888,0 43.5309416,0 Z M43.5309416,81.906716 C22.6360896,81.906716 5.80412555,64.9403248 5.80412555,43.8785979 C5.80412555,22.8168709 22.6360896,5.85047971 43.5309416,5.85047971 C64.4257936,5.85047971 81.2577577,22.8168709 81.2577577,43.8785979 C81.2577577,64.9403248 64.4257936,81.906716 43.5309416,81.906716 Z" id="Fill-2"></path>
            </g>
        </g>
    </g>
</svg>